SplineFontDB: 3.2
FontName: Keith-Medium
FullName: Keith
FamilyName: Keith
Weight: Medium
Copyright: 
Version: 1.00
ItalicAngle: 0
UnderlinePosition: -519
UnderlineWidth: 84
Ascent: 1638
Descent: 410
InvalidEm: 0
sfntRevision: 0x000111eb
LayerCount: 2
Layer: 0 1 "Back" 1
Layer: 1 1 "Fore" 0
XUID: [1021 231 -577440481 14212608]
StyleMap: 0x0040
FSType: 8
OS2Version: 3
OS2_WeightWidthSlopeOnly: 0
OS2_UseTypoMetrics: 0
CreationTime: 1095817380
ModificationTime: 1570135734
PfmFamily: 49
TTFWeight: 400
TTFWidth: 5
LineGap: 0
VLineGap: 0
Panose: 2 7 4 9 2 2 5 2 4 4
OS2TypoAscent: 1255
OS2TypoAOffset: 0
OS2TypoDescent: -386
OS2TypoDOffset: 0
OS2TypoLinegap: 550
OS2WinAscent: 1705
OS2WinAOffset: 0
OS2WinDescent: 615
OS2WinDOffset: 0
HheadAscent: 1705
HheadAOffset: 0
HheadDescent: -615
HheadDOffset: 0
OS2SubXSize: 1434
OS2SubYSize: 1331
OS2SubXOff: 0
OS2SubYOff: 285
OS2SupXSize: 1434
OS2SupYSize: 1331
OS2SupXOff: 0
OS2SupYOff: 865
OS2StrikeYSize: 102
OS2StrikeYPos: 530
OS2CapHeight: 1349
OS2XHeight: 1082
OS2FamilyClass: 2053
OS2Vendor: '1ASC'
OS2CodePages: 6000009f.dfd70000
OS2UnicodeRanges: a00002af.400078fb.00000000.00000000
MarkAttachClasses: 1
DEI: 91125
TtTable: prep
NPUSHB
 100
 9
 3
 4
 253
 1
 245
 80
 40
 31
 242
 70
 40
 31
 241
 70
 42
 31
 240
 70
 53
 31
 139
 238
 155
 238
 171
 238
 3
 107
 239
 139
 239
 2
 187
 239
 1
 164
 239
 1
 27
 239
 91
 239
 107
 239
 3
 4
 236
 68
 236
 2
 10
 235
 70
 255
 31
 231
 228
 38
 31
 230
 228
 61
 31
 229
 228
 30
 31
 227
 226
 70
 31
 11
 226
 1
 64
 226
 70
 22
 31
 225
 224
 70
 31
 187
 224
 203
 224
 219
 224
 3
 64
 224
 51
 54
 70
 224
 70
 24
 31
PUSHW_5
 276
 62
 274
 85
 275
NPUSHB
 12
 61
 3
 85
 223
 61
 221
 85
 222
 61
 220
 85
 187
NPUSHW
 9
 278
 1
 84
 278
 100
 278
 2
 -64
 278
PUSHB_4
 12
 22
 70
 32
PUSHW_1
 278
PUSHB_3
 1
 2
 0
PUSHW_5
 278
 16
 278
 2
 277
PUSHB_3
 220
 61
 31
PUSHW_1
 273
NPUSHB
 99
 3
 255
 31
 16
 221
 32
 221
 64
 221
 80
 221
 128
 221
 176
 221
 6
 32
 220
 80
 220
 128
 220

StartChar: .notdef
Encoding: 65536 -1 0
Width: 1229
Flags: W
LayerCount: 2
Fore
SplineSet
68 0 m 1,0,-1
 68 1365 l 1,1,-1
 612 1365 l 1,2,-1
 612 0 l 1,3,-1
 68 0 l 1,0,-1
136 68 m 1,4,-1
 544 68 l 1,5,-1
 544 1297 l 1,6,-1
 136 1297 l 1,7,-1
 136 68 l 1,4,-1
EndSplineSet
EndChar

StartChar: exclam
Encoding: 33 33 4
Width: 1229
GlyphClass: 2
Flags: W
LayerCount: 2
Fore
SplineSet
689 397 m 1,0,-1
 541 397 l 1,1,-1
 517 1348 l 1,2,-1
 713 1348 l 1,3,-1
 689 397 l 1,0,-1
515 0 m 1,4,-1
 515 201 l 1,5,-1
 709 201 l 1,6,-1
 709 0 l 1,7,-1
 515 0 l 1,4,-1
EndSplineSet
EndChar

StartChar: quotedbl
Encoding: 34 34 5
Width: 1229
GlyphClass: 2
Flags: W
LayerCount: 2
Fore
SplineSet
908 845 m 1,0,-1
 766 845 l 1,1,-1
 726 1484 l 1,2,-1
 950 1484 l 1,3,-1
 908 845 l 1,0,-1
459 845 m 1,4,-1
 318 845 l 1,5,-1
 277 1484 l 1,6,-1
 501 1484 l 1,7,-1
 459 845 l 1,4,-1
EndSplineSet
EndChar

StartChar: numbersign
Encoding: 35 35 6
Width: 1229
GlyphClass: 2
Flags: W
LayerCount: 2
Fore
SplineSet
930 833 m 1,0,-1
 863 516 l 1,1,-1
 1123 516 l 1,2,-1
 1123 408 l 1,3,-1
 840 408 l 1,4,-1
 752 0 l 1,5,-1
 642 0 l 1,6,-1
 728 408 l 1,7,-1
 365 408 l 1,8,-1
 281 0 l 1,9,-1
 171 0 l 1,10,-1
 255 408 l 1,11,-1
 54 408 l 1,12,-1
 54 516 l 1,13,-1
 279 516 l 1,14,-1
 346 833 l 1,15,-1
 105 833 l 1,16,-1
 105 941 l 1,17,-1
 368 941 l 1,18,-1
 457 1349 l 1,19,-1
 567 1349 l 1,20,-1
 479 941 l 1,21,-1
 842 941 l 1,22,-1
 930 1349 l 1,23,-1
 1040 1349 l 1,24,-1
 952 941 l 1,25,-1
 1163 941 l 1,26,-1
 1163 833 l 1,27,-1
 930 833 l 1,0,-1
459 833 m 1,28,-1
 390 516 l 1,29,-1
 752 516 l 1,30,-1
 819 833 l 1,31,-1
 459 833 l 1,28,-1
EndSplineSet
EndChar

StartChar: dollar
Encoding: 36 36 7
Width: 1229
GlyphClass: 2
Flags: W
LayerCount: 2
Fore
SplineSet
1150 380 m 0,0,1
 1150 305 1150 305 1122 241 c 128,-1,2
 1094 177 1094 177 1037 129.5 c 128,-1,3
 980 82 980 82 892.5 53.5 c 128,-1,4
 805 25 805 25 686 20 c 1,5,-1
 686 -141 l 1,6,-1
 558 -141 l 1,7,-1
 558 20 l 1,8,9
 343 27 343 27 221.5 119.5 c 128,-1,10
 100 212 100 212 66 379 c 1,11,-1
 236 416 l 1,12,13
 247 362 247 362 269.5 316.5 c 128,-1,14
 292 271 292 271 330.5 237 c 128,-1,15
 369 203 369 203 425 182.5 c 128,-1,16
 481 162 481 162 558 158 c 1,17,-1
 558 647 l 1,18,19
 550 649 550 649 543 651 c 0,20,21
 539 652 539 652 533 654 c 0,22,23
 530 655 530 655 528 655 c 0,24,25
 479 667 479 667 430 681.5 c 128,-1,26
 381 696 381 696 337 715.5 c 128,-1,27
 293 735 293 735 255 762.5 c 128,-1,28
 217 790 217 790 189 826.5 c 128,-1,29
 161 863 161 863 145.5 911.5 c 128,-1,30
 130 960 130 960 130 1023 c 0,31,32
 130 1105 130 1105 162 1164.5 c 128,-1,33
 194 1224 194 1224 251 1263.5 c 128,-1,34
 308 1303 308 1303 386.5 1323 c 128,-1,35
 465 1343 465 1343 558 1346 c 1,36,-1
 558 1476 l 1,37,-1
 686 1476 l 1,38,-1
 686 1346 l 1,39,40
 788 1342 788 1342 860.5 1320 c 128,-1,41
 933 1298 933 1298 984 1258 c 128,-1,42
 1035 1218 1035 1218 1067 1159.5 c 128,-1,43
 1099 1101 1099 1101 1119 1025 c 1,44,-1
 945 992 l 1,45,46
 935 1040 935 1040 915.5 1079.5 c 128,-1,47
 896 1119 896 1119 864.5 1147.5 c 128,-1,48
 833 1176 833 1176 789 1192.5 c 128,-1,49
 745 1209 745 1209 686 1213 c 1,50,-1
 686 787 l 1,51,52
 744 773 744 773 801 757.5 c 128,-1,53
 858 742 858 742 909.5 720.5 c 128,-1,54
 961 699 961 699 1005 670 c 128,-1,55
 1049 641 1049 641 1081.5 600.5 c 128,-1,56
 1114 560 1114 560 1132 506 c 128,-1,57
 1150 452 1150 452 1150 380 c 0,0,1
302 1018 m 0,58,59
 302 964 302 964 322 928.5 c 128,-1,60
 342 893 342 893 376.5 869.5 c 128,-1,61
 411 846 411 846 457.5 831 c 128,-1,62
 504 816 504 816 558 802 c 1,63,-1
 558 1215 l 1,64,65
 487 1212 487 1212 438 1195.5 c 128,-1,66
 389 1179 389 1179 359 1152.5 c 128,-1,67
 329 1126 329 1126 315.5 1091.5 c 128,-1,68
 302 1057 302 1057 302 1018 c 0,58,59
978 383 m 0,69,70
 978 446 978 446 954 486.5 c 128,-1,71
 930 527 930 527 890 553 c 128,-1,72
 850 579 850 579 797 595.5 c 128,-1,73
 744 612 744 612 686 627 c 1,74,-1
 686 156 l 1,75,76
 751 160 751 160 804.5 175 c 128,-1,77
 858 190 858 190 896.5 218 c 128,-1,78
 935 246 935 246 956.5 287 c 128,-1,79
 978 328 978 328 978 383 c 0,69,70
EndSplineSet
EndChar

StartChar: percent
Encoding: 37 37 8
Width: 1229
GlyphClass: 2
Flags: W
LayerCount: 2
Fore
SplineSet
221 0 m 1,0,-1
 76 0 l 1,1,-1
 1008 1353 l 1,2,-1
 1155 1353 l 1,3,-1
 221 0 l 1,0,-1
291 1361 m 0,4,5
 349 1361 349 1361 400.5 1345.5 c 128,-1,6
 452 1330 452 1330 490.5 1291.5 c 128,-1,7
 529 1253 529 1253 551.5 1188.5 c 128,-1,8
 574 1124 574 1124 574 1025 c 0,9,10
 574 929 574 929 551.5 864 c 128,-1,11
 529 799 529 799 490 759 c 128,-1,12
 451 719 451 719 399 701.5 c 128,-1,13
 347 684 347 684 287 684 c 256,14,15
 227 684 227 684 174.5 701.5 c 128,-1,16
 122 719 122 719 83 758.5 c 128,-1,17
 44 798 44 798 22 863.5 c 128,-1,18
 0 929 0 929 0 1025 c 0,19,20
 0 1124 0 1124 22.5 1188.5 c 128,-1,21
 45 1253 45 1253 84 1291.5 c 128,-1,22
 123 1330 123 1330 176 1345.5 c 128,-1,23
 229 1361 229 1361 291 1361 c 0,4,5
427 1025 m 0,24,25
 427 1091 427 1091 418 1135 c 128,-1,26
 409 1179 409 1179 391.5 1205.5 c 128,-1,27
 374 1232 374 1232 348.5 1242.5 c 128,-1,28
 323 1253 323 1253 290 1253 c 0,29,30
 255 1253 255 1253 228 1242 c 128,-1,31
 201 1231 201 1231 183 1204.5 c 128,-1,32
 165 1178 165 1178 156 1134.5 c 128,-1,33
 147 1091 147 1091 147 1025 c 0,34,35
 147 961 147 961 156.5 917.5 c 128,-1,36
 166 874 166 874 184 847 c 128,-1,37
 202 820 202 820 228.5 808.5 c 128,-1,38
 255 797 255 797 289 797 c 0,39,40
 321 797 321 797 346.5 808.5 c 128,-1,41
 372 820 372 820 390 847 c 128,-1,42
 408 874 408 874 417.5 917.5 c 128,-1,43
 427 961 427 961 427 1025 c 0,24,25
947 665 m 0,44,45
 1005 665 1005 665 1056.5 649.5 c 128,-1,46
 1108 634 1108 634 1146.5 595.5 c 128,-1,47
 1185 557 1185 557 1207.5 492.5 c 128,-1,48
 1230 428 1230 428 1230 329 c 0,49,50
 1230 233 1230 233 1207.5 168 c 128,-1,51
 1185 103 1185 103 1146 63 c 128,-1,52
 1107 23 1107 23 1055 5.5 c 128,-1,53
 1003 -12 1003 -12 943 -12 c 256,54,55
 883 -12 883 -12 830.5 5.5 c 128,-1,56
 778 23 778 23 739 62.5 c 128,-1,57
 700 102 700 102 678 167.5 c 128,-1,58
 656 233 656 233 656 329 c 0,59,60
 656 428 656 428 678.5 492.5 c 128,-1,61
 701 557 701 557 740 595.5 c 128,-1,62
 779 634 779 634 832 649.5 c 128,-1,63
 885 665 885 665 947 665 c 0,44,45
1083 329 m 0,64,65
 1083 395 1083 395 1074 439 c 128,-1,66
 1065 483 1065 483 1047.5 509.5 c 128,-1,67
 1030 536 1030 536 1004.5 546.5 c 128,-1,68
 979 557 979 557 946 557 c 0,69,70
 911 557 911 557 884 546 c 128,-1,71
 857 535 857 535 839 508.5 c 128,-1,72
 821 482 821 482 812 438.5 c 128,-1,73
 803 395 803 395 803 329 c 0,74,75
 803 265 803 265 812.5 221.5 c 128,-1,76
 822 178 822 178 840 151 c 128,-1,77
 858 124 858 124 884.5 112.5 c 128,-1,78
 911 101 911 101 945 101 c 0,79,80
 977 101 977 101 1002.5 112.5 c 128,-1,81
 1028 124 1028 124 1046 151 c 128,-1,82
 1064 178 1064 178 1073.5 221.5 c 128,-1,83
 1083 265 1083 265 1083 329 c 0,64,65
EndSplineSet
EndChar

StartChar: ampersand
Encoding: 38 38 9
Width: 1229
GlyphClass: 2
Flags: W
LayerCount: 2
Fore
SplineSet
1072 -12 m 0,0,1
 1031 -12 1031 -12 993 -1.5 c 128,-1,2
 955 9 955 9 921.5 26.5 c 128,-1,3
 888 44 888 44 859 67.5 c 128,-1,4
 830 91 830 91 808 117 c 1,5,6
 780 92 780 92 744.5 67 c 128,-1,7
 709 42 709 42 666 23 c 128,-1,8
 623 4 623 4 571.5 -8 c 128,-1,9
 520 -20 520 -20 461 -20 c 0,10,11
 352 -20 352 -20 273 9 c 128,-1,12
 194 38 194 38 143 89 c 128,-1,13
 92 140 92 140 67.5 209 c 128,-1,14
 43 278 43 278 43 358 c 0,15,16
 43 435 43 435 65.5 498 c 128,-1,17
 88 561 88 561 127 612.5 c 128,-1,18
 166 664 166 664 219.5 704.5 c 128,-1,19
 273 745 273 745 335 777 c 1,20,21
 320 805 320 805 306.5 839 c 128,-1,22
 293 873 293 873 282.5 909.5 c 128,-1,23
 272 946 272 946 266 984 c 128,-1,24
 260 1022 260 1022 260 1059 c 0,25,26
 260 1121 260 1121 281.5 1175.5 c 128,-1,27
 303 1230 303 1230 346.5 1270.5 c 128,-1,28
 390 1311 390 1311 456 1334 c 128,-1,29
 522 1357 522 1357 611 1357 c 0,30,31
 680 1357 680 1357 739 1339.5 c 128,-1,32
 798 1322 798 1322 841 1288 c 128,-1,33
 884 1254 884 1254 908 1204 c 128,-1,34
 932 1154 932 1154 932 1090 c 0,35,36
 932 1019 932 1019 898 965 c 128,-1,37
 864 911 864 911 807 868 c 128,-1,38
 750 825 750 825 676.5 790 c 128,-1,39
 603 755 603 755 525 722 c 1,40,41
 556 668 556 668 587 618 c 128,-1,42
 618 568 618 568 652 520 c 128,-1,43
 686 472 686 472 723 425.5 c 128,-1,44
 760 379 760 379 802 333 c 1,45,46
 844 420 844 420 875.5 519 c 128,-1,47
 907 618 907 618 927 739 c 1,48,-1
 1072 696 l 1,49,50
 1046 557 1046 557 1002.5 442.5 c 128,-1,51
 959 328 959 328 910 234 c 1,52,53
 953 180 953 180 1001.5 154.5 c 128,-1,54
 1050 129 1050 129 1090 129 c 0,55,56
 1116 129 1116 129 1140 132.5 c 128,-1,57
 1164 136 1164 136 1185 145 c 1,58,-1
 1185 10 l 1,59,60
 1161 -1 1161 -1 1133 -6.5 c 128,-1,61
 1105 -12 1105 -12 1072 -12 c 0,0,1
780 1085 m 0,62,63
 780 1119 780 1119 768 1147 c 128,-1,64
 756 1175 756 1175 733.5 1194.5 c 128,-1,65
 711 1214 711 1214 679 1225 c 128,-1,66
 647 1236 647 1236 608 1236 c 0,67,68
 564 1236 564 1236 527.5 1223.5 c 128,-1,69
 491 1211 491 1211 464.5 1188 c 128,-1,70
 438 1165 438 1165 423 1131.5 c 128,-1,71
 408 1098 408 1098 408 1056 c 0,72,73
 408 991 408 991 427 933 c 128,-1,74
 446 875 446 875 469 832 c 1,75,76
 533 859 533 859 589.5 884 c 128,-1,77
 646 909 646 909 688.5 938 c 128,-1,78
 731 967 731 967 755.5 1002.5 c 128,-1,79
 780 1038 780 1038 780 1085 c 0,62,63
706 217 m 1,80,81
 617 317 617 317 536.5 429.5 c 128,-1,82
 456 542 456 542 390 658 c 1,83,84
 305 612 305 612 258 537.5 c 128,-1,85
 211 463 211 463 211 362 c 0,86,87
 211 310 211 310 227 264 c 128,-1,88
 243 218 243 218 275 184 c 128,-1,89
 307 150 307 150 355.5 130.5 c 128,-1,90
 404 111 404 111 469 111 c 0,91,92
 508 111 508 111 543.5 120.5 c 128,-1,93
 579 130 579 130 609 145 c 128,-1,94
 639 160 639 160 663.5 179 c 128,-1,95
 688 198 688 198 706 217 c 1,80,81
EndSplineSet
EndChar

StartChar: quotesingle
Encoding: 39 39 10
Width: 1229
GlyphClass: 2
Flags: W
LayerCount: 2
Fore
SplineSet
684 845 m 1,0,-1
 543 845 l 1,1,-1
 502 1484 l 1,2,-1
 726 1484 l 1,3,-1
 684 845 l 1,0,-1
EndSplineSet
EndChar

StartChar: parenleft
Encoding: 40 40 11
Width: 1229
GlyphClass: 2
Flags: W
LayerCount: 2
Fore
SplineSet
529 530 m 0,0,1
 529 392 529 392 549.5 270 c 128,-1,2
 570 148 570 148 614 33 c 128,-1,3
 658 -82 658 -82 726.5 -194.5 c 128,-1,4
 795 -307 795 -307 891 -425 c 1,5,-1
 701 -425 l 1,6,7
 609 -312 609 -312 541.5 -202.5 c 128,-1,8
 474 -93 474 -93 429.5 22 c 128,-1,9
 385 137 385 137 363.5 262.5 c 128,-1,10
 342 388 342 388 342 532 c 256,11,12
 342 676 342 676 363.5 800.5 c 128,-1,13
 385 925 385 925 429.5 1039.5 c 128,-1,14
 474 1154 474 1154 541.5 1262.5 c 128,-1,15
 609 1371 609 1371 701 1484 c 1,16,-1
 891 1484 l 1,17,18
 795 1366 795 1366 726.5 1253.5 c 128,-1,19
 658 1141 658 1141 614 1026 c 128,-1,20
 570 911 570 911 549.5 789 c 128,-1,21
 529 667 529 667 529 530 c 0,0,1
EndSplineSet
EndChar

StartChar: parenright
Encoding: 41 41 12
Width: 1229
GlyphClass: 2
Flags: W
LayerCount: 2
Fore
SplineSet
885 532 m 256,0,1
 885 388 885 388 864 262.5 c 128,-1,2
 843 137 843 137 799 22 c 128,-1,3
 755 -93 755 -93 687.5 -202.5 c 128,-1,4
 620 -312 620 -312 528 -425 c 1,5,-1
 336 -425 l 1,6,7
 432 -307 432 -307 501 -194.5 c 128,-1,8
 570 -82 570 -82 614 33 c 128,-1,9
 658 148 658 148 679 270 c 128,-1,10
 700 392 700 392 700 530 c 0,11,12
 700 667 700 667 679 789 c 128,-1,13
 658 911 658 911 614 1026 c 128,-1,14
 570 1141 570 1141 501 1253.5 c 128,-1,15
 432 1366 432 1366 336 1484 c 1,16,-1
 528 1484 l 1,17,18
 620 1371 620 1371 687.5 1262.5 c 128,-1,19
 755 1154 755 1154 799 1039.5 c 128,-1,20
 843 925 843 925 864 800.5 c 128,-1,21
 885 676 885 676 885 532 c 256,0,1
EndSplineSet
EndChar

StartChar: asterisk
Encoding: 42 42 13
Width: 1229
GlyphClass: 2
Flags: W
LayerCount: 2
Fore
SplineSet
671 1188 m 1,0,-1
 935 1291 l 1,1,-1
 980 1159 l 1,2,-1
 698 1086 l 1,3,-1
 883 836 l 1,4,-1
 764 764 l 1,5,-1
 614 1022 l 1,6,-1
 458 766 l 1,7,-1
 339 838 l 1,8,-1
 528 1086 l 1,9,-1
 248 1159 l 1,10,-1
 293 1293 l 1,11,-1
 560 1186 l 1,12,-1
 548 1483 l 1,13,-1
 684 1483 l 1,14,-1
 671 1188 l 1,0,-1
EndSplineSet
EndChar

StartChar: plus
Encoding: 43 43 14
Width: 1229
GlyphClass: 2
Flags: W
LayerCount: 2
Fore
SplineSet
687 608 m 1,0,-1
 687 180 l 1,1,-1
 540 180 l 1,2,-1
 540 608 l 1,3,-1
 116 608 l 1,4,-1
 116 754 l 1,5,-1
 540 754 l 1,6,-1
 540 1182 l 1,7,-1
 687 1182 l 1,8,-1
 687 754 l 1,9,-1
 1111 754 l 1,10,-1
 1111 608 l 1,11,-1
 687 608 l 1,0,-1
EndSplineSet
EndChar

StartChar: comma
Encoding: 44 44 15
Width: 1229
GlyphClass: 2
Flags: W
LayerCount: 2
Fore
SplineSet
259 -363 m 1,0,-1
 428 299 l 1,1,-1
 693 299 l 1,2,-1
 382 -363 l 1,3,-1
 259 -363 l 1,0,-1
EndSplineSet
EndChar

StartChar: uni00AD
Encoding: 45 45 16
AltUni2: 0000ad.ffffffff.0
Width: 1229
GlyphClass: 2
Flags: W
LayerCount: 2
Fore
SplineSet
334 464 m 1,0,-1
 334 624 l 1,1,-1
 894 624 l 1,2,-1
 894 464 l 1,3,-1
 334 464 l 1,0,-1
EndSplineSet
EndChar

StartChar: period
Encoding: 46 46 17
Width: 1229
GlyphClass: 2
Flags: W
LayerCount: 2
Fore
SplineSet
496 0 m 1,0,-1
 496 299 l 1,1,-1
 731 299 l 1,2,-1
 731 0 l 1,3,-1
 496 0 l 1,0,-1
EndSplineSet
EndChar

StartChar: slash
Encoding: 47 47 18
Width: 1229
GlyphClass: 2
Flags: W
LayerCount: 2
Fore
SplineSet
114 -20 m 1,0,-1
 935 1484 l 1,1,-1
 1113 1484 l 1,2,-1
 296 -20 l 1,3,-1
 114 -20 l 1,0,-1
EndSplineSet
EndChar

StartChar: zero
Encoding: 48 48 19
Width: 1229
GlyphClass: 2
Flags: W
LayerCount: 2
Fore
SplineSet
1103 675 m 0,0,1
 1103 480 1103 480 1064.5 347.5 c 128,-1,2
 1026 215 1026 215 959.5 133 c 128,-1,3
 893 51 893 51 803 15.5 c 128,-1,4
 713 -20 713 -20 611 -20 c 0,5,6
 508 -20 508 -20 419 15.5 c 128,-1,7
 330 51 330 51 264.5 132.5 c 128,-1,8
 199 214 199 214 161.5 347 c 128,-1,9
 124 480 124 480 124 675 c 0,10,11
 124 879 124 879 161.5 1013 c 128,-1,12
 199 1147 199 1147 265 1226.5 c 128,-1,13
 331 1306 331 1306 421 1338 c 128,-1,14
 511 1370 511 1370 617 1370 c 0,15,16
 718 1370 718 1370 806.5 1338 c 128,-1,17
 895 1306 895 1306 961 1226.5 c 128,-1,18
 1027 1147 1027 1147 1065 1013 c 128,-1,19
 1103 879 1103 879 1103 675 c 0,0,1
920 675 m 0,20,21
 920 834 920 834 900 940 c 128,-1,22
 880 1046 880 1046 841 1109 c 128,-1,23
 802 1172 802 1172 745.5 1198 c 128,-1,24
 689 1224 689 1224 617 1224 c 0,25,26
 541 1224 541 1224 483 1197.5 c 128,-1,27
 425 1171 425 1171 385.5 1108 c 128,-1,28
 346 1045 346 1045 326 939.5 c 128,-1,29
 306 834 306 834 306 675 c 0,30,31
 306 521 306 521 326.5 416 c 128,-1,32
 347 311 347 311 386.5 247 c 128,-1,33
 426 183 426 183 483 155 c 128,-1,34
 540 127 540 127 613 127 c 0,35,36
 684 127 684 127 741 155 c 128,-1,37
 798 183 798 183 837.5 247 c 128,-1,38
 877 311 877 311 898.5 416 c 128,-1,39
 920 521 920 521 920 675 c 0,20,21
496 555 m 1,40,-1
 496 804 l 1,41,-1
 731 804 l 1,42,-1
 731 555 l 1,43,-1
 496 555 l 1,40,-1
EndSplineSet
EndChar

StartChar: one
Encoding: 49 49 20
Width: 1229
GlyphClass: 2
Flags: W
LayerCount: 2
Fore
SplineSet
157 0 m 1,0,-1
 157 145 l 1,1,-1
 596 145 l 1,2,-1
 596 1166 l 1,3,4
 577 1126 577 1126 529 1090.5 c 128,-1,5
 481 1055 481 1055 418.5 1029 c 128,-1,6
 356 1003 356 1003 285 987.5 c 128,-1,7
 214 972 214 972 148 972 c 1,8,-1
 148 1120 l 1,9,10
 222 1120 222 1120 293.5 1137 c 128,-1,11
 365 1154 365 1154 427 1184.5 c 128,-1,12
 489 1215 489 1215 537 1257 c 128,-1,13
 585 1299 585 1299 611 1349 c 1,14,-1
 777 1349 l 1,15,-1
 777 145 l 1,16,-1
 1130 145 l 1,17,-1
 1130 0 l 1,18,-1
 157 0 l 1,0,-1
EndSplineSet
EndChar

StartChar: two
Encoding: 50 50 21
Width: 1229
GlyphClass: 2
Flags: W
LayerCount: 2
Fore
SplineSet
144 0 m 1,0,-1
 144 117 l 1,1,2
 188 214 188 214 260 296 c 128,-1,3
 332 378 332 378 413.5 450.5 c 128,-1,4
 495 523 495 523 577.5 589 c 128,-1,5
 660 655 660 655 726.5 719.5 c 128,-1,6
 793 784 793 784 835 850.5 c 128,-1,7
 877 917 877 917 877 991 c 0,8,9
 877 1051 877 1051 857.5 1094.5 c 128,-1,10
 838 1138 838 1138 802.5 1166.5 c 128,-1,11
 767 1195 767 1195 718.5 1208.5 c 128,-1,12
 670 1222 670 1222 611 1222 c 0,13,14
 557 1222 557 1222 510.5 1207 c 128,-1,15
 464 1192 464 1192 429 1162 c 128,-1,16
 394 1132 394 1132 372 1087.5 c 128,-1,17
 350 1043 350 1043 343 984 c 1,18,-1
 159 1001 l 1,19,20
 168 1077 168 1077 200 1144 c 128,-1,21
 232 1211 232 1211 287.5 1261.5 c 128,-1,22
 343 1312 343 1312 424 1341 c 128,-1,23
 505 1370 505 1370 611 1370 c 0,24,25
 716 1370 716 1370 799.5 1346 c 128,-1,26
 883 1322 883 1322 941.5 1275.5 c 128,-1,27
 1000 1229 1000 1229 1031 1160 c 128,-1,28
 1062 1091 1062 1091 1062 1002 c 0,29,30
 1062 908 1062 908 1019 827.5 c 128,-1,31
 976 747 976 747 908.5 675 c 128,-1,32
 841 603 841 603 759 538 c 128,-1,33
 677 473 677 473 599 409 c 128,-1,34
 521 345 521 345 457 280.5 c 128,-1,35
 393 216 393 216 361 146 c 1,36,-1
 1084 146 l 1,37,-1
 1084 0 l 1,38,-1
 144 0 l 1,0,-1
EndSplineSet
EndChar

StartChar: three
Encoding: 51 51 22
Width: 1229
GlyphClass: 2
Flags: W
LayerCount: 2
Fore
SplineSet
1099 370 m 0,0,1
 1099 279 1099 279 1067.5 206.5 c 128,-1,2
 1036 134 1036 134 975.5 84 c 128,-1,3
 915 34 915 34 826 7 c 128,-1,4
 737 -20 737 -20 621 -20 c 0,5,6
 491 -20 491 -20 401 12.5 c 128,-1,7
 311 45 311 45 253 98.5 c 128,-1,8
 195 152 195 152 166 220.5 c 128,-1,9
 137 289 137 289 128 362 c 1,10,-1
 314 379 l 1,11,12
 322 323 322 323 343.5 277 c 128,-1,13
 365 231 365 231 402 198 c 128,-1,14
 439 165 439 165 493.5 147 c 128,-1,15
 548 129 548 129 621 129 c 0,16,17
 757 129 757 129 834.5 192 c 128,-1,18
 912 255 912 255 912 376 c 0,19,20
 912 444 912 444 877.5 489 c 128,-1,21
 843 534 843 534 791.5 560.5 c 128,-1,22
 740 587 740 587 679.5 598 c 128,-1,23
 619 609 619 609 568 609 c 2,24,-1
 466 609 l 1,25,-1
 466 765 l 1,26,-1
 564 765 l 2,27,28
 615 765 615 765 670 777.5 c 128,-1,29
 725 790 725 790 770.5 817.5 c 128,-1,30
 816 845 816 845 845.5 889.5 c 128,-1,31
 875 934 875 934 875 997 c 0,32,33
 875 1103 875 1103 808.5 1162.5 c 128,-1,34
 742 1222 742 1222 611 1222 c 0,35,36
 492 1222 492 1222 418.5 1161 c 128,-1,37
 345 1100 345 1100 333 989 c 1,38,-1
 152 1003 l 1,39,40
 163 1096 163 1096 203 1165 c 128,-1,41
 243 1234 243 1234 304.5 1279.5 c 128,-1,42
 366 1325 366 1325 445 1347.5 c 128,-1,43
 524 1370 524 1370 613 1370 c 0,44,45
 732 1370 732 1370 816.5 1342 c 128,-1,46
 901 1314 901 1314 955 1266 c 128,-1,47
 1009 1218 1009 1218 1034.5 1153.5 c 128,-1,48
 1060 1089 1060 1089 1060 1016 c 0,49,50
 1060 961 1060 961 1041.5 909.5 c 128,-1,51
 1023 858 1023 858 986.5 815 c 128,-1,52
 950 772 950 772 894.5 740 c 128,-1,53
 839 708 839 708 765 693 c 1,54,-1
 765 689 l 1,55,56
 847 680 847 680 909.5 650 c 128,-1,57
 972 620 972 620 1014 576.5 c 128,-1,58
 1056 533 1056 533 1077.5 480 c 128,-1,59
 1099 427 1099 427 1099 370 c 0,0,1
EndSplineSet
EndChar

StartChar: four
Encoding: 52 52 23
Width: 1229
GlyphClass: 2
Flags: W
LayerCount: 2
Fore
SplineSet
937 319 m 1,0,-1
 937 0 l 1,1,-1
 757 0 l 1,2,-1
 757 319 l 1,3,-1
 103 319 l 1,4,-1
 103 459 l 1,5,-1
 738 1349 l 1,6,-1
 937 1349 l 1,7,-1
 937 461 l 1,8,-1
 1125 461 l 1,9,-1
 1125 319 l 1,10,-1
 937 319 l 1,0,-1
757 1154 m 1,11,-1
 257 461 l 1,12,-1
 757 461 l 1,13,-1
 757 1154 l 1,11,-1
EndSplineSet
EndChar

StartChar: five
Encoding: 53 53 24
Width: 1229
GlyphClass: 2
Flags: W
LayerCount: 2
Fore
SplineSet
1099 444 m 0,0,1
 1099 344 1099 344 1067 258.5 c 128,-1,2
 1035 173 1035 173 972 111.5 c 128,-1,3
 909 50 909 50 815.5 15 c 128,-1,4
 722 -20 722 -20 599 -20 c 0,5,6
 488 -20 488 -20 405.5 6 c 128,-1,7
 323 32 323 32 266 77.5 c 128,-1,8
 209 123 209 123 175.5 184 c 128,-1,9
 142 245 142 245 128 315 c 1,10,-1
 310 336 l 1,11,12
 321 296 321 296 341 258.5 c 128,-1,13
 361 221 361 221 395.5 191.5 c 128,-1,14
 430 162 430 162 480.5 144.5 c 128,-1,15
 531 127 531 127 603 127 c 0,16,17
 673 127 673 127 730 148.5 c 128,-1,18
 787 170 787 170 827.5 210 c 128,-1,19
 868 250 868 250 890 308.5 c 128,-1,20
 912 367 912 367 912 440 c 0,21,22
 912 500 912 500 891 551.5 c 128,-1,23
 870 603 870 603 831 641 c 128,-1,24
 792 679 792 679 735.5 700.5 c 128,-1,25
 679 722 679 722 607 722 c 0,26,27
 562 722 562 722 524 714 c 128,-1,28
 486 706 486 706 453.5 692 c 128,-1,29
 421 678 421 678 394.5 659.5 c 128,-1,30
 368 641 368 641 345 621 c 1,31,-1
 169 621 l 1,32,-1
 216 1349 l 1,33,-1
 1017 1349 l 1,34,-1
 1017 1204 l 1,35,-1
 382 1204 l 1,36,-1
 353 779 l 1,37,38
 401 816 401 816 473 842.5 c 128,-1,39
 545 869 545 869 644 869 c 0,40,41
 749 869 749 869 833 837 c 128,-1,42
 917 805 917 805 976 748.5 c 128,-1,43
 1035 692 1035 692 1067 614 c 128,-1,44
 1099 536 1099 536 1099 444 c 0,0,1
EndSplineSet
EndChar

StartChar: six
Encoding: 54 54 25
Width: 1229
GlyphClass: 2
Flags: W
LayerCount: 2
Fore
SplineSet
1096 446 m 0,0,1
 1096 346 1096 346 1066.5 260.5 c 128,-1,2
 1037 175 1037 175 979.5 112.5 c 128,-1,3
 922 50 922 50 837 15 c 128,-1,4
 752 -20 752 -20 641 -20 c 0,5,6
 518 -20 518 -20 426 26.5 c 128,-1,7
 334 73 334 73 273 159 c 128,-1,8
 212 245 212 245 181.5 367.5 c 128,-1,9
 151 490 151 490 151 642 c 0,10,11
 151 819 151 819 185.5 955 c 128,-1,12
 220 1091 220 1091 285 1183 c 128,-1,13
 350 1275 350 1275 443.5 1322.5 c 128,-1,14
 537 1370 537 1370 655 1370 c 0,15,16
 727 1370 727 1370 790 1355 c 128,-1,17
 853 1340 853 1340 904.5 1306.5 c 128,-1,18
 956 1273 956 1273 995 1218 c 128,-1,19
 1034 1163 1034 1163 1057 1083 c 1,20,-1
 885 1052 l 1,21,22
 857 1143 857 1143 795.5 1183.5 c 128,-1,23
 734 1224 734 1224 653 1224 c 0,24,25
 579 1224 579 1224 519 1189.5 c 128,-1,26
 459 1155 459 1155 417 1088 c 128,-1,27
 375 1021 375 1021 352.5 922.5 c 128,-1,28
 330 824 330 824 330 695 c 1,29,30
 379 786 379 786 468 833.5 c 128,-1,31
 557 881 557 881 672 881 c 0,32,33
 768 881 768 881 846.5 850 c 128,-1,34
 925 819 925 819 980.5 762 c 128,-1,35
 1036 705 1036 705 1066 625 c 128,-1,36
 1096 545 1096 545 1096 446 c 0,0,1
913 438 m 0,37,38
 913 505 913 505 895 561 c 128,-1,39
 877 617 877 617 841 657 c 128,-1,40
 805 697 805 697 752 719.5 c 128,-1,41
 699 742 699 742 629 742 c 0,42,43
 580 742 580 742 530 725.5 c 128,-1,44
 480 709 480 709 439.5 676.5 c 128,-1,45
 399 644 399 644 373.5 595 c 128,-1,46
 348 546 348 546 348 481 c 0,47,48
 348 409 348 409 368 344.5 c 128,-1,49
 388 280 388 280 425.5 231 c 128,-1,50
 463 182 463 182 516 153.5 c 128,-1,51
 569 125 569 125 635 125 c 0,52,53
 700 125 700 125 751.5 147.5 c 128,-1,54
 803 170 803 170 839 211 c 128,-1,55
 875 252 875 252 894 310 c 128,-1,56
 913 368 913 368 913 438 c 0,37,38
EndSplineSet
EndChar

StartChar: seven
Encoding: 55 55 26
Width: 1229
GlyphClass: 2
Flags: W
LayerCount: 2
Fore
SplineSet
1069 1210 m 1,0,1
 973 1072 973 1072 887.5 925 c 128,-1,2
 802 778 802 778 737 625.5 c 128,-1,3
 672 473 672 473 634 316 c 128,-1,4
 596 159 596 159 596 0 c 1,5,-1
 408 0 l 1,6,7
 408 158 408 158 448 315.5 c 128,-1,8
 488 473 488 473 555 626 c 128,-1,9
 622 779 622 779 710 925 c 128,-1,10
 798 1071 798 1071 895 1204 c 1,11,-1
 158 1204 l 1,12,-1
 158 1349 l 1,13,-1
 1069 1349 l 1,14,-1
 1069 1210 l 1,0,1
EndSplineSet
EndChar

StartChar: eight
Encoding: 56 56 27
Width: 1229
GlyphClass: 2
Flags: W
LayerCount: 2
Fore
SplineSet
1094 378 m 0,0,1
 1094 294 1094 294 1065.5 221.5 c 128,-1,2
 1037 149 1037 149 978.5 95 c 128,-1,3
 920 41 920 41 829.5 10.5 c 128,-1,4
 739 -20 739 -20 614 -20 c 0,5,6
 490 -20 490 -20 399.5 10.5 c 128,-1,7
 309 41 309 41 249.5 94.5 c 128,-1,8
 190 148 190 148 161.5 220.5 c 128,-1,9
 133 293 133 293 133 376 c 0,10,11
 133 447 133 447 156.5 504.5 c 128,-1,12
 180 562 180 562 219.5 604 c 128,-1,13
 259 646 259 646 309.5 672 c 128,-1,14
 360 698 360 698 414 707 c 1,15,-1
 414 711 l 1,16,17
 355 725 355 725 308.5 756 c 128,-1,18
 262 787 262 787 230.5 829 c 128,-1,19
 199 871 199 871 182.5 921 c 128,-1,20
 166 971 166 971 166 1024 c 0,21,22
 166 1092 166 1092 194.5 1154.5 c 128,-1,23
 223 1217 223 1217 279 1265 c 128,-1,24
 335 1313 335 1313 418 1341.5 c 128,-1,25
 501 1370 501 1370 610 1370 c 0,26,27
 725 1370 725 1370 809.5 1341 c 128,-1,28
 894 1312 894 1312 949.5 1264 c 128,-1,29
 1005 1216 1005 1216 1032 1153 c 128,-1,30
 1059 1090 1059 1090 1059 1022 c 0,31,32
 1059 970 1059 970 1042.5 920 c 128,-1,33
 1026 870 1026 870 994.5 828 c 128,-1,34
 963 786 963 786 916.5 755.5 c 128,-1,35
 870 725 870 725 809 713 c 1,36,-1
 809 709 l 1,37,38
 870 699 870 699 922 672.5 c 128,-1,39
 974 646 974 646 1012.5 604 c 128,-1,40
 1051 562 1051 562 1072.5 505.5 c 128,-1,41
 1094 449 1094 449 1094 378 c 0,0,1
872 1012 m 0,42,43
 872 1059 872 1059 858.5 1100 c 128,-1,44
 845 1141 845 1141 814 1171 c 128,-1,45
 783 1201 783 1201 733 1218.5 c 128,-1,46
 683 1236 683 1236 610 1236 c 0,47,48
 540 1236 540 1236 490.5 1218.5 c 128,-1,49
 441 1201 441 1201 409.5 1171 c 128,-1,50
 378 1141 378 1141 364 1100 c 128,-1,51
 350 1059 350 1059 350 1012 c 0,52,53
 350 975 350 975 361 934 c 128,-1,54
 372 893 372 893 401 858.5 c 128,-1,55
 430 824 430 824 481 801.5 c 128,-1,56
 532 779 532 779 612 779 c 0,57,58
 698 779 698 779 749 802 c 128,-1,59
 800 825 800 825 827.5 859.5 c 128,-1,60
 855 894 855 894 863.5 935 c 128,-1,61
 872 976 872 976 872 1012 c 0,42,43
907 395 m 0,62,63
 907 440 907 440 893 484.5 c 128,-1,64
 879 529 879 529 845 564.5 c 128,-1,65
 811 600 811 600 753.5 622 c 128,-1,66
 696 644 696 644 610 644 c 0,67,68
 531 644 531 644 475.5 622 c 128,-1,69
 420 600 420 600 385.5 564 c 128,-1,70
 351 528 351 528 335 483 c 128,-1,71
 319 438 319 438 319 391 c 0,72,73
 319 332 319 332 335 281.5 c 128,-1,74
 351 231 351 231 386 194 c 128,-1,75
 421 157 421 157 478 136 c 128,-1,76
 535 115 535 115 616 115 c 0,77,78
 699 115 699 115 754.5 135.5 c 128,-1,79
 810 156 810 156 844 193.5 c 128,-1,80
 878 231 878 231 892.5 282.5 c 128,-1,81
 907 334 907 334 907 395 c 0,62,63
EndSplineSet
EndChar

StartChar: nine
Encoding: 57 57 28
Width: 1229
GlyphClass: 2
Flags: W
LayerCount: 2
Fore
SplineSet
1087 703 m 0,0,1
 1087 526 1087 526 1052 391 c 128,-1,2
 1017 256 1017 256 951 164.5 c 128,-1,3
 885 73 885 73 790.5 26.5 c 128,-1,4
 696 -20 696 -20 577 -20 c 0,5,6
 496 -20 496 -20 431 -3.5 c 128,-1,7
 366 13 366 13 315 48 c 128,-1,8
 264 83 264 83 228 139 c 128,-1,9
 192 195 192 195 170 274 c 1,10,-1
 342 301 l 1,11,12
 370 210 370 210 429.5 167.5 c 128,-1,13
 489 125 489 125 580 125 c 0,14,15
 654 125 654 125 714 159 c 128,-1,16
 774 193 774 193 816.5 259 c 128,-1,17
 859 325 859 325 883.5 423 c 128,-1,18
 908 521 908 521 909 650 c 1,19,20
 888 603 888 603 851.5 566 c 128,-1,21
 815 529 815 529 768.5 503.5 c 128,-1,22
 722 478 722 478 668.5 464.5 c 128,-1,23
 615 451 615 451 559 451 c 0,24,25
 463 451 463 451 385.5 485 c 128,-1,26
 308 519 308 519 254 580 c 128,-1,27
 200 641 200 641 170.5 725.5 c 128,-1,28
 141 810 141 810 141 911 c 0,29,30
 141 1015 141 1015 172.5 1099.5 c 128,-1,31
 204 1184 204 1184 264 1244 c 128,-1,32
 324 1304 324 1304 411.5 1337 c 128,-1,33
 499 1370 499 1370 610 1370 c 0,34,35
 846 1370 846 1370 966.5 1204 c 128,-1,36
 1087 1038 1087 1038 1087 703 c 0,0,1
891 862 m 0,37,38
 891 935 891 935 872.5 1000.5 c 128,-1,39
 854 1066 854 1066 817.5 1115.5 c 128,-1,40
 781 1165 781 1165 727.5 1194.5 c 128,-1,41
 674 1224 674 1224 604 1224 c 0,42,43
 539 1224 539 1224 487 1201.5 c 128,-1,44
 435 1179 435 1179 399 1137.5 c 128,-1,45
 363 1096 363 1096 343.5 1038.5 c 128,-1,46
 324 981 324 981 324 911 c 0,47,48
 324 845 324 845 341.5 787.5 c 128,-1,49
 359 730 359 730 394 686.5 c 128,-1,50
 429 643 429 643 481 618 c 128,-1,51
 533 593 533 593 602 593 c 0,52,53
 652 593 652 593 703.5 610 c 128,-1,54
 755 627 755 627 796.5 660.5 c 128,-1,55
 838 694 838 694 864.5 744.5 c 128,-1,56
 891 795 891 795 891 862 c 0,37,38
EndSplineSet
EndChar

StartChar: colon
Encoding: 58 58 29
Width: 1229
GlyphClass: 2
Flags: W
LayerCount: 2
Fore
SplineSet
496 0 m 1,0,-1
 496 299 l 1,1,-1
 731 299 l 1,2,-1
 731 0 l 1,3,-1
 496 0 l 1,0,-1
496 783 m 1,4,-1
 496 1082 l 1,5,-1
 731 1082 l 1,6,-1
 731 783 l 1,7,-1
 496 783 l 1,4,-1
EndSplineSet
EndChar

StartChar: uni037E
Encoding: 59 59 30
AltUni2: 00037e.ffffffff.0
Width: 1229
GlyphClass: 2
Flags: W
LayerCount: 2
Fore
SplineSet
496 783 m 1,0,-1
 496 1082 l 1,1,-1
 731 1082 l 1,2,-1
 731 783 l 1,3,-1
 496 783 l 1,0,-1
352 -363 m 1,4,-1
 521 299 l 1,5,-1
 786 299 l 1,6,-1
 475 -363 l 1,7,-1
 352 -363 l 1,4,-1
EndSplineSet
EndChar

StartChar: less
Encoding: 60 60 31
Width: 1229
GlyphClass: 2
Flags: W
LayerCount: 2
Fore
SplineSet
116 571 m 1,0,-1
 116 776 l 1,1,-1
 1111 1194 l 1,2,-1
 1111 1040 l 1,3,-1
 253 674 l 1,4,-1
 1111 307 l 1,5,-1
 1111 154 l 1,6,-1
 116 571 l 1,0,-1
EndSplineSet
EndChar

StartChar: equal
Encoding: 61 61 32
Width: 1229
GlyphClass: 2
Flags: W
LayerCount: 2
Fore
SplineSet
116 856 m 1,0,-1
 116 1004 l 1,1,-1
 1111 1004 l 1,2,-1
 1111 856 l 1,3,-1
 116 856 l 1,0,-1
116 344 m 1,4,-1
 116 492 l 1,5,-1
 1111 492 l 1,6,-1
 1111 344 l 1,7,-1
 116 344 l 1,4,-1
EndSplineSet
EndChar

StartChar: greater
Encoding: 62 62 33
Width: 1229
GlyphClass: 2
Flags: W
LayerCount: 2
Fore
SplineSet
116 154 m 1,0,-1
 116 307 l 1,1,-1
 974 674 l 1,2,-1
 116 1040 l 1,3,-1
 116 1194 l 1,4,-1
 1111 776 l 1,5,-1
 1111 571 l 1,6,-1
 116 154 l 1,0,-1
EndSplineSet
EndChar

StartChar: question
Encoding: 63 63 34
Width: 1229
GlyphClass: 2
Flags: W
LayerCount: 2
Fore
SplineSet
1073 1002 m 0,0,1
 1073 933 1073 933 1054.5 881 c 128,-1,2
 1036 829 1036 829 1005 788 c 128,-1,3
 974 747 974 747 934.5 714 c 128,-1,4
 895 681 895 681 854 651.5 c 128,-1,5
 813 622 813 622 773.5 592.5 c 128,-1,6
 734 563 734 563 702.5 529 c 128,-1,7
 671 495 671 495 651.5 453.5 c 128,-1,8
 632 412 632 412 631 357 c 1,9,-1
 456 357 l 1,10,11
 458 424 458 424 477.5 475 c 128,-1,12
 497 526 497 526 528 566.5 c 128,-1,13
 559 607 559 607 598 639.5 c 128,-1,14
 637 672 637 672 677 701.5 c 128,-1,15
 717 731 717 731 755.5 760.5 c 128,-1,16
 794 790 794 790 824 824 c 128,-1,17
 854 858 854 858 872.5 899.5 c 128,-1,18
 891 941 891 941 891 994 c 0,19,20
 891 1049 891 1049 870.5 1091 c 128,-1,21
 850 1133 850 1133 811.5 1161.5 c 128,-1,22
 773 1190 773 1190 718.5 1205 c 128,-1,23
 664 1220 664 1220 596 1220 c 256,24,25
 528 1220 528 1220 472.5 1201 c 128,-1,26
 417 1182 417 1182 376 1146.5 c 128,-1,27
 335 1111 335 1111 310 1060.5 c 128,-1,28
 285 1010 285 1010 278 948 c 1,29,-1
 94 960 l 1,30,31
 106 1050 106 1050 143 1125.5 c 128,-1,32
 180 1201 180 1201 243 1255 c 128,-1,33
 306 1309 306 1309 394 1339.5 c 128,-1,34
 482 1370 482 1370 594 1370 c 0,35,36
 702 1370 702 1370 790.5 1346 c 128,-1,37
 879 1322 879 1322 942 1275.5 c 128,-1,38
 1005 1229 1005 1229 1039 1160.5 c 128,-1,39
 1073 1092 1073 1092 1073 1002 c 0,0,1
448 0 m 1,40,-1
 448 201 l 1,41,-1
 643 201 l 1,42,-1
 643 0 l 1,43,-1
 448 0 l 1,40,-1
EndSplineSet
EndChar

StartChar: at
Encoding: 64 64 35
Width: 1229
GlyphClass: 2
Flags: W
LayerCount: 2
Fore
SplineSet
1189 755 m 0,0,1
 1189 611 1189 611 1168.5 491.5 c 128,-1,2
 1148 372 1148 372 1109 286 c 128,-1,3
 1070 200 1070 200 1013 152 c 128,-1,4
 956 104 956 104 884 104 c 0,5,6
 854 104 854 104 828 112 c 128,-1,7
 802 120 802 120 782.5 138.5 c 128,-1,8
 763 157 763 157 752 187 c 128,-1,9
 741 217 741 217 741 261 c 0,10,11
 741 263 741 263 741 268.5 c 128,-1,12
 741 274 741 274 741.5 280 c 128,-1,13
 742 286 742 286 742.5 291 c 128,-1,14
 743 296 743 296 743 299 c 2,15,-1
 737 299 l 1,16,17
 722 260 722 260 699 224.5 c 128,-1,18
 676 189 676 189 646.5 162 c 128,-1,19
 617 135 617 135 580.5 119.5 c 128,-1,20
 544 104 544 104 502 104 c 0,21,22
 439 104 439 104 396 136.5 c 128,-1,23
 353 169 353 169 326.5 222.5 c 128,-1,24
 300 276 300 276 288.5 345.5 c 128,-1,25
 277 415 277 415 277 489 c 0,26,27
 277 565 277 565 288.5 640 c 128,-1,28
 300 715 300 715 322 783 c 128,-1,29
 344 851 344 851 376.5 909.5 c 128,-1,30
 409 968 409 968 449.5 1010.5 c 128,-1,31
 490 1053 490 1053 539 1077 c 128,-1,32
 588 1101 588 1101 644 1101 c 0,33,34
 686 1101 686 1101 717 1087.5 c 128,-1,35
 748 1074 748 1074 769.5 1050.5 c 128,-1,36
 791 1027 791 1027 805 995.5 c 128,-1,37
 819 964 819 964 828 928 c 1,38,-1
 833 928 l 1,39,-1
 865 1079 l 1,40,-1
 981 1079 l 1,41,-1
 882 572 l 2,42,43
 874 530 874 530 866.5 489.5 c 128,-1,44
 859 449 859 449 853.5 412.5 c 128,-1,45
 848 376 848 376 845 345.5 c 128,-1,46
 842 315 842 315 842 294 c 0,47,48
 842 242 842 242 856.5 224 c 128,-1,49
 871 206 871 206 891 206 c 0,50,51
 931 206 931 206 963.5 246 c 128,-1,52
 996 286 996 286 1019.5 358.5 c 128,-1,53
 1043 431 1043 431 1055.5 531.5 c 128,-1,54
 1068 632 1068 632 1068 753 c 0,55,56
 1068 882 1068 882 1041.5 994 c 128,-1,57
 1015 1106 1015 1106 964.5 1189 c 128,-1,58
 914 1272 914 1272 840 1320 c 128,-1,59
 766 1368 766 1368 670 1368 c 0,60,61
 550 1368 550 1368 456.5 1301 c 128,-1,62
 363 1234 363 1234 299.5 1118.5 c 128,-1,63
 236 1003 236 1003 203 847 c 128,-1,64
 170 691 170 691 170 514 c 0,65,66
 170 362 170 362 199.5 237 c 128,-1,67
 229 112 229 112 284.5 22.5 c 128,-1,68
 340 -67 340 -67 421 -116 c 128,-1,69
 502 -165 502 -165 604 -165 c 0,70,71
 663 -165 663 -165 714 -152.5 c 128,-1,72
 765 -140 765 -140 809.5 -119 c 128,-1,73
 854 -98 854 -98 894.5 -69 c 128,-1,74
 935 -40 935 -40 973 -7 c 1,75,-1
 1044 -94 l 1,76,77
 1001 -131 1001 -131 952.5 -165 c 128,-1,78
 904 -199 904 -199 848.5 -225.5 c 128,-1,79
 793 -252 793 -252 730 -267.5 c 128,-1,80
 667 -283 667 -283 594 -283 c 0,81,82
 467 -283 467 -283 365 -226.5 c 128,-1,83
 263 -170 263 -170 192 -66 c 128,-1,84
 121 38 121 38 82.5 185 c 128,-1,85
 44 332 44 332 44 514 c 0,86,87
 44 723 44 723 86 900.5 c 128,-1,88
 128 1078 128 1078 208.5 1208 c 128,-1,89
 289 1338 289 1338 405.5 1411 c 128,-1,90
 522 1484 522 1484 672 1484 c 0,91,92
 803 1484 803 1484 900.5 1425 c 128,-1,93
 998 1366 998 1366 1062 1266 c 128,-1,94
 1126 1166 1126 1166 1157.5 1034 c 128,-1,95
 1189 902 1189 902 1189 755 c 0,0,1
775 784 m 0,96,97
 775 890 775 890 740 944.5 c 128,-1,98
 705 999 705 999 646 999 c 0,99,100
 609 999 609 999 577 977 c 128,-1,101
 545 955 545 955 519 917.5 c 128,-1,102
 493 880 493 880 473 830 c 128,-1,103
 453 780 453 780 439.5 723.5 c 128,-1,104
 426 667 426 667 419 607.5 c 128,-1,105
 412 548 412 548 412 491 c 0,106,107
 412 431 412 431 417.5 379.5 c 128,-1,108
 423 328 423 328 436.5 290.5 c 128,-1,109
 450 253 450 253 472 231.5 c 128,-1,110
 494 210 494 210 526 210 c 0,111,112
 565 210 565 210 600.5 237.5 c 128,-1,113
 636 265 636 265 665 315 c 128,-1,114
 694 365 694 365 717 436.5 c 128,-1,115
 740 508 740 508 753 595 c 0,116,117
 756 614 756 614 760 640 c 128,-1,118
 764 666 764 666 767.5 693 c 128,-1,119
 771 720 771 720 773 744.5 c 128,-1,120
 775 769 775 769 775 784 c 0,96,97
EndSplineSet
EndChar

StartChar: A
Encoding: 65 65 36
Width: 1229
GlyphClass: 2
Flags: W
LayerCount: 2
Fore
SplineSet
1034 0 m 1,0,-1
 896 382 l 1,1,-1
 333 382 l 1,2,-1
 196 0 l 1,3,-1
 0 0 l 1,4,-1
 510 1349 l 1,5,-1
 727 1349 l 1,6,-1
 1228 0 l 1,7,-1
 1034 0 l 1,0,-1
701 954 m 2,8,9
 688 992 688 992 674 1031 c 128,-1,10
 660 1070 660 1070 648.5 1105 c 128,-1,11
 637 1140 637 1140 628.5 1166.5 c 128,-1,12
 620 1193 620 1193 616 1205 c 1,13,14
 612 1193 612 1193 604 1166 c 128,-1,15
 596 1139 596 1139 584.5 1104 c 128,-1,16
 573 1069 573 1069 560.5 1030 c 128,-1,17
 548 991 548 991 535 954 c 2,18,-1
 384 531 l 1,19,-1
 847 531 l 1,20,-1
 701 954 l 2,8,9
EndSplineSet
EndChar

StartChar: B
Encoding: 66 66 37
Width: 1229
GlyphClass: 2
Flags: W
LayerCount: 2
Fore
SplineSet
1152 380 m 0,0,1
 1152 277 1152 277 1110 205 c 128,-1,2
 1068 133 1068 133 997 87.5 c 128,-1,3
 926 42 926 42 832 21 c 128,-1,4
 738 0 738 0 634 0 c 2,5,-1
 162 0 l 1,6,-1
 162 1349 l 1,7,-1
 574 1349 l 2,8,9
 691 1349 691 1349 783 1330 c 128,-1,10
 875 1311 875 1311 939 1271.5 c 128,-1,11
 1003 1232 1003 1232 1036.5 1170 c 128,-1,12
 1070 1108 1070 1108 1070 1022 c 0,13,14
 1070 966 1070 966 1053.5 915.5 c 128,-1,15
 1037 865 1037 865 1003.5 824.5 c 128,-1,16
 970 784 970 784 920 754.5 c 128,-1,17
 870 725 870 725 802 711 c 1,18,19
 887 702 887 702 952.5 674 c 128,-1,20
 1018 646 1018 646 1062 602.5 c 128,-1,21
 1106 559 1106 559 1129 502.5 c 128,-1,22
 1152 446 1152 446 1152 380 c 0,0,1
878 998 m 0,23,24
 878 1105 878 1105 802.5 1150.5 c 128,-1,25
 727 1196 727 1196 576 1196 c 2,26,-1
 353 1196 l 1,27,-1
 353 780 l 1,28,-1
 578 780 l 2,29,30
 659 780 659 780 716 795.5 c 128,-1,31
 773 811 773 811 809 839.5 c 128,-1,32
 845 868 845 868 861.5 908 c 128,-1,33
 878 948 878 948 878 998 c 0,23,24
959 397 m 0,34,35
 959 460 959 460 933.5 504 c 128,-1,36
 908 548 908 548 861.5 576.5 c 128,-1,37
 815 605 815 605 750 618 c 128,-1,38
 685 631 685 631 605 631 c 2,39,-1
 353 631 l 1,40,-1
 353 153 l 1,41,-1
 619 153 l 2,42,43
 692 153 692 153 754.5 164.5 c 128,-1,44
 817 176 817 176 862.5 204 c 128,-1,45
 908 232 908 232 933.5 279 c 128,-1,46
 959 326 959 326 959 397 c 0,34,35
EndSplineSet
EndChar

StartChar: C
Encoding: 67 67 38
Width: 1229
GlyphClass: 2
Flags: W
LayerCount: 2
Fore
SplineSet
314 681 m 256,0,1
 314 550 314 550 334 448.5 c 128,-1,2
 354 347 354 347 396 277 c 128,-1,3
 438 207 438 207 503.5 171 c 128,-1,4
 569 135 569 135 661 135 c 0,5,6
 724 135 724 135 774.5 159 c 128,-1,7
 825 183 825 183 864.5 222 c 128,-1,8
 904 261 904 261 933 312 c 128,-1,9
 962 363 962 363 983 417 c 1,10,-1
 1142 352 l 1,11,12
 1114 282 1114 282 1073 215.5 c 128,-1,13
 1032 149 1032 149 974 96.5 c 128,-1,14
 916 44 916 44 838.5 12 c 128,-1,15
 761 -20 761 -20 659 -20 c 0,16,17
 518 -20 518 -20 415.5 30.5 c 128,-1,18
 313 81 313 81 245.5 173 c 128,-1,19
 178 265 178 265 145.5 394 c 128,-1,20
 113 523 113 523 113 681 c 0,21,22
 113 847 113 847 145 975.5 c 128,-1,23
 177 1104 177 1104 243 1191.5 c 128,-1,24
 309 1279 309 1279 410 1324.5 c 128,-1,25
 511 1370 511 1370 649 1370 c 0,26,27
 750 1370 750 1370 826 1342.5 c 128,-1,28
 902 1315 902 1315 957.5 1268.5 c 128,-1,29
 1013 1222 1013 1222 1051.5 1161.5 c 128,-1,30
 1090 1101 1090 1101 1115 1035 c 1,31,-1
 947 970 l 1,32,33
 932 1016 932 1016 906 1060 c 128,-1,34
 880 1104 880 1104 843.5 1138 c 128,-1,35
 807 1172 807 1172 758.5 1193 c 128,-1,36
 710 1214 710 1214 650 1214 c 0,37,38
 561 1214 561 1214 497.5 1180 c 128,-1,39
 434 1146 434 1146 393 1078.5 c 128,-1,40
 352 1011 352 1011 333 911.5 c 128,-1,41
 314 812 314 812 314 681 c 256,0,1
EndSplineSet
EndChar

StartChar: D
Encoding: 68 68 39
Width: 1229
GlyphClass: 2
Flags: W
LayerCount: 2
Fore
SplineSet
1125 688 m 0,0,1
 1125 520 1125 520 1085 391.5 c 128,-1,2
 1045 263 1045 263 969 176 c 128,-1,3
 893 89 893 89 782.5 44.5 c 128,-1,4
 672 0 672 0 532 0 c 2,5,-1
 162 0 l 1,6,-1
 162 1349 l 1,7,-1
 473 1349 l 2,8,9
 631 1349 631 1349 752.5 1310.5 c 128,-1,10
 874 1272 874 1272 957 1191 c 128,-1,11
 1040 1110 1040 1110 1082.5 985 c 128,-1,12
 1125 860 1125 860 1125 688 c 0,0,1
933 688 m 0,13,14
 933 823 933 823 905 919 c 128,-1,15
 877 1015 877 1015 820 1075.5 c 128,-1,16
 763 1136 763 1136 677 1164.5 c 128,-1,17
 591 1193 591 1193 474 1193 c 2,18,-1
 353 1193 l 1,19,-1
 353 156 l 1,20,-1
 515 156 l 2,21,22
 727 156 727 156 830 289 c 128,-1,23
 933 422 933 422 933 688 c 0,13,14
EndSplineSet
EndChar

StartChar: E
Encoding: 69 69 40
Width: 1229
GlyphClass: 2
Flags: W
LayerCount: 2
Fore
SplineSet
162 0 m 1,0,-1
 162 1349 l 1,1,-1
 1081 1349 l 1,2,-1
 1081 1193 l 1,3,-1
 353 1193 l 1,4,-1
 353 771 l 1,5,-1
 1021 771 l 1,6,-1
 1021 617 l 1,7,-1
 353 617 l 1,8,-1
 353 156 l 1,9,-1
 1122 156 l 1,10,-1
 1122 0 l 1,11,-1
 162 0 l 1,0,-1
EndSplineSet
EndChar

StartChar: F
Encoding: 70 70 41
Width: 1229
GlyphClass: 2
Flags: W
LayerCount: 2
Fore
SplineSet
385 1193 m 1,0,-1
 385 699 l 1,1,-1
 1061 699 l 1,2,-1
 1061 541 l 1,3,-1
 385 541 l 1,4,-1
 385 0 l 1,5,-1
 194 0 l 1,6,-1
 194 1349 l 1,7,-1
 1085 1349 l 1,8,-1
 1085 1193 l 1,9,-1
 385 1193 l 1,0,-1
EndSplineSet
EndChar

StartChar: G
Encoding: 71 71 42
Width: 1229
GlyphClass: 2
Flags: W
LayerCount: 2
Fore
SplineSet
1101 133 m 1,0,1
 1065 109 1065 109 1017.5 82 c 128,-1,2
 970 55 970 55 912 32.5 c 128,-1,3
 854 10 854 10 785.5 -5 c 128,-1,4
 717 -20 717 -20 639 -20 c 0,5,6
 505 -20 505 -20 406 32.5 c 128,-1,7
 307 85 307 85 242 178 c 128,-1,8
 177 271 177 271 145 399.5 c 128,-1,9
 113 528 113 528 113 681 c 0,10,11
 113 848 113 848 144 976.5 c 128,-1,12
 175 1105 175 1105 240 1192.5 c 128,-1,13
 305 1280 305 1280 405 1325 c 128,-1,14
 505 1370 505 1370 642 1370 c 0,15,16
 742 1370 742 1370 817.5 1344 c 128,-1,17
 893 1318 893 1318 948.5 1273.5 c 128,-1,18
 1004 1229 1004 1229 1041.5 1168.5 c 128,-1,19
 1079 1108 1079 1108 1103 1039 c 1,20,-1
 932 983 l 1,21,22
 894 1093 894 1093 824.5 1153.5 c 128,-1,23
 755 1214 755 1214 644 1214 c 0,24,25
 554 1214 554 1214 491 1179.5 c 128,-1,26
 428 1145 428 1145 388.5 1077.5 c 128,-1,27
 349 1010 349 1010 331.5 910.5 c 128,-1,28
 314 811 314 811 314 681 c 0,29,30
 314 413 314 413 398.5 274 c 128,-1,31
 483 135 483 135 655 135 c 0,32,33
 703 135 703 135 744.5 143.5 c 128,-1,34
 786 152 786 152 819.5 163.5 c 128,-1,35
 853 175 853 175 877.5 187.5 c 128,-1,36
 902 200 902 200 915 209 c 1,37,-1
 915 545 l 1,38,-1
 622 545 l 1,39,-1
 622 705 l 1,40,-1
 1101 705 l 1,41,-1
 1101 133 l 1,0,1
EndSplineSet
EndChar

StartChar: H
Encoding: 72 72 43
Width: 1229
GlyphClass: 2
Flags: W
LayerCount: 2
Fore
SplineSet
875 0 m 1,0,-1
 875 623 l 1,1,-1
 353 623 l 1,2,-1
 353 0 l 1,3,-1
 162 0 l 1,4,-1
 162 1349 l 1,5,-1
 353 1349 l 1,6,-1
 353 783 l 1,7,-1
 875 783 l 1,8,-1
 875 1349 l 1,9,-1
 1066 1349 l 1,10,-1
 1066 0 l 1,11,-1
 875 0 l 1,0,-1
EndSplineSet
EndChar

StartChar: I
Encoding: 73 73 44
Width: 1229
GlyphClass: 2
Flags: W
LayerCount: 2
Fore
SplineSet
202 1349 m 1,0,-1
 1025 1349 l 1,1,-1
 1025 1193 l 1,2,-1
 709 1193 l 1,3,-1
 709 156 l 1,4,-1
 1025 156 l 1,5,-1
 1025 0 l 1,6,-1
 202 0 l 1,7,-1
 202 156 l 1,8,-1
 518 156 l 1,9,-1
 518 1193 l 1,10,-1
 202 1193 l 1,11,-1
 202 1349 l 1,0,-1
EndSplineSet
EndChar

StartChar: J
Encoding: 74 74 45
Width: 1229
GlyphClass: 2
Flags: W
LayerCount: 2
Fore
SplineSet
986 420 m 2,0,1
 986 320 986 320 960.5 238.5 c 128,-1,2
 935 157 935 157 884.5 99.5 c 128,-1,3
 834 42 834 42 759 11 c 128,-1,4
 684 -20 684 -20 586 -20 c 0,5,6
 415 -20 415 -20 313 69 c 128,-1,7
 211 158 211 158 176 350 c 1,8,-1
 363 381 l 1,9,10
 373 317 373 317 394 270.5 c 128,-1,11
 415 224 415 224 444 194 c 128,-1,12
 473 164 473 164 509.5 149.5 c 128,-1,13
 546 135 546 135 587 135 c 0,14,15
 691 135 691 135 743.5 206.5 c 128,-1,16
 796 278 796 278 796 416 c 2,17,-1
 796 1193 l 1,18,-1
 485 1193 l 1,19,-1
 485 1349 l 1,20,-1
 986 1349 l 1,21,-1
 986 420 l 2,0,1
EndSplineSet
EndChar

StartChar: K
Encoding: 75 75 46
Width: 1229
GlyphClass: 2
Flags: W
LayerCount: 2
Fore
SplineSet
1003 0 m 1,0,-1
 516 638 l 1,1,-1
 353 469 l 1,2,-1
 353 0 l 1,3,-1
 162 0 l 1,4,-1
 162 1349 l 1,5,-1
 353 1349 l 1,6,-1
 353 676 l 1,7,-1
 925 1349 l 1,8,-1
 1150 1349 l 1,9,-1
 646 777 l 1,10,-1
 1227 0 l 1,11,-1
 1003 0 l 1,0,-1
EndSplineSet
EndChar

StartChar: L
Encoding: 76 76 47
Width: 1229
GlyphClass: 2
Flags: W
LayerCount: 2
Fore
SplineSet
237 0 m 1,0,-1
 237 1349 l 1,1,-1
 428 1349 l 1,2,-1
 428 156 l 1,3,-1
 1100 156 l 1,4,-1
 1100 0 l 1,5,-1
 237 0 l 1,0,-1
EndSplineSet
EndChar

StartChar: M
Encoding: 77 77 48
Width: 1229
GlyphClass: 2
Flags: W
LayerCount: 2
Fore
SplineSet
937 0 m 1,0,-1
 937 868 l 2,1,2
 937 919 937 919 937.5 972 c 128,-1,3
 938 1025 938 1025 940 1069 c 0,4,5
 942 1120 942 1120 943 1169 c 1,6,7
 926 1114 926 1114 909 1061 c 0,8,9
 895 1016 895 1016 878.5 966 c 128,-1,10
 862 916 862 916 848 878 c 2,11,-1
 684 440 l 1,12,-1
 547 440 l 1,13,-1
 381 878 l 2,14,15
 375 893 375 893 368 913.5 c 128,-1,16
 361 934 361 934 353.5 957.5 c 128,-1,17
 346 981 346 981 338 1005.5 c 128,-1,18
 330 1030 330 1030 322 1054 c 0,19,20
 304 1109 304 1109 285 1169 c 1,21,22
 286 1121 286 1121 287 1069 c 0,23,24
 288 1024 288 1024 288.5 971.5 c 128,-1,25
 289 919 289 919 289 868 c 2,26,-1
 289 0 l 1,27,-1
 129 0 l 1,28,-1
 129 1349 l 1,29,-1
 366 1349 l 1,30,-1
 551 860 l 2,31,32
 560 837 560 837 571.5 798.5 c 128,-1,33
 583 760 583 760 594 722 c 0,34,35
 606 678 606 678 619 629 c 1,36,37
 633 676 633 676 645 719 c 0,38,39
 656 756 656 756 668 795 c 128,-1,40
 680 834 680 834 689 859 c 2,41,-1
 874 1349 l 1,42,-1
 1099 1349 l 1,43,-1
 1099 0 l 1,44,-1
 937 0 l 1,0,-1
EndSplineSet
EndChar

StartChar: N
Encoding: 78 78 49
Width: 1229
GlyphClass: 2
Flags: W
LayerCount: 2
Fore
SplineSet
836 0 m 1,0,-1
 316 1130 l 1,1,2
 320 1087 320 1087 324 1042 c 0,3,4
 327 1004 327 1004 329.5 959.5 c 128,-1,5
 332 915 332 915 332 876 c 2,6,-1
 332 0 l 1,7,-1
 162 0 l 1,8,-1
 162 1349 l 1,9,-1
 384 1349 l 1,10,-1
 912 211 l 1,11,12
 907 251 907 251 903 297 c 0,13,14
 899 336 899 336 896.5 385 c 128,-1,15
 894 434 894 434 894 485 c 2,16,-1
 894 1349 l 1,17,-1
 1066 1349 l 1,18,-1
 1066 0 l 1,19,-1
 836 0 l 1,0,-1
EndSplineSet
EndChar

StartChar: O
Encoding: 79 79 50
Width: 1229
GlyphClass: 2
Flags: W
LayerCount: 2
Fore
SplineSet
1126 681 m 0,0,1
 1126 508 1126 508 1091 377 c 128,-1,2
 1056 246 1056 246 990 157.5 c 128,-1,3
 924 69 924 69 828.5 24.5 c 128,-1,4
 733 -20 733 -20 613 -20 c 0,5,6
 486 -20 486 -20 390 27 c 128,-1,7
 294 74 294 74 230 163.5 c 128,-1,8
 166 253 166 253 134 383.5 c 128,-1,9
 102 514 102 514 102 681 c 0,10,11
 102 854 102 854 136 983 c 128,-1,12
 170 1112 170 1112 235 1198 c 128,-1,13
 300 1284 300 1284 395.5 1327 c 128,-1,14
 491 1370 491 1370 615 1370 c 0,15,16
 862 1370 862 1370 994 1196.5 c 128,-1,17
 1126 1023 1126 1023 1126 681 c 0,0,1
925 681 m 0,18,19
 925 951 925 951 846 1082.5 c 128,-1,20
 767 1214 767 1214 615 1214 c 0,21,22
 459 1214 459 1214 381 1082.5 c 128,-1,23
 303 951 303 951 303 681 c 256,24,25
 303 411 303 411 382 273 c 128,-1,26
 461 135 461 135 614 135 c 0,27,28
 777 135 777 135 851 275 c 128,-1,29
 925 415 925 415 925 681 c 0,18,19
EndSplineSet
EndChar

StartChar: P
Encoding: 80 80 51
Width: 1229
GlyphClass: 2
Flags: W
LayerCount: 2
Fore
SplineSet
1119 945 m 0,0,1
 1119 861 1119 861 1089.5 783.5 c 128,-1,2
 1060 706 1060 706 999.5 646 c 128,-1,3
 939 586 939 586 848 550 c 128,-1,4
 757 514 757 514 634 514 c 2,5,-1
 353 514 l 1,6,-1
 353 0 l 1,7,-1
 162 0 l 1,8,-1
 162 1349 l 1,9,-1
 622 1349 l 2,10,11
 747 1349 747 1349 840 1320 c 128,-1,12
 933 1291 933 1291 995 1238 c 128,-1,13
 1057 1185 1057 1185 1088 1110.5 c 128,-1,14
 1119 1036 1119 1036 1119 945 c 0,0,1
927 942 m 0,15,16
 927 1067 927 1067 845 1131.5 c 128,-1,17
 763 1196 763 1196 599 1196 c 2,18,-1
 353 1196 l 1,19,-1
 353 665 l 1,20,-1
 607 665 l 2,21,22
 689 665 689 665 749.5 686.5 c 128,-1,23
 810 708 810 708 849.5 745 c 128,-1,24
 889 782 889 782 908 833 c 128,-1,25
 927 884 927 884 927 942 c 0,15,16
EndSplineSet
EndChar

StartChar: Q
Encoding: 81 81 52
Width: 1229
GlyphClass: 2
Flags: W
LayerCount: 2
Fore
SplineSet
1126 681 m 0,0,1
 1126 534 1126 534 1100.5 416.5 c 128,-1,2
 1075 299 1075 299 1026 213 c 128,-1,3
 977 127 977 127 906.5 72.5 c 128,-1,4
 836 18 836 18 746 -4 c 1,5,6
 787 -130 787 -130 854 -187 c 128,-1,7
 921 -244 921 -244 1022 -244 c 0,8,9
 1050 -244 1050 -244 1082 -240 c 128,-1,10
 1114 -236 1114 -236 1137 -231 c 1,11,-1
 1137 -365 l 1,12,13
 1099 -374 1099 -374 1053.5 -380.5 c 128,-1,14
 1008 -387 1008 -387 959 -387 c 0,15,16
 874 -387 874 -387 809.5 -361.5 c 128,-1,17
 745 -336 745 -336 696.5 -288.5 c 128,-1,18
 648 -241 648 -241 613 -172 c 128,-1,19
 578 -103 578 -103 551 -16 c 1,20,21
 439 -5 439 -5 355 46.5 c 128,-1,22
 271 98 271 98 214.5 187 c 128,-1,23
 158 276 158 276 130 400.5 c 128,-1,24
 102 525 102 525 102 681 c 0,25,26
 102 854 102 854 136 983 c 128,-1,27
 170 1112 170 1112 235 1198 c 128,-1,28
 300 1284 300 1284 395.5 1327 c 128,-1,29
 491 1370 491 1370 615 1370 c 0,30,31
 862 1370 862 1370 994 1196.5 c 128,-1,32
 1126 1023 1126 1023 1126 681 c 0,0,1
925 681 m 0,33,34
 925 951 925 951 846 1082.5 c 128,-1,35
 767 1214 767 1214 615 1214 c 0,36,37
 459 1214 459 1214 381 1082.5 c 128,-1,38
 303 951 303 951 303 681 c 256,39,40
 303 411 303 411 382 273 c 128,-1,41
 461 135 461 135 614 135 c 0,42,43
 777 135 777 135 851 275 c 128,-1,44
 925 415 925 415 925 681 c 0,33,34
EndSplineSet
EndChar

StartChar: R
Encoding: 82 82 53
Width: 1229
GlyphClass: 2
Flags: W
LayerCount: 2
Fore
SplineSet
957 0 m 1,0,-1
 591 575 l 1,1,-1
 353 575 l 1,2,-1
 353 0 l 1,3,-1
 162 0 l 1,4,-1
 162 1349 l 1,5,-1
 644 1349 l 2,6,7
 764 1349 764 1349 853.5 1323.5 c 128,-1,8
 943 1298 943 1298 1002.5 1249.5 c 128,-1,9
 1062 1201 1062 1201 1091.5 1132 c 128,-1,10
 1121 1063 1121 1063 1121 976 c 0,11,12
 1121 914 1121 914 1101.5 852.5 c 128,-1,13
 1082 791 1082 791 1040 739.5 c 128,-1,14
 998 688 998 688 933 650 c 128,-1,15
 868 612 868 612 777 597 c 1,16,-1
 1177 0 l 1,17,-1
 957 0 l 1,0,-1
929 973 m 0,18,19
 929 1196 929 1196 625 1196 c 2,20,-1
 353 1196 l 1,21,-1
 353 726 l 1,22,-1
 633 726 l 2,23,24
 716 726 716 726 772.5 746 c 128,-1,25
 829 766 829 766 863.5 799.5 c 128,-1,26
 898 833 898 833 913.5 878 c 128,-1,27
 929 923 929 923 929 973 c 0,18,19
EndSplineSet
EndChar

StartChar: S
Encoding: 83 83 54
Width: 1229
GlyphClass: 2
Flags: W
LayerCount: 2
Fore
SplineSet
1128 370 m 0,0,1
 1128 285 1128 285 1097 213.5 c 128,-1,2
 1066 142 1066 142 1002.5 90 c 128,-1,3
 939 38 939 38 841.5 9 c 128,-1,4
 744 -20 744 -20 610 -20 c 0,5,6
 376 -20 376 -20 245.5 72 c 128,-1,7
 115 164 115 164 79 338 c 1,8,-1
 264 375 l 1,9,10
 276 320 276 320 300 275 c 128,-1,11
 324 230 324 230 366 197.5 c 128,-1,12
 408 165 408 165 469 147 c 128,-1,13
 530 129 530 129 615 129 c 0,14,15
 687 129 687 129 746.5 142.5 c 128,-1,16
 806 156 806 156 848.5 185 c 128,-1,17
 891 214 891 214 915 259 c 128,-1,18
 939 304 939 304 939 367 c 0,19,20
 939 437 939 437 906.5 481 c 128,-1,21
 874 525 874 525 821 553 c 128,-1,22
 768 581 768 581 701.5 598.5 c 128,-1,23
 635 616 635 616 567 633 c 0,24,25
 517 646 517 646 466 660.5 c 128,-1,26
 415 675 415 675 368 694.5 c 128,-1,27
 321 714 321 714 280.5 740.5 c 128,-1,28
 240 767 240 767 209.5 804.5 c 128,-1,29
 179 842 179 842 162 892.5 c 128,-1,30
 145 943 145 943 145 1010 c 0,31,32
 145 1106 145 1106 181 1174.5 c 128,-1,33
 217 1243 217 1243 280 1286.5 c 128,-1,34
 343 1330 343 1330 429 1350 c 128,-1,35
 515 1370 515 1370 615 1370 c 0,36,37
 731 1370 731 1370 812.5 1349.5 c 128,-1,38
 894 1329 894 1329 950.5 1288 c 128,-1,39
 1007 1247 1007 1247 1041 1186.5 c 128,-1,40
 1075 1126 1075 1126 1095 1046 c 1,41,-1
 907 1013 l 1,42,43
 896 1064 896 1064 874.5 1104 c 128,-1,44
 853 1144 853 1144 817.5 1171 c 128,-1,45
 782 1198 782 1198 732 1212 c 128,-1,46
 682 1226 682 1226 614 1226 c 0,47,48
 534 1226 534 1226 480 1209.5 c 128,-1,49
 426 1193 426 1193 393 1164.5 c 128,-1,50
 360 1136 360 1136 345.5 1097 c 128,-1,51
 331 1058 331 1058 331 1013 c 0,52,53
 331 953 331 953 357.5 915.5 c 128,-1,54
 384 878 384 878 429.5 853.5 c 128,-1,55
 475 829 475 829 535.5 813 c 128,-1,56
 596 797 596 797 665 779 c 0,57,58
 720 765 720 765 776 749.5 c 128,-1,59
 832 734 832 734 883.5 713 c 128,-1,60
 935 692 935 692 979.5 663.5 c 128,-1,61
 1024 635 1024 635 1057 594 c 128,-1,62
 1090 553 1090 553 1109 498 c 128,-1,63
 1128 443 1128 443 1128 370 c 0,0,1
EndSplineSet
EndChar

StartChar: T
Encoding: 84 84 55
Width: 1229
GlyphClass: 2
Flags: W
LayerCount: 2
Fore
SplineSet
709 1193 m 1,0,-1
 709 0 l 1,1,-1
 519 0 l 1,2,-1
 519 1193 l 1,3,-1
 76 1193 l 1,4,-1
 76 1349 l 1,5,-1
 1152 1349 l 1,6,-1
 1152 1193 l 1,7,-1
 709 1193 l 1,0,-1
EndSplineSet
EndChar

StartChar: U
Encoding: 85 85 56
Width: 1229
GlyphClass: 2
Flags: W
LayerCount: 2
Fore
SplineSet
1085 490 m 2,0,1
 1085 353 1085 353 1056 256 c 128,-1,2
 1027 159 1027 159 967.5 97.5 c 128,-1,3
 908 36 908 36 817.5 8 c 128,-1,4
 727 -20 727 -20 605 -20 c 0,5,6
 489 -20 489 -20 402 6.5 c 128,-1,7
 315 33 315 33 257.5 91.5 c 128,-1,8
 200 150 200 150 171 243.5 c 128,-1,9
 142 337 142 337 142 472 c 2,10,-1
 142 1349 l 1,11,-1
 333 1349 l 1,12,-1
 333 498 l 2,13,14
 333 401 333 401 345.5 332 c 128,-1,15
 358 263 358 263 388.5 219 c 128,-1,16
 419 175 419 175 471.5 155 c 128,-1,17
 524 135 524 135 604 135 c 0,18,19
 687 135 687 135 742.5 155 c 128,-1,20
 798 175 798 175 832 219.5 c 128,-1,21
 866 264 866 264 880.5 336 c 128,-1,22
 895 408 895 408 895 511 c 2,23,-1
 895 1349 l 1,24,-1
 1085 1349 l 1,25,-1
 1085 490 l 2,0,1
EndSplineSet
EndChar

StartChar: V
Encoding: 86 86 57
Width: 1229
GlyphClass: 2
Flags: W
LayerCount: 2
Fore
SplineSet
713 0 m 1,0,-1
 515 0 l 1,1,-1
 10 1349 l 1,2,-1
 211 1349 l 1,3,-1
 531 447 l 2,4,5
 547 402 547 402 561.5 353.5 c 128,-1,6
 576 305 576 305 588 263 c 0,7,8
 602 215 602 215 615 168 c 1,9,10
 627 213 627 213 641 261 c 0,11,12
 653 302 653 302 668 351 c 128,-1,13
 683 400 683 400 699 447 c 2,14,-1
 1017 1349 l 1,15,-1
 1218 1349 l 1,16,-1
 713 0 l 1,0,-1
EndSplineSet
EndChar

StartChar: W
Encoding: 87 87 58
Width: 1229
GlyphClass: 2
Flags: W
LayerCount: 2
Fore
SplineSet
1018 0 m 1,0,-1
 810 0 l 1,1,-1
 706 387 l 2,2,3
 701 406 701 406 694 432 c 128,-1,4
 687 458 687 458 679.5 487.5 c 128,-1,5
 672 517 672 517 664.5 548.5 c 128,-1,6
 657 580 657 580 650 610 c 0,7,8
 633 680 633 680 616 756 c 1,9,10
 598 679 598 679 581 609 c 0,11,12
 574 579 574 579 566.5 547.5 c 128,-1,13
 559 516 559 516 551.5 486.5 c 128,-1,14
 544 457 544 457 537 431.5 c 128,-1,15
 530 406 530 406 525 387 c 2,16,-1
 419 0 l 1,17,-1
 211 0 l 1,18,-1
 0 1349 l 1,19,-1
 189 1349 l 1,20,-1
 298 514 l 2,21,22
 306 449 306 449 311.5 387 c 128,-1,23
 317 325 317 325 322 276 c 0,24,25
 327 219 327 219 331 168 c 1,26,27
 347 237 347 237 363 304 c 0,28,29
 370 333 370 333 377 363.5 c 128,-1,30
 384 394 384 394 391.5 424 c 128,-1,31
 399 454 399 454 406 481.5 c 128,-1,32
 413 509 413 509 419 532 c 2,33,-1
 528 931 l 1,34,-1
 703 931 l 1,35,-1
 812 532 l 2,36,37
 818 510 818 510 825 482 c 128,-1,38
 832 454 832 454 839.5 424.5 c 128,-1,39
 847 395 847 395 854 364.5 c 128,-1,40
 861 334 861 334 868 305 c 0,41,42
 884 238 884 238 900 168 c 0,43,44
 901 168 901 168 904 202 c 128,-1,45
 907 236 907 236 912 287 c 128,-1,46
 917 338 917 338 923 399 c 128,-1,47
 929 460 929 460 935 514 c 2,48,-1
 1039 1349 l 1,49,-1
 1228 1349 l 1,50,-1
 1018 0 l 1,0,-1
EndSplineSet
EndChar

StartChar: X
Encoding: 88 88 59
Width: 1229
GlyphClass: 2
Flags: W
LayerCount: 2
Fore
SplineSet
614 836 m 1,0,-1
 947 1349 l 1,1,-1
 1152 1349 l 1,2,-1
 717 705 l 1,3,-1
 1193 0 l 1,4,-1
 988 0 l 1,5,-1
 614 573 l 1,6,-1
 241 0 l 1,7,-1
 36 0 l 1,8,-1
 512 705 l 1,9,-1
 77 1349 l 1,10,-1
 282 1349 l 1,11,-1
 614 836 l 1,0,-1
EndSplineSet
EndChar

StartChar: Y
Encoding: 89 89 60
Width: 1229
GlyphClass: 2
Flags: W
LayerCount: 2
Fore
SplineSet
708 584 m 1,0,-1
 708 0 l 1,1,-1
 520 0 l 1,2,-1
 520 584 l 1,3,-1
 36 1349 l 1,4,-1
 241 1349 l 1,5,-1
 615 738 l 1,6,-1
 987 1349 l 1,7,-1
 1192 1349 l 1,8,-1
 708 584 l 1,0,-1
EndSplineSet
EndChar

StartChar: Z
Encoding: 90 90 61
Width: 1229
GlyphClass: 2
Flags: W
LayerCount: 2
Fore
SplineSet
1155 0 m 1,0,-1
 73 0 l 1,1,-1
 73 143 l 1,2,-1
 891 1193 l 1,3,-1
 146 1193 l 1,4,-1
 146 1349 l 1,5,-1
 1108 1349 l 1,6,-1
 1108 1210 l 1,7,-1
 290 156 l 1,8,-1
 1155 156 l 1,9,-1
 1155 0 l 1,0,-1
EndSplineSet
EndChar

StartChar: bracketleft
Encoding: 91 91 62
Width: 1229
GlyphClass: 2
Flags: W
LayerCount: 2
Fore
SplineSet
410 -425 m 1,0,-1
 410 1484 l 1,1,-1
 957 1484 l 1,2,-1
 957 1345 l 1,3,-1
 590 1345 l 1,4,-1
 590 -286 l 1,5,-1
 957 -286 l 1,6,-1
 957 -425 l 1,7,-1
 410 -425 l 1,0,-1
EndSplineSet
EndChar

StartChar: backslash
Encoding: 92 92 63
Width: 1229
GlyphClass: 2
Flags: W
LayerCount: 2
Fore
SplineSet
932 -20 m 1,0,-1
 115 1484 l 1,1,-1
 293 1484 l 1,2,-1
 1114 -20 l 1,3,-1
 932 -20 l 1,0,-1
EndSplineSet
EndChar

StartChar: bracketright
Encoding: 93 93 64
Width: 1229
GlyphClass: 2
Flags: W
LayerCount: 2
Fore
SplineSet
270 -425 m 1,0,-1
 270 -286 l 1,1,-1
 637 -286 l 1,2,-1
 637 1345 l 1,3,-1
 270 1345 l 1,4,-1
 270 1484 l 1,5,-1
 817 1484 l 1,6,-1
 817 -425 l 1,7,-1
 270 -425 l 1,0,-1
EndSplineSet
EndChar

StartChar: asciicircum
Encoding: 94 94 65
Width: 1229
GlyphClass: 2
Flags: W
LayerCount: 2
Fore
SplineSet
940 442 m 1,0,-1
 611 1245 l 1,1,-1
 285 442 l 1,2,-1
 133 442 l 1,3,-1
 511 1349 l 1,4,-1
 714 1349 l 1,5,-1
 1094 442 l 1,6,-1
 940 442 l 1,0,-1
EndSplineSet
EndChar

StartChar: underscore
Encoding: 95 95 66
Width: 1229
GlyphClass: 2
Flags: W
LayerCount: 2
Fore
SplineSet
-5 -220 m 1,0,-1
 -5 -124 l 1,1,-1
 1233 -124 l 1,2,-1
 1233 -220 l 1,3,-1
 -5 -220 l 1,0,-1
EndSplineSet
EndChar

StartChar: grave
Encoding: 96 96 67
Width: 1229
GlyphClass: 2
Flags: W
LayerCount: 2
Fore
SplineSet
702 1201 m 1,0,-1
 402 1431 l 1,1,-1
 402 1460 l 1,2,-1
 599 1460 l 1,3,-1
 826 1221 l 1,4,-1
 826 1201 l 1,5,-1
 702 1201 l 1,0,-1
EndSplineSet
EndChar

StartChar: a
Encoding: 97 97 68
Width: 1229
GlyphClass: 2
Flags: W
LayerCount: 2
Fore
SplineSet
1101 111 m 0,0,1
 1116 111 1116 111 1131 113 c 128,-1,2
 1146 115 1146 115 1160 118 c 1,3,-1
 1160 6 l 1,4,5
 1126 -2 1126 -2 1092.5 -6 c 128,-1,6
 1059 -10 1059 -10 1021 -10 c 0,7,8
 970 -10 970 -10 933.5 3.5 c 128,-1,9
 897 17 897 17 874 44.5 c 128,-1,10
 851 72 851 72 839 112.5 c 128,-1,11
 827 153 827 153 824 207 c 1,12,-1
 818 207 l 1,13,14
 790 155 790 155 756 113 c 128,-1,15
 722 71 722 71 678 41.5 c 128,-1,16
 634 12 634 12 577 -4 c 128,-1,17
 520 -20 520 -20 446 -20 c 0,18,19
 288 -20 288 -20 208 66 c 128,-1,20
 128 152 128 152 128 302 c 0,21,22
 128 409 128 409 167.5 477.5 c 128,-1,23
 207 546 207 546 271 585 c 128,-1,24
 335 624 335 624 416.5 639.5 c 128,-1,25
 498 655 498 655 582 656 c 2,26,-1
 818 660 l 1,27,-1
 818 719 l 2,28,29
 818 786 818 786 804.5 833 c 128,-1,30
 791 880 791 880 763.5 909 c 128,-1,31
 736 938 736 938 694 951.5 c 128,-1,32
 652 965 652 965 596 965 c 0,33,34
 546 965 546 965 505.5 957.5 c 128,-1,35
 465 950 465 950 436 930.5 c 128,-1,36
 407 911 407 911 388.5 877.5 c 128,-1,37
 370 844 370 844 364 793 c 1,38,-1
 176 810 l 1,39,40
 186 874 186 874 213.5 927.5 c 128,-1,41
 241 981 241 981 291 1020 c 128,-1,42
 341 1059 341 1059 416.5 1080.5 c 128,-1,43
 492 1102 492 1102 599 1102 c 0,44,45
 799 1102 799 1102 899.5 1008.5 c 128,-1,46
 1000 915 1000 915 1000 738 c 2,47,-1
 1000 272 l 2,48,49
 1000 192 1000 192 1021 151.5 c 128,-1,50
 1042 111 1042 111 1101 111 c 0,0,1
492 117 m 0,51,52
 575 117 575 117 636 148.5 c 128,-1,53
 697 180 697 180 737.5 228 c 128,-1,54
 778 276 778 276 798 334 c 128,-1,55
 818 392 818 392 818 445 c 2,56,-1
 818 534 l 1,57,-1
 628 530 l 2,58,59
 573 529 573 529 517.5 521.5 c 128,-1,60
 462 514 462 514 417.5 490 c 128,-1,61
 373 466 373 466 345 420.5 c 128,-1,62
 317 375 317 375 317 299 c 0,63,64
 317 217 317 217 361.5 167 c 128,-1,65
 406 117 406 117 492 117 c 0,51,52
EndSplineSet
EndChar

StartChar: b
Encoding: 98 98 69
Width: 1229
GlyphClass: 2
Flags: W
LayerCount: 2
Fore
SplineSet
1090 546 m 0,0,1
 1090 262 1090 262 988.5 121 c 128,-1,2
 887 -20 887 -20 698 -20 c 0,3,4
 582 -20 582 -20 497 23 c 128,-1,5
 412 66 412 66 364 164 c 1,6,-1
 362 164 l 1,7,8
 362 138 362 138 361 110.5 c 128,-1,9
 360 83 360 83 358.5 60 c 128,-1,10
 357 37 357 37 355.5 20.5 c 128,-1,11
 354 4 354 4 353 0 c 1,12,-1
 179 0 l 1,13,14
 180 9 180 9 181 30.5 c 128,-1,15
 182 52 182 52 183 82 c 128,-1,16
 184 112 184 112 184.5 148 c 128,-1,17
 185 184 185 184 185 223 c 2,18,-1
 185 1484 l 1,19,-1
 365 1484 l 1,20,-1
 365 1061 l 2,21,22
 365 1032 365 1032 364.5 1003.5 c 128,-1,23
 364 975 364 975 363 953 c 0,24,25
 362 927 362 927 361 904 c 1,26,-1
 365 904 l 1,27,28
 413 1009 413 1009 497.5 1056.5 c 128,-1,29
 582 1104 582 1104 699 1104 c 0,30,31
 894 1104 894 1104 992 965.5 c 128,-1,32
 1090 827 1090 827 1090 546 c 0,0,1
904 540 m 0,33,34
 904 652 904 652 889 732.5 c 128,-1,35
 874 813 874 813 842.5 864.5 c 128,-1,36
 811 916 811 916 763.5 940.5 c 128,-1,37
 716 965 716 965 650 965 c 256,38,39
 584 965 584 965 531 942.5 c 128,-1,40
 478 920 478 920 441.5 868.5 c 128,-1,41
 405 817 405 817 385 732.5 c 128,-1,42
 365 648 365 648 365 524 c 0,43,44
 365 405 365 405 385 326 c 128,-1,45
 405 247 405 247 441.5 199.5 c 128,-1,46
 478 152 478 152 530.5 132.5 c 128,-1,47
 583 113 583 113 648 113 c 0,48,49
 711 113 711 113 759 136 c 128,-1,50
 807 159 807 159 839 210 c 128,-1,51
 871 261 871 261 887.5 342.5 c 128,-1,52
 904 424 904 424 904 540 c 0,33,34
EndSplineSet
EndChar

StartChar: c
Encoding: 99 99 70
Width: 1229
GlyphClass: 2
Flags: W
LayerCount: 2
Fore
SplineSet
130 542 m 0,0,1
 130 705 130 705 173 813 c 128,-1,2
 216 921 216 921 286.5 985 c 128,-1,3
 357 1049 357 1049 447 1075.5 c 128,-1,4
 537 1102 537 1102 632 1102 c 0,5,6
 730 1102 730 1102 807 1077 c 128,-1,7
 884 1052 884 1052 939.5 1008.5 c 128,-1,8
 995 965 995 965 1030 906 c 128,-1,9
 1065 847 1065 847 1078 779 c 1,10,-1
 886 765 l 1,11,12
 870 856 870 856 806 908.5 c 128,-1,13
 742 961 742 961 624 961 c 0,14,15
 538 961 538 961 479.5 933.5 c 128,-1,16
 421 906 421 906 385.5 853.5 c 128,-1,17
 350 801 350 801 334.5 723.5 c 128,-1,18
 319 646 319 646 319 546 c 256,19,20
 319 446 319 446 334.5 366.5 c 128,-1,21
 350 287 350 287 385.5 232 c 128,-1,22
 421 177 421 177 479.5 148 c 128,-1,23
 538 119 538 119 623 119 c 0,24,25
 731 119 731 119 802 172 c 128,-1,26
 873 225 873 225 890 334 c 1,27,-1
 1080 322 l 1,28,29
 1071 255 1071 255 1037 193 c 128,-1,30
 1003 131 1003 131 946 84 c 128,-1,31
 889 37 889 37 810 8.5 c 128,-1,32
 731 -20 731 -20 631 -20 c 0,33,34
 494 -20 494 -20 398.5 23 c 128,-1,35
 303 66 303 66 243.5 141.5 c 128,-1,36
 184 217 184 217 157 319.5 c 128,-1,37
 130 422 130 422 130 542 c 0,0,1
EndSplineSet
EndChar

StartChar: d
Encoding: 100 100 71
Width: 1229
GlyphClass: 2
Flags: W
LayerCount: 2
Fore
SplineSet
862 174 m 1,0,1
 813 69 813 69 732 21.5 c 128,-1,2
 651 -26 651 -26 530 -26 c 0,3,4
 328 -26 328 -26 233 113 c 128,-1,5
 138 252 138 252 138 532 c 0,6,7
 138 1098 138 1098 530 1098 c 0,8,9
 651 1098 651 1098 732.5 1055 c 128,-1,10
 814 1012 814 1012 863 914 c 1,11,-1
 865 914 l 1,12,13
 865 919 865 919 864.5 940 c 128,-1,14
 864 961 864 961 864 986 c 128,-1,15
 864 1011 864 1011 863.5 1033.5 c 128,-1,16
 863 1056 863 1056 863 1065 c 2,17,-1
 863 1484 l 1,18,-1
 1043 1484 l 1,19,-1
 1043 223 l 2,20,21
 1043 184 1043 184 1043.5 148 c 128,-1,22
 1044 112 1044 112 1045 82 c 128,-1,23
 1046 52 1046 52 1047 30.5 c 128,-1,24
 1048 9 1048 9 1049 0 c 1,25,-1
 877 0 l 1,26,27
 876 4 876 4 874 22 c 128,-1,28
 872 40 872 40 870.5 65 c 128,-1,29
 869 90 869 90 868 119 c 128,-1,30
 867 148 867 148 867 174 c 1,31,-1
 862 174 l 1,0,1
324 538 m 0,32,33
 324 426 324 426 338.5 346 c 128,-1,34
 353 266 353 266 383.5 214 c 128,-1,35
 414 162 414 162 462 137.5 c 128,-1,36
 510 113 510 113 577 113 c 0,37,38
 646 113 646 113 699.5 137 c 128,-1,39
 753 161 753 161 789.5 213.5 c 128,-1,40
 826 266 826 266 844.5 350 c 128,-1,41
 863 434 863 434 863 554 c 0,42,43
 863 670 863 670 844.5 748.5 c 128,-1,44
 826 827 826 827 790 875 c 128,-1,45
 754 923 754 923 701 944 c 128,-1,46
 648 965 648 965 579 965 c 0,47,48
 515 965 515 965 467 942 c 128,-1,49
 419 919 419 919 387.5 868 c 128,-1,50
 356 817 356 817 340 735.5 c 128,-1,51
 324 654 324 654 324 538 c 0,32,33
EndSplineSet
EndChar

StartChar: e
Encoding: 101 101 72
Width: 1229
GlyphClass: 2
Flags: W
LayerCount: 2
Fore
SplineSet
322 503 m 1,0,1
 322 418 322 418 341 346.5 c 128,-1,2
 360 275 360 275 398 223.5 c 128,-1,3
 436 172 436 172 492.5 143.5 c 128,-1,4
 549 115 549 115 623 115 c 0,5,6
 678 115 678 115 724.5 127.5 c 128,-1,7
 771 140 771 140 808 162 c 128,-1,8
 845 184 845 184 870 214.5 c 128,-1,9
 895 245 895 245 907 281 c 1,10,-1
 1065 236 l 1,11,12
 1049 191 1049 191 1017 145.5 c 128,-1,13
 985 100 985 100 932 63.5 c 128,-1,14
 879 27 879 27 803 3.5 c 128,-1,15
 727 -20 727 -20 623 -20 c 0,16,17
 508 -20 508 -20 417 16 c 128,-1,18
 326 52 326 52 263 123 c 128,-1,19
 200 194 200 194 166.5 300.5 c 128,-1,20
 133 407 133 407 133 548 c 0,21,22
 133 704 133 704 172.5 810 c 128,-1,23
 212 916 212 916 279 981 c 128,-1,24
 346 1046 346 1046 433.5 1074 c 128,-1,25
 521 1102 521 1102 617 1102 c 0,26,27
 748 1102 748 1102 838.5 1060 c 128,-1,28
 929 1018 929 1018 986 942.5 c 128,-1,29
 1043 867 1043 867 1068.5 761 c 128,-1,30
 1094 655 1094 655 1094 527 c 2,31,-1
 1094 503 l 1,32,-1
 322 503 l 1,0,1
619 969 m 0,33,34
 573 969 573 969 522.5 954.5 c 128,-1,35
 472 940 472 940 429 903 c 128,-1,36
 386 866 386 866 356.5 802.5 c 128,-1,37
 327 739 327 739 324 641 c 1,38,-1
 908 641 l 1,39,40
 900 735 900 735 874 798 c 128,-1,41
 848 861 848 861 809.5 899 c 128,-1,42
 771 937 771 937 722 953 c 128,-1,43
 673 969 673 969 619 969 c 0,33,34
EndSplineSet
EndChar

StartChar: f
Encoding: 102 102 73
Width: 1229
GlyphClass: 2
Flags: W
LayerCount: 2
Fore
SplineSet
580 940 m 1,0,-1
 580 0 l 1,1,-1
 400 0 l 1,2,-1
 400 940 l 1,3,-1
 138 940 l 1,4,-1
 138 1082 l 1,5,-1
 400 1082 l 1,6,-1
 400 1107 l 2,7,8
 400 1208 400 1208 422.5 1279.5 c 128,-1,9
 445 1351 445 1351 495 1396.5 c 128,-1,10
 545 1442 545 1442 624.5 1463 c 128,-1,11
 704 1484 704 1484 818 1484 c 0,12,13
 847 1484 847 1484 887 1482.5 c 128,-1,14
 927 1481 927 1481 967 1478 c 128,-1,15
 1007 1475 1007 1475 1042.5 1471 c 128,-1,16
 1078 1467 1078 1467 1099 1463 c 1,17,-1
 1099 1318 l 1,18,19
 1081 1321 1081 1321 1045 1324 c 128,-1,20
 1009 1327 1009 1327 969.5 1329.5 c 128,-1,21
 930 1332 930 1332 894 1333.5 c 128,-1,22
 858 1335 858 1335 839 1335 c 0,23,24
 773 1335 773 1335 724 1325 c 128,-1,25
 675 1315 675 1315 643 1288 c 128,-1,26
 611 1261 611 1261 595.5 1214 c 128,-1,27
 580 1167 580 1167 580 1092 c 2,28,-1
 580 1082 l 1,29,-1
 1071 1082 l 1,30,-1
 1071 940 l 1,31,-1
 580 940 l 1,0,-1
EndSplineSet
EndChar

StartChar: g
Encoding: 103 103 74
Width: 1229
GlyphClass: 2
Flags: W
LayerCount: 2
Fore
SplineSet
615 -424 m 0,0,1
 525 -424 525 -424 456.5 -405 c 128,-1,2
 388 -386 388 -386 338.5 -350.5 c 128,-1,3
 289 -315 289 -315 258.5 -266 c 128,-1,4
 228 -217 228 -217 215 -157 c 1,5,-1
 399 -132 l 1,6,7
 416 -207 416 -207 472.5 -247.5 c 128,-1,8
 529 -288 529 -288 621 -288 c 0,9,10
 678 -288 678 -288 723.5 -271 c 128,-1,11
 769 -254 769 -254 801.5 -216.5 c 128,-1,12
 834 -179 834 -179 851.5 -119 c 128,-1,13
 869 -59 869 -59 869 27 c 2,14,-1
 869 221 l 1,15,-1
 867 221 l 1,16,17
 848 181 848 181 818.5 143 c 128,-1,18
 789 105 789 105 747.5 76 c 128,-1,19
 706 47 706 47 651 29.5 c 128,-1,20
 596 12 596 12 524 12 c 0,21,22
 422 12 422 12 350 45 c 128,-1,23
 278 78 278 78 232 145 c 128,-1,24
 186 212 186 212 164.5 313 c 128,-1,25
 143 414 143 414 143 549 c 0,26,27
 143 680 143 680 164.5 782 c 128,-1,28
 186 884 186 884 233.5 954.5 c 128,-1,29
 281 1025 281 1025 357 1062 c 128,-1,30
 433 1099 433 1099 543 1099 c 0,31,32
 656 1099 656 1099 739.5 1046.5 c 128,-1,33
 823 994 823 994 868 897 c 1,34,-1
 871 897 l 1,35,36
 871 922 871 922 872.5 953 c 128,-1,37
 874 984 874 984 875.5 1011.5 c 128,-1,38
 877 1039 877 1039 879.5 1059 c 128,-1,39
 882 1079 882 1079 883 1082 c 2,40,-1
 1054 1082 l 1,41,42
 1053 1073 1053 1073 1052 1051.5 c 128,-1,43
 1051 1030 1051 1030 1050 1000 c 128,-1,44
 1049 970 1049 970 1048.5 933.5 c 128,-1,45
 1048 897 1048 897 1048 858 c 2,46,-1
 1048 32 l 2,47,48
 1048 -195 1048 -195 942 -309.5 c 128,-1,49
 836 -424 836 -424 615 -424 c 0,0,1
869 551 m 0,50,51
 869 664 869 664 845 743 c 128,-1,52
 821 822 821 822 781.5 871.5 c 128,-1,53
 742 921 742 921 691.5 943 c 128,-1,54
 641 965 641 965 588 965 c 0,55,56
 521 965 521 965 472 942.5 c 128,-1,57
 423 920 423 920 391 870.5 c 128,-1,58
 359 821 359 821 344 742.5 c 128,-1,59
 329 664 329 664 329 551 c 0,60,61
 329 434 329 434 344 356 c 128,-1,62
 359 278 359 278 390.5 231 c 128,-1,63
 422 184 422 184 470.5 164.5 c 128,-1,64
 519 145 519 145 585 145 c 0,65,66
 638 145 638 145 689 166.5 c 128,-1,67
 740 188 740 188 780 236 c 128,-1,68
 820 284 820 284 844.5 361.5 c 128,-1,69
 869 439 869 439 869 551 c 0,50,51
EndSplineSet
EndChar

StartChar: h
Encoding: 104 104 75
Width: 1229
GlyphClass: 2
Flags: W
LayerCount: 2
Fore
SplineSet
185 1484 m 1,0,-1
 366 1484 l 1,1,-1
 366 1094 l 2,2,3
 366 1044 366 1044 363 993.5 c 128,-1,4
 360 943 360 943 357 897 c 1,5,-1
 360 897 l 1,6,7
 384 944 384 944 416 982 c 128,-1,8
 448 1020 448 1020 489 1046.5 c 128,-1,9
 530 1073 530 1073 582.5 1087.5 c 128,-1,10
 635 1102 635 1102 699 1102 c 0,11,12
 782 1102 782 1102 847 1080 c 128,-1,13
 912 1058 912 1058 957 1012 c 128,-1,14
 1002 966 1002 966 1025.5 894 c 128,-1,15
 1049 822 1049 822 1049 721 c 2,16,-1
 1049 0 l 1,17,-1
 868 0 l 1,18,-1
 868 695 l 2,19,20
 868 775 868 775 851.5 826.5 c 128,-1,21
 835 878 835 878 805.5 908.5 c 128,-1,22
 776 939 776 939 736 951 c 128,-1,23
 696 963 696 963 648 963 c 0,24,25
 589 963 589 963 537.5 940.5 c 128,-1,26
 486 918 486 918 447.5 875.5 c 128,-1,27
 409 833 409 833 387 770.5 c 128,-1,28
 365 708 365 708 365 627 c 2,29,-1
 365 0 l 1,30,-1
 185 0 l 1,31,-1
 185 1484 l 1,0,-1
EndSplineSet
EndChar

StartChar: i
Encoding: 105 105 76
Width: 1229
GlyphClass: 2
Flags: W
LayerCount: 2
Fore
SplineSet
745 142 m 1,0,-1
 1125 142 l 1,1,-1
 1125 0 l 1,2,-1
 143 0 l 1,3,-1
 143 142 l 1,4,-1
 565 142 l 1,5,-1
 565 940 l 1,6,-1
 246 940 l 1,7,-1
 246 1082 l 1,8,-1
 745 1082 l 1,9,-1
 745 142 l 1,0,-1
545 1292 m 1,10,-1
 545 1484 l 1,11,-1
 745 1484 l 1,12,-1
 745 1292 l 1,13,-1
 545 1292 l 1,10,-1
EndSplineSet
EndChar

StartChar: j
Encoding: 106 106 77
Width: 1229
GlyphClass: 2
Flags: W
LayerCount: 2
Fore
SplineSet
836 -28 m 2,0,1
 836 -137 836 -137 800.5 -212.5 c 128,-1,2
 765 -288 765 -288 706 -335.5 c 128,-1,3
 647 -383 647 -383 569 -404 c 128,-1,4
 491 -425 491 -425 405 -425 c 0,5,6
 364 -425 364 -425 323 -421.5 c 128,-1,7
 282 -418 282 -418 244 -412 c 128,-1,8
 206 -406 206 -406 173.5 -398.5 c 128,-1,9
 141 -391 141 -391 117 -382 c 1,10,-1
 117 -242 l 1,11,12
 139 -247 139 -247 169 -253 c 128,-1,13
 199 -259 199 -259 235 -264 c 128,-1,14
 271 -269 271 -269 310.5 -272.5 c 128,-1,15
 350 -276 350 -276 390 -276 c 0,16,17
 446 -276 446 -276 494.5 -262 c 128,-1,18
 543 -248 543 -248 579 -217.5 c 128,-1,19
 615 -187 615 -187 635.5 -139.5 c 128,-1,20
 656 -92 656 -92 656 -25 c 2,21,-1
 656 940 l 1,22,-1
 249 940 l 1,23,-1
 249 1082 l 1,24,-1
 836 1082 l 1,25,-1
 836 -28 l 2,0,1
636 1292 m 1,26,-1
 636 1484 l 1,27,-1
 836 1484 l 1,28,-1
 836 1292 l 1,29,-1
 636 1292 l 1,26,-1
EndSplineSet
EndChar

StartChar: k
Encoding: 107 107 78
Width: 1229
GlyphClass: 2
Flags: W
LayerCount: 2
Fore
SplineSet
914 0 m 1,0,-1
 548 499 l 1,1,-1
 416 401 l 1,2,-1
 416 0 l 1,3,-1
 236 0 l 1,4,-1
 236 1484 l 1,5,-1
 416 1484 l 1,6,-1
 416 557 l 1,7,-1
 891 1082 l 1,8,-1
 1102 1082 l 1,9,-1
 663 617 l 1,10,-1
 1125 0 l 1,11,-1
 914 0 l 1,0,-1
EndSplineSet
EndChar

StartChar: l
Encoding: 108 108 79
Width: 1229
GlyphClass: 2
Flags: W
LayerCount: 2
Fore
SplineSet
736 142 m 1,0,-1
 1116 142 l 1,1,-1
 1116 0 l 1,2,-1
 134 0 l 1,3,-1
 134 142 l 1,4,-1
 556 142 l 1,5,-1
 556 1342 l 1,6,-1
 267 1342 l 1,7,-1
 267 1484 l 1,8,-1
 736 1484 l 1,9,-1
 736 142 l 1,0,-1
EndSplineSet
EndChar

StartChar: m
Encoding: 109 109 80
Width: 1229
GlyphClass: 2
Flags: W
LayerCount: 2
Fore
SplineSet
531 0 m 1,0,-1
 531 686 l 2,1,2
 531 765 531 765 525 818 c 128,-1,3
 519 871 519 871 505.5 903.5 c 128,-1,4
 492 936 492 936 470.5 949.5 c 128,-1,5
 449 963 449 963 417 963 c 0,6,7
 384 963 384 963 358 937.5 c 128,-1,8
 332 912 332 912 313 865.5 c 128,-1,9
 294 819 294 819 284 753.5 c 128,-1,10
 274 688 274 688 274 607 c 2,11,-1
 274 0 l 1,12,-1
 105 0 l 1,13,-1
 105 851 l 2,14,15
 105 885 105 885 104.5 922.5 c 128,-1,16
 104 960 104 960 103 993.5 c 128,-1,17
 102 1027 102 1027 101 1051 c 128,-1,18
 100 1075 100 1075 99 1082 c 1,19,-1
 248 1082 l 1,20,21
 249 1077 249 1077 250 1056.5 c 128,-1,22
 251 1036 251 1036 252 1009.5 c 128,-1,23
 253 983 253 983 253.5 955 c 128,-1,24
 254 927 254 927 254 907 c 1,25,-1
 256 907 l 1,26,27
 269 946 269 946 287 981.5 c 128,-1,28
 305 1017 305 1017 330.5 1044 c 128,-1,29
 356 1071 356 1071 391 1086.5 c 128,-1,30
 426 1102 426 1102 472 1102 c 0,31,32
 560 1102 560 1102 603.5 1054 c 128,-1,33
 647 1006 647 1006 666 906 c 1,34,-1
 668 906 l 1,35,36
 686 953 686 953 707.5 989.5 c 128,-1,37
 729 1026 729 1026 757 1051 c 128,-1,38
 785 1076 785 1076 821 1089 c 128,-1,39
 857 1102 857 1102 904 1102 c 0,40,41
 965 1102 965 1102 1007 1080 c 128,-1,42
 1049 1058 1049 1058 1075 1012 c 128,-1,43
 1101 966 1101 966 1112.5 894 c 128,-1,44
 1124 822 1124 822 1124 721 c 2,45,-1
 1124 0 l 1,46,-1
 956 0 l 1,47,-1
 956 686 l 2,48,49
 956 765 956 765 950 818 c 128,-1,50
 944 871 944 871 930.5 903.5 c 128,-1,51
 917 936 917 936 895.5 949.5 c 128,-1,52
 874 963 874 963 842 963 c 0,53,54
 776 963 776 963 737.5 879 c 128,-1,55
 699 795 699 795 699 627 c 2,56,-1
 699 0 l 1,57,-1
 531 0 l 1,0,-1
EndSplineSet
EndChar

StartChar: n
Encoding: 110 110 81
Width: 1229
GlyphClass: 2
Flags: W
LayerCount: 2
Fore
SplineSet
868 0 m 1,0,-1
 868 695 l 2,1,2
 868 775 868 775 851.5 826.5 c 128,-1,3
 835 878 835 878 805.5 908.5 c 128,-1,4
 776 939 776 939 736 951 c 128,-1,5
 696 963 696 963 648 963 c 0,6,7
 589 963 589 963 537.5 940.5 c 128,-1,8
 486 918 486 918 447.5 875.5 c 128,-1,9
 409 833 409 833 387 770.5 c 128,-1,10
 365 708 365 708 365 627 c 2,11,-1
 365 0 l 1,12,-1
 185 0 l 1,13,-1
 185 851 l 2,14,15
 185 885 185 885 184.5 922.5 c 128,-1,16
 184 960 184 960 183 993.5 c 128,-1,17
 182 1027 182 1027 181 1051 c 128,-1,18
 180 1075 180 1075 179 1082 c 1,19,-1
 349 1082 l 1,20,21
 350 1077 350 1077 351 1055 c 128,-1,22
 352 1033 352 1033 353.5 1004.5 c 128,-1,23
 355 976 355 976 356 946.5 c 128,-1,24
 357 917 357 917 357 897 c 1,25,-1
 360 897 l 1,26,27
 384 944 384 944 416.5 982 c 128,-1,28
 449 1020 449 1020 491.5 1046.5 c 128,-1,29
 534 1073 534 1073 587 1087.5 c 128,-1,30
 640 1102 640 1102 706 1102 c 0,31,32
 789 1102 789 1102 853 1080 c 128,-1,33
 917 1058 917 1058 960.5 1012 c 128,-1,34
 1004 966 1004 966 1026.5 894 c 128,-1,35
 1049 822 1049 822 1049 721 c 2,36,-1
 1049 0 l 1,37,-1
 868 0 l 1,0,-1
EndSplineSet
EndChar

StartChar: o
Encoding: 111 111 82
Width: 1229
GlyphClass: 2
Flags: W
LayerCount: 2
Fore
SplineSet
1097 542 m 0,0,1
 1097 400 1097 400 1063.5 294.5 c 128,-1,2
 1030 189 1030 189 967 119 c 128,-1,3
 904 49 904 49 813.5 14.5 c 128,-1,4
 723 -20 723 -20 609 -20 c 0,5,6
 500 -20 500 -20 411.5 14 c 128,-1,7
 323 48 323 48 260.5 118 c 128,-1,8
 198 188 198 188 164 293.5 c 128,-1,9
 130 399 130 399 130 542 c 0,10,11
 130 821 130 821 256.5 961.5 c 128,-1,12
 383 1102 383 1102 615 1102 c 0,13,14
 859 1102 859 1102 978 963 c 128,-1,15
 1097 824 1097 824 1097 542 c 0,0,1
908 542 m 256,16,17
 908 668 908 668 886.5 750 c 128,-1,18
 865 832 865 832 826.5 881 c 128,-1,19
 788 930 788 930 735 949.5 c 128,-1,20
 682 969 682 969 618 969 c 0,21,22
 553 969 553 969 498 948.5 c 128,-1,23
 443 928 443 928 403.5 878.5 c 128,-1,24
 364 829 364 829 341.5 747 c 128,-1,25
 319 665 319 665 319 542 c 0,26,27
 319 416 319 416 342.5 333.5 c 128,-1,28
 366 251 366 251 405.5 202 c 128,-1,29
 445 153 445 153 497.5 133 c 128,-1,30
 550 113 550 113 607 113 c 0,31,32
 672 113 672 113 727.5 132.5 c 128,-1,33
 783 152 783 152 823 201 c 128,-1,34
 863 250 863 250 885.5 333 c 128,-1,35
 908 416 908 416 908 542 c 256,16,17
EndSplineSet
EndChar

StartChar: p
Encoding: 112 112 83
Width: 1229
GlyphClass: 2
Flags: W
LayerCount: 2
Fore
SplineSet
1090 546 m 0,0,1
 1090 423 1090 423 1070 319 c 128,-1,2
 1050 215 1050 215 1004 140 c 128,-1,3
 958 65 958 65 883 22.5 c 128,-1,4
 808 -20 808 -20 698 -20 c 0,5,6
 643 -20 643 -20 593 -10 c 128,-1,7
 543 0 543 0 500 22 c 128,-1,8
 457 44 457 44 423.5 79 c 128,-1,9
 390 114 390 114 367 164 c 1,10,-1
 362 164 l 2,11,12
 363 162 363 162 363.5 146.5 c 128,-1,13
 364 131 364 131 364.5 108 c 128,-1,14
 365 85 365 85 365.5 56 c 128,-1,15
 366 27 366 27 366 -2 c 2,16,-1
 366 -425 l 1,17,-1
 185 -425 l 1,18,-1
 185 858 l 2,19,20
 185 898 185 898 184.5 935 c 128,-1,21
 184 972 184 972 183 1001.5 c 128,-1,22
 182 1031 182 1031 181 1052 c 128,-1,23
 180 1073 180 1073 179 1082 c 1,24,-1
 354 1082 l 2,25,26
 355 1079 355 1079 356.5 1060.5 c 128,-1,27
 358 1042 358 1042 359.5 1016 c 128,-1,28
 361 990 361 990 362.5 960 c 128,-1,29
 364 930 364 930 364 904 c 1,30,-1
 368 904 l 1,31,32
 393 956 393 956 424.5 994 c 128,-1,33
 456 1032 456 1032 496 1056.5 c 128,-1,34
 536 1081 536 1081 586 1092.5 c 128,-1,35
 636 1104 636 1104 698 1104 c 0,36,37
 808 1104 808 1104 883 1064 c 128,-1,38
 958 1024 958 1024 1004 950.5 c 128,-1,39
 1050 877 1050 877 1070 774 c 128,-1,40
 1090 671 1090 671 1090 546 c 0,0,1
904 546 m 0,41,42
 904 646 904 646 892 724 c 128,-1,43
 880 802 880 802 850.5 855.5 c 128,-1,44
 821 909 821 909 772.5 937 c 128,-1,45
 724 965 724 965 651 965 c 0,46,47
 592 965 592 965 540 946.5 c 128,-1,48
 488 928 488 928 449.5 879.5 c 128,-1,49
 411 831 411 831 388.5 745 c 128,-1,50
 366 659 366 659 366 524 c 0,51,52
 366 409 366 409 384.5 330.5 c 128,-1,53
 403 252 403 252 439 203.5 c 128,-1,54
 475 155 475 155 528 134 c 128,-1,55
 581 113 581 113 649 113 c 0,56,57
 722 113 722 113 771 141.5 c 128,-1,58
 820 170 820 170 849.5 225 c 128,-1,59
 879 280 879 280 891.5 361 c 128,-1,60
 904 442 904 442 904 546 c 0,41,42
EndSplineSet
EndChar

StartChar: q
Encoding: 113 113 84
Width: 1229
GlyphClass: 2
Flags: W
LayerCount: 2
Fore
SplineSet
529 1098 m 0,0,1
 595 1098 595 1098 646 1087 c 128,-1,2
 697 1076 697 1076 736.5 1053 c 128,-1,3
 776 1030 776 1030 806.5 995.5 c 128,-1,4
 837 961 837 961 861 914 c 1,5,-1
 863 914 l 1,6,7
 863 939 863 939 864.5 967.5 c 128,-1,8
 866 996 866 996 867.5 1020.5 c 128,-1,9
 869 1045 869 1045 871.5 1062.5 c 128,-1,10
 874 1080 874 1080 875 1083 c 2,11,-1
 1050 1083 l 1,12,13
 1049 1074 1049 1074 1048 1054 c 128,-1,14
 1047 1034 1047 1034 1046 1000 c 128,-1,15
 1045 966 1045 966 1044.5 917 c 128,-1,16
 1044 868 1044 868 1044 801 c 2,17,-1
 1044 -425 l 1,18,-1
 863 -425 l 1,19,-1
 863 14 l 2,20,21
 863 40 863 40 863.5 69 c 128,-1,22
 864 98 864 98 865 124 c 0,23,24
 866 154 866 154 867 182 c 1,25,-1
 865 182 l 1,26,27
 840 131 840 131 808.5 92 c 128,-1,28
 777 53 777 53 736.5 26.5 c 128,-1,29
 696 0 696 0 645.5 -13 c 128,-1,30
 595 -26 595 -26 530 -26 c 0,31,32
 328 -26 328 -26 233 114.5 c 128,-1,33
 138 255 138 255 138 532 c 0,34,35
 138 813 138 813 235.5 955.5 c 128,-1,36
 333 1098 333 1098 529 1098 c 0,0,1
863 554 m 0,37,38
 863 673 863 673 843 752 c 128,-1,39
 823 831 823 831 786 878 c 128,-1,40
 749 925 749 925 696.5 945 c 128,-1,41
 644 965 644 965 579 965 c 0,42,43
 511 965 511 965 462.5 939.5 c 128,-1,44
 414 914 414 914 383.5 861.5 c 128,-1,45
 353 809 353 809 338.5 728.5 c 128,-1,46
 324 648 324 648 324 538 c 0,47,48
 324 432 324 432 338 352.5 c 128,-1,49
 352 273 352 273 382 220 c 128,-1,50
 412 167 412 167 460 140 c 128,-1,51
 508 113 508 113 577 113 c 0,52,53
 636 113 636 113 688 132.5 c 128,-1,54
 740 152 740 152 779 201.5 c 128,-1,55
 818 251 818 251 840.5 336.5 c 128,-1,56
 863 422 863 422 863 554 c 0,37,38
EndSplineSet
EndChar

StartChar: r
Encoding: 114 114 85
Width: 1229
GlyphClass: 2
Flags: W
LayerCount: 2
Fore
SplineSet
1045 918 m 1,0,1
 998 926 998 926 946.5 931.5 c 128,-1,2
 895 937 895 937 833 937 c 0,3,4
 749 937 749 937 682 903 c 128,-1,5
 615 869 615 869 569 810.5 c 128,-1,6
 523 752 523 752 498.5 674 c 128,-1,7
 474 596 474 596 474 508 c 2,8,-1
 474 0 l 1,9,-1
 294 0 l 1,10,-1
 294 701 l 2,11,12
 294 757 294 757 288 815 c 128,-1,13
 282 873 282 873 274 924.5 c 128,-1,14
 266 976 266 976 257 1017 c 128,-1,15
 248 1058 248 1058 242 1082 c 1,16,-1
 413 1082 l 1,17,18
 420 1058 420 1058 427.5 1027 c 128,-1,19
 435 996 435 996 442 962.5 c 128,-1,20
 449 929 449 929 454 895 c 128,-1,21
 459 861 459 861 461 832 c 1,22,-1
 466 832 l 1,23,24
 494 894 494 894 525 944 c 128,-1,25
 556 994 556 994 598.5 1029 c 128,-1,26
 641 1064 641 1064 699 1083 c 128,-1,27
 757 1102 757 1102 839 1102 c 0,28,29
 895 1102 895 1102 949 1097 c 128,-1,30
 1003 1092 1003 1092 1045 1085 c 1,31,-1
 1045 918 l 1,0,1
EndSplineSet
EndChar

StartChar: s
Encoding: 115 115 86
Width: 1229
GlyphClass: 2
Flags: W
LayerCount: 2
Fore
SplineSet
1060 309 m 0,0,1
 1060 233 1060 233 1030.5 172 c 128,-1,2
 1001 111 1001 111 945 68.5 c 128,-1,3
 889 26 889 26 807.5 3 c 128,-1,4
 726 -20 726 -20 621 -20 c 0,5,6
 527 -20 527 -20 451.5 -6.5 c 128,-1,7
 376 7 376 7 319 38 c 128,-1,8
 262 69 262 69 223.5 120.5 c 128,-1,9
 185 172 185 172 167 248 c 1,10,-1
 326 279 l 1,11,12
 338 224 338 224 364.5 191.5 c 128,-1,13
 391 159 391 159 428.5 142 c 128,-1,14
 466 125 466 125 515 119.5 c 128,-1,15
 564 114 564 114 621 114 c 0,16,17
 679 114 679 114 728.5 122.5 c 128,-1,18
 778 131 778 131 814 151.5 c 128,-1,19
 850 172 850 172 870.5 204.5 c 128,-1,20
 891 237 891 237 891 285 c 0,21,22
 891 335 891 335 865.5 365.5 c 128,-1,23
 840 396 840 396 796 417 c 128,-1,24
 752 438 752 438 691.5 453 c 128,-1,25
 631 468 631 468 560 487 c 0,26,27
 496 504 496 504 433 524 c 128,-1,28
 370 544 370 544 320.5 576.5 c 128,-1,29
 271 609 271 609 240.5 659 c 128,-1,30
 210 709 210 709 210 786 c 0,31,32
 210 933 210 933 316 1016 c 128,-1,33
 422 1099 422 1099 623 1099 c 0,34,35
 702 1099 702 1099 771 1084.5 c 128,-1,36
 840 1070 840 1070 894 1038.5 c 128,-1,37
 948 1007 948 1007 984.5 957.5 c 128,-1,38
 1021 908 1021 908 1035 839 c 1,39,-1
 873 819 l 1,40,41
 866 864 866 864 843 892 c 128,-1,42
 820 920 820 920 786.5 936.5 c 128,-1,43
 753 953 753 953 711 959 c 128,-1,44
 669 965 669 965 623 965 c 0,45,46
 378 965 378 965 378 814 c 0,47,48
 378 768 378 768 399.5 739.5 c 128,-1,49
 421 711 421 711 460 692 c 128,-1,50
 499 673 499 673 553 659.5 c 128,-1,51
 607 646 607 646 672 629 c 0,52,53
 737 613 737 613 805.5 592 c 128,-1,54
 874 571 874 571 930.5 536 c 128,-1,55
 987 501 987 501 1023.5 446.5 c 128,-1,56
 1060 392 1060 392 1060 309 c 0,0,1
EndSplineSet
EndChar

StartChar: t
Encoding: 116 116 87
Width: 1229
GlyphClass: 2
Flags: W
LayerCount: 2
Fore
SplineSet
190 940 m 1,0,-1
 190 1082 l 1,1,-1
 360 1082 l 1,2,-1
 418 1364 l 1,3,-1
 538 1364 l 1,4,-1
 538 1082 l 1,5,-1
 970 1082 l 1,6,-1
 970 940 l 1,7,-1
 538 940 l 1,8,-1
 538 288 l 2,9,10
 538 209 538 209 580.5 171 c 128,-1,11
 623 133 623 133 720 133 c 0,12,13
 760 133 760 133 802.5 136.5 c 128,-1,14
 845 140 845 140 884.5 145 c 128,-1,15
 924 150 924 150 958.5 156 c 128,-1,16
 993 162 993 162 1017 167 c 1,17,-1
 1017 30 l 1,18,19
 995 24 995 24 960 16 c 128,-1,20
 925 8 925 8 881.5 1 c 128,-1,21
 838 -6 838 -6 787 -11 c 128,-1,22
 736 -16 736 -16 682 -16 c 0,23,24
 520 -16 520 -16 439 52.5 c 128,-1,25
 358 121 358 121 358 269 c 2,26,-1
 358 940 l 1,27,-1
 190 940 l 1,0,-1
EndSplineSet
EndChar

StartChar: u
Encoding: 117 117 88
Width: 1229
GlyphClass: 2
Flags: W
LayerCount: 2
Fore
SplineSet
365 1082 m 1,0,-1
 365 396 l 2,1,2
 365 317 365 317 376.5 264 c 128,-1,3
 388 211 388 211 414.5 178.5 c 128,-1,4
 441 146 441 146 483.5 132.5 c 128,-1,5
 526 119 526 119 589 119 c 0,6,7
 653 119 653 119 704.5 141.5 c 128,-1,8
 756 164 756 164 792.5 206.5 c 128,-1,9
 829 249 829 249 848.5 311.5 c 128,-1,10
 868 374 868 374 868 455 c 2,11,-1
 868 1082 l 1,12,-1
 1049 1082 l 1,13,-1
 1049 231 l 2,14,15
 1049 197 1049 197 1049.5 159.5 c 128,-1,16
 1050 122 1050 122 1051 88.5 c 128,-1,17
 1052 55 1052 55 1053 31 c 128,-1,18
 1054 7 1054 7 1055 0 c 1,19,-1
 885 0 l 1,20,21
 884 5 884 5 883 27 c 128,-1,22
 882 49 882 49 880.5 77.5 c 128,-1,23
 879 106 879 106 878 135.5 c 128,-1,24
 877 165 877 165 877 185 c 1,25,-1
 874 185 l 1,26,27
 848 138 848 138 817 100 c 128,-1,28
 786 62 786 62 745 35.5 c 128,-1,29
 704 9 704 9 651 -5.5 c 128,-1,30
 598 -20 598 -20 528 -20 c 0,31,32
 438 -20 438 -20 373 2 c 128,-1,33
 308 24 308 24 266 70 c 128,-1,34
 224 116 224 116 204.5 188.5 c 128,-1,35
 185 261 185 261 185 361 c 2,36,-1
 185 1082 l 1,37,-1
 365 1082 l 1,0,-1
EndSplineSet
EndChar

StartChar: v
Encoding: 118 118 89
Width: 1229
GlyphClass: 2
Flags: W
LayerCount: 2
Fore
SplineSet
715 0 m 1,0,-1
 502 0 l 1,1,-1
 69 1082 l 1,2,-1
 271 1082 l 1,3,-1
 539 378 l 2,4,5
 547 356 547 356 556 324.5 c 128,-1,6
 565 293 565 293 575 259 c 128,-1,7
 585 225 585 225 593.5 193.5 c 128,-1,8
 602 162 602 162 608 141 c 1,9,10
 614 162 614 162 623.5 193.5 c 128,-1,11
 633 225 633 225 643 258 c 128,-1,12
 653 291 653 291 663.5 322.5 c 128,-1,13
 674 354 674 354 682 376 c 2,14,-1
 958 1082 l 1,15,-1
 1159 1082 l 1,16,-1
 715 0 l 1,0,-1
EndSplineSet
EndChar

StartChar: w
Encoding: 119 119 90
Width: 1229
GlyphClass: 2
Flags: W
LayerCount: 2
Fore
SplineSet
1018 0 m 1,0,-1
 814 0 l 1,1,-1
 671 471 l 2,2,3
 663 498 663 498 653 532.5 c 128,-1,4
 643 567 643 567 634 599 c 0,5,6
 623 636 623 636 614 673 c 1,7,8
 605 636 605 636 594 600 c 0,9,10
 585 569 585 569 575 533.5 c 128,-1,11
 565 498 565 498 555 467 c 2,12,-1
 407 0 l 1,13,-1
 204 0 l 1,14,-1
 21 1082 l 1,15,-1
 199 1082 l 1,16,-1
 292 475 l 2,17,18
 295 451 295 451 300.5 408.5 c 128,-1,19
 306 366 306 366 311.5 318 c 128,-1,20
 317 270 317 270 321 224 c 128,-1,21
 325 178 325 178 325 149 c 1,22,23
 336 194 336 194 347 235 c 0,24,25
 356 270 356 270 366 306.5 c 128,-1,26
 376 343 376 343 383 363 c 2,27,-1
 518 787 l 1,28,-1
 711 787 l 1,29,-1
 841 362 l 2,30,31
 847 342 847 342 856.5 306.5 c 128,-1,32
 866 271 866 271 875 236 c 0,33,34
 886 195 886 195 896 149 c 1,35,36
 896 179 896 179 900 224 c 128,-1,37
 904 269 904 269 910 316.5 c 128,-1,38
 916 364 916 364 922 407 c 128,-1,39
 928 450 928 450 931 475 c 2,40,-1
 1032 1082 l 1,41,-1
 1208 1082 l 1,42,-1
 1018 0 l 1,0,-1
EndSplineSet
EndChar

StartChar: x
Encoding: 120 120 91
Width: 1229
GlyphClass: 2
Flags: W
LayerCount: 2
Fore
SplineSet
932 0 m 1,0,-1
 611 444 l 1,1,-1
 288 0 l 1,2,-1
 94 0 l 1,3,-1
 509 556 l 1,4,-1
 112 1082 l 1,5,-1
 311 1082 l 1,6,-1
 611 661 l 1,7,-1
 909 1082 l 1,8,-1
 1110 1082 l 1,9,-1
 713 558 l 1,10,-1
 1133 0 l 1,11,-1
 932 0 l 1,0,-1
EndSplineSet
EndChar

StartChar: y
Encoding: 121 121 92
Width: 1229
GlyphClass: 2
Flags: W
LayerCount: 2
Fore
SplineSet
705 0 m 2,0,1
 668 -98 668 -98 628 -176.5 c 128,-1,2
 588 -255 588 -255 539 -310.5 c 128,-1,3
 490 -366 490 -366 430 -395.5 c 128,-1,4
 370 -425 370 -425 292 -425 c 0,5,6
 258 -425 258 -425 229 -423 c 128,-1,7
 200 -421 200 -421 168 -414 c 1,8,-1
 168 -279 l 1,9,10
 187 -282 187 -282 211 -283.5 c 128,-1,11
 235 -285 235 -285 252 -285 c 0,12,13
 331 -285 331 -285 400.5 -226 c 128,-1,14
 470 -167 470 -167 518 -38 c 2,15,-1
 536 11 l 1,16,-1
 66 1082 l 1,17,-1
 258 1082 l 1,18,-1
 522 440 l 2,19,20
 533 413 533 413 549 373.5 c 128,-1,21
 565 334 565 334 580 295.5 c 128,-1,22
 595 257 595 257 606.5 226 c 128,-1,23
 618 195 618 195 620 186 c 1,24,25
 623 197 623 197 634.5 227.5 c 128,-1,26
 646 258 646 258 661 295.5 c 128,-1,27
 676 333 676 333 691.5 372.5 c 128,-1,28
 707 412 707 412 719 441 c 2,29,-1
 971 1082 l 1,30,-1
 1161 1082 l 1,31,-1
 705 0 l 2,0,1
EndSplineSet
EndChar

StartChar: z
Encoding: 122 122 93
Width: 1229
GlyphClass: 2
Flags: W
LayerCount: 2
Fore
SplineSet
147 0 m 1,0,-1
 147 137 l 1,1,-1
 828 943 l 1,2,-1
 187 943 l 1,3,-1
 187 1082 l 1,4,-1
 1031 1082 l 1,5,-1
 1031 945 l 1,6,-1
 349 139 l 1,7,-1
 1068 139 l 1,8,-1
 1068 0 l 1,9,-1
 147 0 l 1,0,-1
EndSplineSet
EndChar

StartChar: braceleft
Encoding: 123 123 94
Width: 1229
GlyphClass: 2
Flags: W
LayerCount: 2
Fore
SplineSet
796 -425 m 2,0,1
 731 -425 731 -425 677 -403 c 128,-1,2
 623 -381 623 -381 584 -341 c 128,-1,3
 545 -301 545 -301 523.5 -245.5 c 128,-1,4
 502 -190 502 -190 502 -122 c 2,5,-1
 502 229 l 2,6,7
 502 292 502 292 478.5 335.5 c 128,-1,8
 455 379 455 379 416 406 c 128,-1,9
 377 433 377 433 327.5 446 c 128,-1,10
 278 459 278 459 227 461 c 1,11,-1
 227 598 l 1,12,13
 278 600 278 600 327.5 613 c 128,-1,14
 377 626 377 626 416 653.5 c 128,-1,15
 455 681 455 681 478.5 724 c 128,-1,16
 502 767 502 767 502 829 c 2,17,-1
 502 1181 l 2,18,19
 502 1251 502 1251 523.5 1307 c 128,-1,20
 545 1363 545 1363 584 1402.5 c 128,-1,21
 623 1442 623 1442 677 1463 c 128,-1,22
 731 1484 731 1484 796 1484 c 2,23,-1
 1061 1484 l 1,24,-1
 1061 1345 l 1,25,-1
 848 1345 l 2,26,27
 803 1345 803 1345 770.5 1334.5 c 128,-1,28
 738 1324 738 1324 717 1301 c 128,-1,29
 696 1278 696 1278 686.5 1241 c 128,-1,30
 677 1204 677 1204 677 1150 c 2,31,-1
 677 804 l 2,32,33
 677 747 677 747 656.5 701 c 128,-1,34
 636 655 636 655 603 620.5 c 128,-1,35
 570 586 570 586 528.5 564 c 128,-1,36
 487 542 487 542 446 532 c 1,37,-1
 446 530 l 1,38,39
 489 520 489 520 530.5 497.5 c 128,-1,40
 572 475 572 475 604.5 441 c 128,-1,41
 637 407 637 407 657 360.5 c 128,-1,42
 677 314 677 314 677 256 c 2,43,-1
 677 -91 l 2,44,45
 677 -197 677 -197 717 -241.5 c 128,-1,46
 757 -286 757 -286 848 -286 c 2,47,-1
 1061 -286 l 1,48,-1
 1061 -425 l 1,49,-1
 796 -425 l 2,0,1
EndSplineSet
EndChar

StartChar: bar
Encoding: 124 124 95
Width: 1229
GlyphClass: 2
Flags: W
LayerCount: 2
Fore
SplineSet
531 -425 m 1,0,-1
 531 1484 l 1,1,-1
 697 1484 l 1,2,-1
 697 -425 l 1,3,-1
 531 -425 l 1,0,-1
EndSplineSet
EndChar

StartChar: braceright
Encoding: 125 125 96
Width: 1229
GlyphClass: 2
Flags: W
LayerCount: 2
Fore
SplineSet
167 -425 m 1,0,-1
 167 -286 l 1,1,-1
 380 -286 l 2,2,3
 471 -286 471 -286 511.5 -241.5 c 128,-1,4
 552 -197 552 -197 552 -91 c 2,5,-1
 552 256 l 2,6,7
 552 314 552 314 572 360.5 c 128,-1,8
 592 407 592 407 624.5 441 c 128,-1,9
 657 475 657 475 698 497.5 c 128,-1,10
 739 520 739 520 782 530 c 1,11,-1
 782 532 l 1,12,13
 741 542 741 542 700 564 c 128,-1,14
 659 586 659 586 626 620.5 c 128,-1,15
 593 655 593 655 572.5 701 c 128,-1,16
 552 747 552 747 552 804 c 2,17,-1
 552 1150 l 2,18,19
 552 1204 552 1204 542 1241 c 128,-1,20
 532 1278 532 1278 511 1301 c 128,-1,21
 490 1324 490 1324 457.5 1334.5 c 128,-1,22
 425 1345 425 1345 380 1345 c 2,23,-1
 167 1345 l 1,24,-1
 167 1484 l 1,25,-1
 432 1484 l 2,26,27
 497 1484 497 1484 551 1463 c 128,-1,28
 605 1442 605 1442 644 1402.5 c 128,-1,29
 683 1363 683 1363 704.5 1307 c 128,-1,30
 726 1251 726 1251 726 1181 c 2,31,-1
 726 829 l 2,32,33
 726 767 726 767 749.5 724 c 128,-1,34
 773 681 773 681 812 653.5 c 128,-1,35
 851 626 851 626 900.5 613 c 128,-1,36
 950 600 950 600 1001 598 c 1,37,-1
 1001 461 l 1,38,39
 950 459 950 459 900.5 446 c 128,-1,40
 851 433 851 433 812 406 c 128,-1,41
 773 379 773 379 749.5 335.5 c 128,-1,42
 726 292 726 292 726 229 c 2,43,-1
 726 -122 l 2,44,45
 726 -190 726 -190 704.5 -245.5 c 128,-1,46
 683 -301 683 -301 644 -341 c 128,-1,47
 605 -381 605 -381 551 -403 c 128,-1,48
 497 -425 497 -425 432 -425 c 2,49,-1
 167 -425 l 1,0,-1
EndSplineSet
EndChar

StartChar: asciitilde
Encoding: 126 126 97
Width: 1229
GlyphClass: 2
Flags: W
LayerCount: 2
Fore
SplineSet
371 807 m 0,0,1
 412 807 412 807 451.5 800.5 c 128,-1,2
 491 794 491 794 529.5 784 c 128,-1,3
 568 774 568 774 605.5 761 c 128,-1,4
 643 748 643 748 680 735 c 0,5,6
 701 728 701 728 726 720 c 128,-1,7
 751 712 751 712 776.5 705 c 128,-1,8
 802 698 802 698 827.5 694 c 128,-1,9
 853 690 853 690 876 690 c 0,10,11
 945 690 945 690 1006.5 715 c 128,-1,12
 1068 740 1068 740 1120 782 c 1,13,-1
 1120 633 l 1,14,15
 1089 611 1089 611 1059 595.5 c 128,-1,16
 1029 580 1029 580 998.5 570.5 c 128,-1,17
 968 561 968 561 934 557 c 128,-1,18
 900 553 900 553 860 553 c 0,19,20
 791 553 791 553 718.5 575 c 128,-1,21
 646 597 646 597 573 623 c 0,22,23
 444 668 444 668 356 668 c 0,24,25
 318 668 318 668 285.5 662 c 128,-1,26
 253 656 253 656 223 644.5 c 128,-1,27
 193 633 193 633 165 617 c 128,-1,28
 137 601 137 601 108 580 c 1,29,-1
 108 723 l 1,30,31
 158 761 158 761 224 784 c 128,-1,32
 290 807 290 807 371 807 c 0,0,1
EndSplineSet
EndChar

StartChar: exclamdown
Encoding: 161 161 98
Width: 1229
GlyphClass: 2
Flags: W
LayerCount: 2
Fore
SplineSet
539 685 m 1,0,-1
 687 685 l 1,1,-1
 711 -266 l 1,2,-1
 515 -266 l 1,3,-1
 539 685 l 1,0,-1
713 1082 m 1,4,-1
 713 881 l 1,5,-1
 519 881 l 1,6,-1
 519 1082 l 1,7,-1
 713 1082 l 1,4,-1
EndSplineSet
EndChar

StartChar: cent
Encoding: 162 162 99
Width: 1229
GlyphClass: 2
Flags: W
LayerCount: 2
Fore
SplineSet
570 274 m 1,0,-1
 570 1053 l 1,1,2
 460 1037 460 1037 388 947 c 128,-1,3
 316 857 316 857 316 663.5 c 128,-1,4
 316 470 316 470 400 370 c 0,5,6
 465 292 465 292 570 274 c 1,0,-1
698 1054 m 1,7,-1
 698 274 l 1,8,9
 823 295 823 295 880 392 c 0,10,11
 903 432 903 432 912 486 c 1,12,-1
 1094 474 l 1,13,14
 1064 264 1064 264 858 173 c 0,15,16
 788 142 788 142 698 134 c 1,17,-1
 698 -61 l 1,18,-1
 570 -61 l 1,19,-1
 570 134 l 1,20,21
 356 150 356 150 242 294 c 0,22,23
 133 430 133 430 133 656 c 0,24,25
 133 1016 133 1016 384 1144 c 0,26,27
 466 1186 466 1186 570 1195 c 1,28,-1
 570 1379 l 1,29,-1
 698 1379 l 1,30,-1
 698 1195 l 1,31,32
 944 1175 944 1175 1044 992 c 0,33,34
 1075 936 1075 936 1088 873 c 1,35,-1
 903 859 l 1,36,37
 871 1028 871 1028 698 1054 c 1,7,-1
EndSplineSet
EndChar

StartChar: sterling
Encoding: 163 163 100
Width: 1229
GlyphClass: 2
Flags: W
LayerCount: 2
Fore
SplineSet
1171 240 m 1,0,1
 1162 197 1162 197 1146 154 c 128,-1,2
 1130 111 1130 111 1103 77 c 128,-1,3
 1076 43 1076 43 1035.5 21.5 c 128,-1,4
 995 0 995 0 937 0 c 2,5,-1
 56 0 l 1,6,-1
 56 154 l 1,7,8
 99 176 99 176 135 200 c 128,-1,9
 171 224 171 224 196.5 259 c 128,-1,10
 222 294 222 294 236.5 345 c 128,-1,11
 251 396 251 396 251 471 c 2,12,-1
 251 612 l 1,13,-1
 65 612 l 1,14,-1
 65 754 l 1,15,-1
 251 754 l 1,16,-1
 251 974 l 2,17,18
 251 1066 251 1066 276.5 1139.5 c 128,-1,19
 302 1213 302 1213 354 1264 c 128,-1,20
 406 1315 406 1315 485.5 1342.5 c 128,-1,21
 565 1370 565 1370 673 1370 c 0,22,23
 747 1370 747 1370 810 1355.5 c 128,-1,24
 873 1341 873 1341 923.5 1312 c 128,-1,25
 974 1283 974 1283 1010 1240 c 128,-1,26
 1046 1197 1046 1197 1064 1140 c 0,27,28
 1065 1140 1065 1140 1058 1137 c 128,-1,29
 1051 1134 1051 1134 1039 1130 c 128,-1,30
 1027 1126 1027 1126 1011.5 1121 c 128,-1,31
 996 1116 996 1116 979 1111 c 0,32,33
 940 1099 940 1099 890 1083 c 1,34,35
 868 1146 868 1146 809.5 1178 c 128,-1,36
 751 1210 751 1210 673 1210 c 0,37,38
 551 1210 551 1210 491 1152.5 c 128,-1,39
 431 1095 431 1095 431 970 c 2,40,-1
 431 754 l 1,41,-1
 839 754 l 1,42,-1
 839 612 l 1,43,-1
 431 612 l 1,44,-1
 431 473 l 2,45,46
 431 414 431 414 423.5 366 c 128,-1,47
 416 318 416 318 398 279.5 c 128,-1,48
 380 241 380 241 350 211 c 128,-1,49
 320 181 320 181 276 158 c 1,50,-1
 876 158 l 2,51,52
 935 158 935 158 963.5 184.5 c 128,-1,53
 992 211 992 211 1003 264 c 1,54,-1
 1171 240 l 1,0,1
EndSplineSet
EndChar

StartChar: currency
Encoding: 164 164 101
Width: 1229
GlyphClass: 2
Flags: W
LayerCount: 2
Fore
SplineSet
182 684 m 256,0,1
 182 755 182 755 202.5 818.5 c 128,-1,2
 223 882 223 882 260 936 c 1,3,-1
 160 1036 l 1,4,-1
 264 1139 l 1,5,-1
 363 1038 l 1,6,7
 417 1077 417 1077 480.5 1098.5 c 128,-1,8
 544 1120 544 1120 617 1120 c 0,9,10
 688 1120 688 1120 751 1099 c 128,-1,11
 814 1078 814 1078 868 1040 c 1,12,-1
 965 1137 l 1,13,-1
 1069 1032 l 1,14,-1
 973 936 l 1,15,16
 1010 882 1010 882 1031.5 818.5 c 128,-1,17
 1053 755 1053 755 1053 684 c 256,18,19
 1053 613 1053 613 1031 549 c 128,-1,20
 1009 485 1009 485 971 432 c 1,21,-1
 1071 332 l 1,22,-1
 969 227 l 1,23,-1
 868 328 l 1,24,25
 814 291 814 291 751 270.5 c 128,-1,26
 688 250 688 250 617 250 c 0,27,28
 545 250 545 250 481 271 c 128,-1,29
 417 292 417 292 365 330 c 1,30,-1
 260 225 l 1,31,-1
 158 330 l 1,32,-1
 260 432 l 1,33,34
 223 486 223 486 202.5 549.5 c 128,-1,35
 182 613 182 613 182 684 c 256,0,1
336 686 m 256,36,37
 336 628 336 628 358.5 577 c 128,-1,38
 381 526 381 526 419 488 c 128,-1,39
 457 450 457 450 508 428 c 128,-1,40
 559 406 559 406 617 406 c 0,41,42
 674 406 674 406 725 428 c 128,-1,43
 776 450 776 450 814.5 488 c 128,-1,44
 853 526 853 526 875 577 c 128,-1,45
 897 628 897 628 897 686 c 256,46,47
 897 744 897 744 875 795 c 128,-1,48
 853 846 853 846 814.5 884.5 c 128,-1,49
 776 923 776 923 725 945 c 128,-1,50
 674 967 674 967 617 967 c 0,51,52
 559 967 559 967 508 945 c 128,-1,53
 457 923 457 923 419 884.5 c 128,-1,54
 381 846 381 846 358.5 795 c 128,-1,55
 336 744 336 744 336 686 c 256,36,37
EndSplineSet
EndChar

StartChar: yen
Encoding: 165 165 102
Width: 1229
GlyphClass: 2
Flags: W
LayerCount: 2
Fore
SplineSet
764 679 m 1,0,-1
 1085 679 l 1,1,-1
 1085 537 l 1,2,-1
 702 537 l 1,3,-1
 702 400 l 1,4,-1
 1085 400 l 1,5,-1
 1085 256 l 1,6,-1
 702 256 l 1,7,-1
 702 0 l 1,8,-1
 524 0 l 1,9,-1
 524 256 l 1,10,-1
 143 256 l 1,11,-1
 143 400 l 1,12,-1
 524 400 l 1,13,-1
 526 537 l 1,14,-1
 143 537 l 1,15,-1
 143 679 l 1,16,-1
 463 679 l 1,17,-1
 52 1349 l 1,18,-1
 251 1349 l 1,19,-1
 612 732 l 1,20,-1
 977 1349 l 1,21,-1
 1176 1349 l 1,22,-1
 764 679 l 1,0,-1
EndSplineSet
EndChar

StartChar: brokenbar
Encoding: 166 166 103
Width: 1229
GlyphClass: 2
Flags: W
LayerCount: 2
Fore
SplineSet
531 676 m 1,0,-1
 531 1454 l 1,1,-1
 697 1454 l 1,2,-1
 697 676 l 1,3,-1
 531 676 l 1,0,-1
531 -455 m 1,4,-1
 531 324 l 1,5,-1
 697 324 l 1,6,-1
 697 -455 l 1,7,-1
 531 -455 l 1,4,-1
EndSplineSet
EndChar

StartChar: section
Encoding: 167 167 104
Width: 1229
GlyphClass: 2
Flags: W
LayerCount: 2
Fore
SplineSet
632 1484 m 0,0,1
 711 1484 711 1484 780 1469 c 128,-1,2
 849 1454 849 1454 903 1422.5 c 128,-1,3
 957 1391 957 1391 993.5 1342 c 128,-1,4
 1030 1293 1030 1293 1045 1224 c 1,5,-1
 884 1204 l 1,6,7
 876 1249 876 1249 853 1279.5 c 128,-1,8
 830 1310 830 1310 796.5 1328.5 c 128,-1,9
 763 1347 763 1347 720.5 1355.5 c 128,-1,10
 678 1364 678 1364 632 1364 c 0,11,12
 507 1364 507 1364 442.5 1319.5 c 128,-1,13
 378 1275 378 1275 378 1204 c 0,14,15
 378 1159 378 1159 403 1127 c 128,-1,16
 428 1095 428 1095 469.5 1072 c 128,-1,17
 511 1049 511 1049 565.5 1033 c 128,-1,18
 620 1017 620 1017 679 1003 c 0,19,20
 747 987 747 987 816.5 964 c 128,-1,21
 886 941 886 941 942 904.5 c 128,-1,22
 998 868 998 868 1033 815 c 128,-1,23
 1068 762 1068 762 1068 686 c 0,24,25
 1068 641 1068 641 1054 597.5 c 128,-1,26
 1040 554 1040 554 1012.5 517.5 c 128,-1,27
 985 481 985 481 944 453.5 c 128,-1,28
 903 426 903 426 849 413 c 1,29,30
 898 392 898 392 937.5 366.5 c 128,-1,31
 977 341 977 341 1004.5 309 c 128,-1,32
 1032 277 1032 277 1047 236.5 c 128,-1,33
 1062 196 1062 196 1062 145 c 0,34,35
 1062 72 1062 72 1033 13.5 c 128,-1,36
 1004 -45 1004 -45 948 -86.5 c 128,-1,37
 892 -128 892 -128 810 -150 c 128,-1,38
 728 -172 728 -172 621 -172 c 0,39,40
 528 -172 528 -172 451 -158.5 c 128,-1,41
 374 -145 374 -145 315.5 -113 c 128,-1,42
 257 -81 257 -81 217.5 -29 c 128,-1,43
 178 23 178 23 159 100 c 1,44,-1
 320 131 l 1,45,46
 332 76 332 76 359.5 40.5 c 128,-1,47
 387 5 387 5 426 -15.5 c 128,-1,48
 465 -36 465 -36 514.5 -44 c 128,-1,49
 564 -52 564 -52 621 -52 c 0,50,51
 679 -52 679 -52 730 -41.5 c 128,-1,52
 781 -31 781 -31 819.5 -8.5 c 128,-1,53
 858 14 858 14 880 48 c 128,-1,54
 902 82 902 82 902 129 c 0,55,56
 902 183 902 183 873.5 219.5 c 128,-1,57
 845 256 845 256 797.5 281.5 c 128,-1,58
 750 307 750 307 688.5 324.5 c 128,-1,59
 627 342 627 342 562 358 c 0,60,61
 497 373 497 373 431.5 396 c 128,-1,62
 366 419 366 419 314 455.5 c 128,-1,63
 262 492 262 492 229.5 545 c 128,-1,64
 197 598 197 598 197 671 c 0,65,66
 197 716 197 716 213 757.5 c 128,-1,67
 229 799 229 799 258.5 834.5 c 128,-1,68
 288 870 288 870 330 896.5 c 128,-1,69
 372 923 372 923 425 938 c 1,70,71
 383 952 383 952 345.5 975 c 128,-1,72
 308 998 308 998 279.5 1030 c 128,-1,73
 251 1062 251 1062 234.5 1102 c 128,-1,74
 218 1142 218 1142 218 1190 c 0,75,76
 218 1329 218 1329 323.5 1406.5 c 128,-1,77
 429 1484 429 1484 632 1484 c 0,0,1
910 663 m 0,78,79
 910 711 910 711 883.5 745.5 c 128,-1,80
 857 780 857 780 813 805.5 c 128,-1,81
 769 831 769 831 712.5 848.5 c 128,-1,82
 656 866 656 866 595 880 c 1,83,84
 537 877 537 877 492.5 860.5 c 128,-1,85
 448 844 448 844 418 818 c 128,-1,86
 388 792 388 792 372.5 757.5 c 128,-1,87
 357 723 357 723 357 684 c 0,88,89
 357 638 357 638 381.5 605 c 128,-1,90
 406 572 406 572 447 548 c 128,-1,91
 488 524 488 524 542 507 c 128,-1,92
 596 490 596 490 656 475 c 1,93,94
 710 476 710 476 756.5 488 c 128,-1,95
 803 500 803 500 837 523.5 c 128,-1,96
 871 547 871 547 890.5 582 c 128,-1,97
 910 617 910 617 910 663 c 0,78,79
EndSplineSet
EndChar

StartChar: dieresis
Encoding: 168 168 105
Width: 1229
GlyphClass: 2
Flags: W
LayerCount: 2
Fore
SplineSet
729 1219 m 1,0,-1
 729 1403 l 1,1,-1
 892 1403 l 1,2,-1
 892 1219 l 1,3,-1
 729 1219 l 1,0,-1
335 1219 m 1,4,-1
 335 1403 l 1,5,-1
 500 1403 l 1,6,-1
 500 1219 l 1,7,-1
 335 1219 l 1,4,-1
EndSplineSet
EndChar

StartChar: copyright
Encoding: 169 169 106
Width: 1229
GlyphClass: 2
Flags: W
LayerCount: 2
Fore
SplineSet
398 763 m 256,0,1
 398 691 398 691 412 631 c 128,-1,2
 426 571 426 571 454 528 c 128,-1,3
 482 485 482 485 524 461 c 128,-1,4
 566 437 566 437 622 437 c 0,5,6
 663 437 663 437 694.5 450.5 c 128,-1,7
 726 464 726 464 749.5 486.5 c 128,-1,8
 773 509 773 509 789.5 537 c 128,-1,9
 806 565 806 565 818 593 c 1,10,-1
 933 558 l 1,11,12
 914 515 914 515 888 474.5 c 128,-1,13
 862 434 862 434 825 402.5 c 128,-1,14
 788 371 788 371 738.5 352 c 128,-1,15
 689 333 689 333 622 333 c 0,16,17
 532 333 532 333 465.5 365 c 128,-1,18
 399 397 399 397 355.5 454 c 128,-1,19
 312 511 312 511 290.5 590 c 128,-1,20
 269 669 269 669 269 763 c 0,21,22
 269 861 269 861 290.5 939 c 128,-1,23
 312 1017 312 1017 355 1072.5 c 128,-1,24
 398 1128 398 1128 463 1157.5 c 128,-1,25
 528 1187 528 1187 615 1187 c 0,26,27
 682 1187 682 1187 731.5 1169 c 128,-1,28
 781 1151 781 1151 817 1121.5 c 128,-1,29
 853 1092 853 1092 877.5 1054.5 c 128,-1,30
 902 1017 902 1017 918 978 c 1,31,-1
 804 945 l 1,32,33
 794 971 794 971 778 996 c 128,-1,34
 762 1021 762 1021 739 1040 c 128,-1,35
 716 1059 716 1059 686 1070.5 c 128,-1,36
 656 1082 656 1082 617 1082 c 0,37,38
 559 1082 559 1082 517.5 1059 c 128,-1,39
 476 1036 476 1036 449.5 994.5 c 128,-1,40
 423 953 423 953 410.5 894 c 128,-1,41
 398 835 398 835 398 763 c 256,0,1
1197 761 m 256,42,43
 1197 574 1197 574 1151.5 437.5 c 128,-1,44
 1106 301 1106 301 1027 212 c 128,-1,45
 948 123 948 123 841.5 80.5 c 128,-1,46
 735 38 735 38 614 38 c 0,47,48
 494 38 494 38 388 80.5 c 128,-1,49
 282 123 282 123 202.5 212 c 128,-1,50
 123 301 123 301 77 437.5 c 128,-1,51
 31 574 31 574 31 761 c 256,52,53
 31 948 31 948 77 1084.5 c 128,-1,54
 123 1221 123 1221 202 1309.5 c 128,-1,55
 281 1398 281 1398 387 1441 c 128,-1,56
 493 1484 493 1484 614 1484 c 256,57,58
 735 1484 735 1484 841.5 1441 c 128,-1,59
 948 1398 948 1398 1027 1309.5 c 128,-1,60
 1106 1221 1106 1221 1151.5 1084.5 c 128,-1,61
 1197 948 1197 948 1197 761 c 256,42,43
1105 761 m 0,62,63
 1105 928 1105 928 1066.5 1047 c 128,-1,64
 1028 1166 1028 1166 961 1242 c 128,-1,65
 894 1318 894 1318 805 1353.5 c 128,-1,66
 716 1389 716 1389 614 1389 c 0,67,68
 513 1389 513 1389 424 1353.5 c 128,-1,69
 335 1318 335 1318 269 1242 c 128,-1,70
 203 1166 203 1166 164.5 1047 c 128,-1,71
 126 928 126 928 126 761 c 0,72,73
 126 593 126 593 164.5 473.5 c 128,-1,74
 203 354 203 354 269 278 c 128,-1,75
 335 202 335 202 424 167 c 128,-1,76
 513 132 513 132 614 132 c 0,77,78
 716 132 716 132 805 167 c 128,-1,79
 894 202 894 202 961 278 c 128,-1,80
 1028 354 1028 354 1066.5 473.5 c 128,-1,81
 1105 593 1105 593 1105 761 c 0,62,63
EndSplineSet
EndChar

StartChar: ordfeminine
Encoding: 170 170 107
Width: 1229
GlyphClass: 2
Flags: W
LayerCount: 2
Fore
SplineSet
206 870 m 0,0,1
 206 939 206 939 235 985 c 128,-1,2
 264 1031 264 1031 313.5 1059 c 128,-1,3
 363 1087 363 1087 428 1099 c 128,-1,4
 493 1111 493 1111 564 1112 c 2,5,-1
 755 1116 l 1,6,-1
 755 1159 l 2,7,8
 755 1252 755 1252 708 1296.5 c 128,-1,9
 661 1341 661 1341 575 1341 c 0,10,11
 491 1341 491 1341 445 1307 c 128,-1,12
 399 1273 399 1273 388 1196 c 1,13,-1
 239 1206 l 1,14,15
 247 1253 247 1253 271 1294 c 128,-1,16
 295 1335 295 1335 337 1366 c 128,-1,17
 379 1397 379 1397 439.5 1414.5 c 128,-1,18
 500 1432 500 1432 579 1432 c 0,19,20
 732 1432 732 1432 815 1365 c 128,-1,21
 898 1298 898 1298 898 1165 c 2,22,-1
 898 874 l 2,23,24
 898 816 898 816 913.5 786 c 128,-1,25
 929 756 929 756 972 756 c 0,26,27
 984 756 984 756 998 758.5 c 128,-1,28
 1012 761 1012 761 1021 764 c 1,29,-1
 1021 670 l 1,30,31
 998 664 998 664 970 660.5 c 128,-1,32
 942 657 942 657 919 657 c 0,33,34
 837 657 837 657 799.5 699.5 c 128,-1,35
 762 742 762 742 759 817 c 1,36,-1
 755 817 l 1,37,38
 712 740 712 740 639 695.5 c 128,-1,39
 566 651 566 651 464 651 c 0,40,41
 343 651 343 651 274.5 708 c 128,-1,42
 206 765 206 765 206 870 c 0,0,1
353 890 m 0,43,44
 353 862 353 862 362 837 c 128,-1,45
 371 812 371 812 390 793 c 128,-1,46
 409 774 409 774 437.5 763 c 128,-1,47
 466 752 466 752 505 752 c 0,48,49
 564 752 564 752 610 774.5 c 128,-1,50
 656 797 656 797 688.5 831 c 128,-1,51
 721 865 721 865 738 905.5 c 128,-1,52
 755 946 755 946 755 983 c 2,53,-1
 755 1034 l 1,54,-1
 601 1030 l 2,55,56
 551 1029 551 1029 506 1022.5 c 128,-1,57
 461 1016 461 1016 427 1001 c 128,-1,58
 393 986 393 986 373 959.5 c 128,-1,59
 353 933 353 933 353 890 c 0,43,44
EndSplineSet
EndChar

StartChar: guillemotleft
Encoding: 171 171 108
Width: 1229
GlyphClass: 2
Flags: W
LayerCount: 2
Fore
SplineSet
940 141 m 1,0,-1
 602 506 l 1,1,-1
 602 569 l 1,2,-1
 940 940 l 1,3,-1
 1118 940 l 1,4,-1
 1118 909 l 1,5,-1
 780 537 l 1,6,-1
 1120 170 l 1,7,-1
 1120 141 l 1,8,-1
 940 141 l 1,0,-1
463 141 m 1,9,-1
 127 506 l 1,10,-1
 127 569 l 1,11,-1
 463 940 l 1,12,-1
 640 940 l 1,13,-1
 640 909 l 1,14,-1
 305 537 l 1,15,-1
 642 170 l 1,16,-1
 642 141 l 1,17,-1
 463 141 l 1,9,-1
EndSplineSet
EndChar

StartChar: logicalnot
Encoding: 172 172 109
Width: 1229
GlyphClass: 2
Flags: W
LayerCount: 2
Fore
SplineSet
966 180 m 1,0,-1
 966 608 l 1,1,-1
 116 608 l 1,2,-1
 116 754 l 1,3,-1
 1111 754 l 1,4,-1
 1111 180 l 1,5,-1
 966 180 l 1,0,-1
EndSplineSet
EndChar

StartChar: registered
Encoding: 174 174 110
Width: 1229
GlyphClass: 2
Flags: W
LayerCount: 2
Fore
SplineSet
1197 761 m 256,0,1
 1197 574 1197 574 1151.5 437.5 c 128,-1,2
 1106 301 1106 301 1027 212 c 128,-1,3
 948 123 948 123 841.5 80.5 c 128,-1,4
 735 38 735 38 614 38 c 0,5,6
 494 38 494 38 388 80.5 c 128,-1,7
 282 123 282 123 202.5 212 c 128,-1,8
 123 301 123 301 77 437.5 c 128,-1,9
 31 574 31 574 31 761 c 256,10,11
 31 948 31 948 77 1084.5 c 128,-1,12
 123 1221 123 1221 202 1309.5 c 128,-1,13
 281 1398 281 1398 387 1441 c 128,-1,14
 493 1484 493 1484 614 1484 c 256,15,16
 735 1484 735 1484 841.5 1441 c 128,-1,17
 948 1398 948 1398 1027 1309.5 c 128,-1,18
 1106 1221 1106 1221 1151.5 1084.5 c 128,-1,19
 1197 948 1197 948 1197 761 c 256,0,1
1105 761 m 0,20,21
 1105 928 1105 928 1066.5 1047 c 128,-1,22
 1028 1166 1028 1166 961 1242 c 128,-1,23
 894 1318 894 1318 805 1353.5 c 128,-1,24
 716 1389 716 1389 614 1389 c 0,25,26
 513 1389 513 1389 424 1353.5 c 128,-1,27
 335 1318 335 1318 269 1242 c 128,-1,28
 203 1166 203 1166 164.5 1047 c 128,-1,29
 126 928 126 928 126 761 c 0,30,31
 126 593 126 593 164.5 473.5 c 128,-1,32
 203 354 203 354 269 278 c 128,-1,33
 335 202 335 202 424 167 c 128,-1,34
 513 132 513 132 614 132 c 0,35,36
 716 132 716 132 805 167 c 128,-1,37
 894 202 894 202 961 278 c 128,-1,38
 1028 354 1028 354 1066.5 473.5 c 128,-1,39
 1105 593 1105 593 1105 761 c 0,20,21
815 343 m 1,40,-1
 616 679 l 1,41,-1
 455 679 l 1,42,-1
 455 343 l 1,43,-1
 328 343 l 1,44,-1
 328 1174 l 1,45,-1
 635 1174 l 2,46,47
 777 1174 777 1174 852.5 1111 c 128,-1,48
 928 1048 928 1048 928 937 c 0,49,50
 928 835 928 835 876 773.5 c 128,-1,51
 824 712 824 712 739 693 c 1,52,-1
 960 343 l 1,53,-1
 815 343 l 1,40,-1
801 935 m 0,54,55
 801 1004 801 1004 753.5 1040 c 128,-1,56
 706 1076 706 1076 625 1076 c 2,57,-1
 455 1076 l 1,58,-1
 455 775 l 1,59,-1
 637 775 l 2,60,61
 717 775 717 775 759 817.5 c 128,-1,62
 801 860 801 860 801 935 c 0,54,55
EndSplineSet
EndChar

StartChar: degree
Encoding: 176 176 112
Width: 1229
GlyphClass: 2
Flags: W
LayerCount: 2
Fore
SplineSet
901 1085 m 0,0,1
 901 1026 901 1026 878.5 974 c 128,-1,2
 856 922 856 922 817 883.5 c 128,-1,3
 778 845 778 845 725.5 822.5 c 128,-1,4
 673 800 673 800 614 800 c 256,5,6
 555 800 555 800 503 822.5 c 128,-1,7
 451 845 451 845 412 883.5 c 128,-1,8
 373 922 373 922 350 974 c 128,-1,9
 327 1026 327 1026 327 1085 c 0,10,11
 327 1145 327 1145 350 1197 c 128,-1,12
 373 1249 373 1249 412 1287.5 c 128,-1,13
 451 1326 451 1326 503 1348 c 128,-1,14
 555 1370 555 1370 614 1370 c 256,15,16
 673 1370 673 1370 725.5 1348 c 128,-1,17
 778 1326 778 1326 817 1287.5 c 128,-1,18
 856 1249 856 1249 878.5 1197 c 128,-1,19
 901 1145 901 1145 901 1085 c 0,0,1
792 1085 m 0,20,21
 792 1123 792 1123 778.5 1155.5 c 128,-1,22
 765 1188 765 1188 741 1212.5 c 128,-1,23
 717 1237 717 1237 684.5 1251 c 128,-1,24
 652 1265 652 1265 614 1265 c 0,25,26
 577 1265 577 1265 544.5 1251 c 128,-1,27
 512 1237 512 1237 488 1212.5 c 128,-1,28
 464 1188 464 1188 450 1155.5 c 128,-1,29
 436 1123 436 1123 436 1085 c 0,30,31
 436 1048 436 1048 450 1015.5 c 128,-1,32
 464 983 464 983 488 958.5 c 128,-1,33
 512 934 512 934 544.5 919.5 c 128,-1,34
 577 905 577 905 614 905 c 0,35,36
 652 905 652 905 684.5 919.5 c 128,-1,37
 717 934 717 934 741 958.5 c 128,-1,38
 765 983 765 983 778.5 1015.5 c 128,-1,39
 792 1048 792 1048 792 1085 c 0,20,21
EndSplineSet
EndChar

StartChar: plusminus
Encoding: 177 177 113
Width: 1229
GlyphClass: 2
Flags: W
LayerCount: 2
Fore
SplineSet
687 680 m 1,0,-1
 687 285 l 1,1,-1
 540 285 l 1,2,-1
 540 680 l 1,3,-1
 116 680 l 1,4,-1
 116 825 l 1,5,-1
 540 825 l 1,6,-1
 540 1219 l 1,7,-1
 687 1219 l 1,8,-1
 687 825 l 1,9,-1
 1111 825 l 1,10,-1
 1111 680 l 1,11,-1
 687 680 l 1,0,-1
116 0 m 1,12,-1
 116 145 l 1,13,-1
 1111 145 l 1,14,-1
 1111 0 l 1,15,-1
 116 0 l 1,12,-1
EndSplineSet
EndChar

StartChar: uni00B2
Encoding: 178 178 114
Width: 1229
GlyphClass: 2
Flags: W
LayerCount: 2
Fore
SplineSet
314 563 m 1,0,-1
 312 666 l 1,1,2
 339 727 339 727 383 774.5 c 128,-1,3
 427 822 427 822 477 862 c 128,-1,4
 527 902 527 902 578.5 937.5 c 128,-1,5
 630 973 630 973 671 1009.5 c 128,-1,6
 712 1046 712 1046 738 1087 c 128,-1,7
 764 1128 764 1128 764 1178 c 0,8,9
 764 1240 764 1240 728.5 1277.5 c 128,-1,10
 693 1315 693 1315 619 1315 c 0,11,12
 551 1315 551 1315 507 1278.5 c 128,-1,13
 463 1242 463 1242 455 1174 c 1,14,-1
 322 1182 l 1,15,16
 328 1233 328 1233 351 1276.5 c 128,-1,17
 374 1320 374 1320 412 1352 c 128,-1,18
 450 1384 450 1384 504 1402.5 c 128,-1,19
 558 1421 558 1421 625 1421 c 0,20,21
 756 1421 756 1421 828.5 1357.5 c 128,-1,22
 901 1294 901 1294 901 1182 c 0,23,24
 901 1121 901 1121 874 1072 c 128,-1,25
 847 1023 847 1023 804.5 982 c 128,-1,26
 762 941 762 941 710.5 904.5 c 128,-1,27
 659 868 659 868 609.5 831.5 c 128,-1,28
 560 795 560 795 518.5 756 c 128,-1,29
 477 717 477 717 455 670 c 1,30,-1
 914 670 l 1,31,-1
 916 563 l 1,32,-1
 314 563 l 1,0,-1
EndSplineSet
EndChar

StartChar: uni00B3
Encoding: 179 179 115
Width: 1229
GlyphClass: 2
Flags: W
LayerCount: 2
Fore
SplineSet
921 795 m 0,0,1
 921 679 921 679 843.5 615 c 128,-1,2
 766 551 766 551 624 551 c 0,3,4
 537 551 537 551 479 570.5 c 128,-1,5
 421 590 421 590 384.5 622 c 128,-1,6
 348 654 348 654 330 694.5 c 128,-1,7
 312 735 312 735 306 778 c 1,8,-1
 442 791 l 1,9,10
 451 724 451 724 495 689.5 c 128,-1,11
 539 655 539 655 624 655 c 0,12,13
 701 655 701 655 742.5 691 c 128,-1,14
 784 727 784 727 784 803 c 0,15,16
 784 848 784 848 765.5 875 c 128,-1,17
 747 902 747 902 719 916.5 c 128,-1,18
 691 931 691 931 657.5 935.5 c 128,-1,19
 624 940 624 940 595 940 c 2,20,-1
 534 940 l 1,21,-1
 534 1049 l 1,22,-1
 591 1049 l 2,23,24
 620 1049 620 1049 650.5 1055.5 c 128,-1,25
 681 1062 681 1062 706 1077.5 c 128,-1,26
 731 1093 731 1093 747 1119.5 c 128,-1,27
 763 1146 763 1146 763 1186 c 0,28,29
 763 1246 763 1246 726 1280.5 c 128,-1,30
 689 1315 689 1315 618 1315 c 0,31,32
 550 1315 550 1315 508 1280 c 128,-1,33
 466 1245 466 1245 460 1180 c 1,34,-1
 325 1192 l 1,35,36
 332 1250 332 1250 357 1293 c 128,-1,37
 382 1336 382 1336 421.5 1364.5 c 128,-1,38
 461 1393 461 1393 512.5 1407 c 128,-1,39
 564 1421 564 1421 622 1421 c 0,40,41
 691 1421 691 1421 743 1404.5 c 128,-1,42
 795 1388 795 1388 830 1358.5 c 128,-1,43
 865 1329 865 1329 882.5 1289.5 c 128,-1,44
 900 1250 900 1250 900 1204 c 0,45,46
 900 1129 900 1129 857 1074 c 128,-1,47
 814 1019 814 1019 724 999 c 1,48,-1
 724 997 l 1,49,50
 776 992 776 992 813.5 973.5 c 128,-1,51
 851 955 851 955 875 928 c 128,-1,52
 899 901 899 901 910 867 c 128,-1,53
 921 833 921 833 921 795 c 0,0,1
EndSplineSet
EndChar

StartChar: acute
Encoding: 180 180 116
Width: 1229
GlyphClass: 2
Flags: W
LayerCount: 2
Fore
SplineSet
402 1201 m 1,0,-1
 402 1221 l 1,1,-1
 629 1460 l 1,2,-1
 826 1460 l 1,3,-1
 826 1431 l 1,4,-1
 526 1201 l 1,5,-1
 402 1201 l 1,0,-1
EndSplineSet
EndChar

StartChar: uni00B5
Encoding: 181 181 117
Width: 1229
GlyphClass: 2
Flags: W
LayerCount: 2
Fore
SplineSet
916 0 m 1,0,1
 915 6 915 6 913.5 30.5 c 128,-1,2
 912 55 912 55 910.5 86 c 128,-1,3
 909 117 909 117 907.5 148.5 c 128,-1,4
 906 180 906 180 906 199 c 1,5,-1
 902 199 l 1,6,7
 849 90 849 90 765.5 35 c 128,-1,8
 682 -20 682 -20 568 -20 c 0,9,10
 486 -20 486 -20 422 12 c 128,-1,11
 358 44 358 44 326 102 c 1,12,-1
 322 102 l 1,13,14
 325 70 325 70 325.5 38.5 c 128,-1,15
 326 7 326 7 326 -20 c 2,16,-1
 326 -393 l 1,17,-1
 144 -393 l 1,18,-1
 144 1082 l 1,19,-1
 326 1082 l 1,20,-1
 326 438 l 2,21,22
 326 369 326 369 339.5 311 c 128,-1,23
 353 253 353 253 384.5 210.5 c 128,-1,24
 416 168 416 168 466.5 144.5 c 128,-1,25
 517 121 517 121 590 121 c 0,26,27
 657 121 657 121 713 147 c 128,-1,28
 769 173 769 173 810 218.5 c 128,-1,29
 851 264 851 264 874 327 c 128,-1,30
 897 390 897 390 897 465 c 2,31,-1
 897 1082 l 1,32,-1
 1078 1082 l 1,33,-1
 1078 233 l 2,34,35
 1078 199 1078 199 1078.5 161 c 128,-1,36
 1079 123 1079 123 1080 89.5 c 128,-1,37
 1081 56 1081 56 1082 31.5 c 128,-1,38
 1083 7 1083 7 1084 0 c 1,39,-1
 916 0 l 1,0,1
EndSplineSet
EndChar

StartChar: paragraph
Encoding: 182 182 118
Width: 1229
GlyphClass: 2
Flags: W
LayerCount: 2
Fore
SplineSet
951 1227 m 1,0,-1
 951 -324 l 1,1,-1
 819 -324 l 1,2,-1
 819 1227 l 1,3,-1
 622 1227 l 1,4,-1
 622 -324 l 1,5,-1
 489 -324 l 1,6,-1
 489 634 l 1,7,8
 409 634 409 634 342.5 656.5 c 128,-1,9
 276 679 276 679 228 723 c 128,-1,10
 180 767 180 767 153.5 834 c 128,-1,11
 127 901 127 901 127 989 c 0,12,13
 127 1073 127 1073 152 1139.5 c 128,-1,14
 177 1206 177 1206 224.5 1252.5 c 128,-1,15
 272 1299 272 1299 341 1324 c 128,-1,16
 410 1349 410 1349 497 1349 c 2,17,-1
 1080 1349 l 1,18,-1
 1080 1227 l 1,19,-1
 951 1227 l 1,0,-1
EndSplineSet
EndChar

StartChar: cedilla
Encoding: 184 184 120
Width: 1229
GlyphClass: 2
Flags: W
LayerCount: 2
Fore
SplineSet
483 -258 m 0,0,1
 483 -300 483 -300 468 -334.5 c 128,-1,2
 453 -369 453 -369 420.5 -393.5 c 128,-1,3
 388 -418 388 -418 336 -431 c 128,-1,4
 284 -444 284 -444 209 -444 c 0,5,6
 189 -444 189 -444 166.5 -443.5 c 128,-1,7
 144 -443 144 -443 119 -440 c 1,8,-1
 119 -342 l 1,9,10
 169 -348 169 -348 205 -348 c 0,11,12
 246 -348 246 -348 274.5 -341.5 c 128,-1,13
 303 -335 303 -335 320 -324 c 128,-1,14
 337 -313 337 -313 344.5 -297 c 128,-1,15
 352 -281 352 -281 352 -262 c 0,16,17
 352 -222 352 -222 321.5 -201 c 128,-1,18
 291 -180 291 -180 219 -180 c 0,19,20
 205 -180 205 -180 190.5 -180 c 128,-1,21
 176 -180 176 -180 162 -182 c 1,22,-1
 227 0 l 1,23,-1
 334 0 l 1,24,-1
 295 -100 l 1,25,26
 389 -103 389 -103 436 -144.5 c 128,-1,27
 483 -186 483 -186 483 -258 c 0,0,1
EndSplineSet
EndChar

StartChar: uni00B9
Encoding: 185 185 121
Width: 1229
GlyphClass: 2
Flags: W
LayerCount: 2
Fore
SplineSet
291 563 m 1,0,-1
 291 670 l 1,1,-1
 556 670 l 1,2,-1
 556 1280 l 1,3,4
 543 1254 543 1254 515.5 1233 c 128,-1,5
 488 1212 488 1212 451 1197 c 128,-1,6
 414 1182 414 1182 371 1173.5 c 128,-1,7
 328 1165 328 1165 285 1165 c 1,8,-1
 285 1274 l 1,9,10
 333 1274 333 1274 376.5 1283 c 128,-1,11
 420 1292 420 1292 456.5 1309.5 c 128,-1,12
 493 1327 493 1327 521 1352 c 128,-1,13
 549 1377 549 1377 566 1410 c 1,14,-1
 687 1410 l 1,15,-1
 687 670 l 1,16,-1
 923 670 l 1,17,-1
 923 563 l 1,18,-1
 291 563 l 1,0,-1
EndSplineSet
EndChar

StartChar: ordmasculine
Encoding: 186 186 122
Width: 1229
GlyphClass: 2
Flags: W
LayerCount: 2
Fore
SplineSet
1002 1042 m 0,0,1
 1002 955 1002 955 977.5 883.5 c 128,-1,2
 953 812 953 812 904 760 c 128,-1,3
 855 708 855 708 782 679.5 c 128,-1,4
 709 651 709 651 611 651 c 0,5,6
 518 651 518 651 446 679.5 c 128,-1,7
 374 708 374 708 325.5 760 c 128,-1,8
 277 812 277 812 251.5 883.5 c 128,-1,9
 226 955 226 955 226 1042 c 0,10,11
 226 1126 226 1126 250 1197.5 c 128,-1,12
 274 1269 274 1269 322.5 1321 c 128,-1,13
 371 1373 371 1373 444 1402.5 c 128,-1,14
 517 1432 517 1432 615 1432 c 0,15,16
 718 1432 718 1432 791.5 1403 c 128,-1,17
 865 1374 865 1374 911.5 1322 c 128,-1,18
 958 1270 958 1270 980 1198.5 c 128,-1,19
 1002 1127 1002 1127 1002 1042 c 0,0,1
853 1042 m 0,20,21
 853 1193 853 1193 793 1260 c 128,-1,22
 733 1327 733 1327 619 1327 c 0,23,24
 503 1327 503 1327 440.5 1259 c 128,-1,25
 378 1191 378 1191 378 1042 c 0,26,27
 378 966 378 966 395 911.5 c 128,-1,28
 412 857 412 857 442.5 822.5 c 128,-1,29
 473 788 473 788 515.5 772 c 128,-1,30
 558 756 558 756 609 756 c 0,31,32
 726 756 726 756 789.5 822.5 c 128,-1,33
 853 889 853 889 853 1042 c 0,20,21
EndSplineSet
EndChar

StartChar: guillemotright
Encoding: 187 187 123
Width: 1229
GlyphClass: 2
Flags: W
LayerCount: 2
Fore
SplineSet
762 141 m 1,0,-1
 584 141 l 1,1,-1
 584 170 l 1,2,-1
 922 537 l 1,3,-1
 586 909 l 1,4,-1
 586 940 l 1,5,-1
 762 940 l 1,6,-1
 1100 569 l 1,7,-1
 1100 506 l 1,8,-1
 762 141 l 1,0,-1
287 141 m 1,9,-1
 107 141 l 1,10,-1
 107 170 l 1,11,-1
 445 537 l 1,12,-1
 109 909 l 1,13,-1
 109 940 l 1,14,-1
 287 940 l 1,15,-1
 622 569 l 1,16,-1
 622 506 l 1,17,-1
 287 141 l 1,9,-1
EndSplineSet
EndChar

StartChar: questiondown
Encoding: 191 191 127
Width: 1229
GlyphClass: 2
Flags: W
LayerCount: 2
Fore
SplineSet
153 79 m 0,0,1
 153 148 153 148 171.5 200 c 128,-1,2
 190 252 190 252 221 293 c 128,-1,3
 252 334 252 334 291.5 367 c 128,-1,4
 331 400 331 400 372 429.5 c 128,-1,5
 413 459 413 459 452.5 488.5 c 128,-1,6
 492 518 492 518 523.5 552 c 128,-1,7
 555 586 555 586 574.5 627.5 c 128,-1,8
 594 669 594 669 595 724 c 1,9,-1
 770 724 l 1,10,11
 768 657 768 657 748.5 606 c 128,-1,12
 729 555 729 555 698 514.5 c 128,-1,13
 667 474 667 474 628 441.5 c 128,-1,14
 589 409 589 409 549 379.5 c 128,-1,15
 509 350 509 350 470.5 320.5 c 128,-1,16
 432 291 432 291 402 257 c 128,-1,17
 372 223 372 223 353.5 181.5 c 128,-1,18
 335 140 335 140 335 87 c 0,19,20
 335 32 335 32 355.5 -10 c 128,-1,21
 376 -52 376 -52 414.5 -80.5 c 128,-1,22
 453 -109 453 -109 507.5 -124 c 128,-1,23
 562 -139 562 -139 630 -139 c 256,24,25
 698 -139 698 -139 753.5 -120 c 128,-1,26
 809 -101 809 -101 850 -65.5 c 128,-1,27
 891 -30 891 -30 916 20.5 c 128,-1,28
 941 71 941 71 948 133 c 1,29,-1
 1132 121 l 1,30,31
 1120 31 1120 31 1083 -44.5 c 128,-1,32
 1046 -120 1046 -120 983 -174 c 128,-1,33
 920 -228 920 -228 832.5 -258.5 c 128,-1,34
 745 -289 745 -289 632 -289 c 0,35,36
 524 -289 524 -289 435.5 -265 c 128,-1,37
 347 -241 347 -241 284 -194.5 c 128,-1,38
 221 -148 221 -148 187 -79.5 c 128,-1,39
 153 -11 153 -11 153 79 c 0,0,1
778 1081 m 1,40,-1
 778 880 l 1,41,-1
 583 880 l 1,42,-1
 583 1081 l 1,43,-1
 778 1081 l 1,40,-1
EndSplineSet
EndChar

StartChar: AE
Encoding: 198 198 134
Width: 1229
GlyphClass: 2
Flags: W
LayerCount: 2
Fore
SplineSet
646 412 m 1,0,-1
 311 412 l 1,1,-1
 169 0 l 1,2,-1
 1 0 l 1,3,-1
 487 1349 l 1,4,-1
 1154 1349 l 1,5,-1
 1154 1197 l 1,6,-1
 817 1197 l 1,7,-1
 817 767 l 1,8,-1
 1144 767 l 1,9,-1
 1144 617 l 1,10,-1
 817 617 l 1,11,-1
 817 152 l 1,12,-1
 1195 152 l 1,13,-1
 1195 0 l 1,14,-1
 646 0 l 1,15,-1
 646 412 l 1,0,-1
646 1202 m 1,16,-1
 573 1202 l 1,17,18
 569 1186 569 1186 559 1153 c 128,-1,19
 549 1120 549 1120 538.5 1084 c 128,-1,20
 528 1048 528 1048 517.5 1014 c 128,-1,21
 507 980 507 980 501 962 c 2,22,-1
 362 561 l 1,23,-1
 646 561 l 1,24,-1
 646 1202 l 1,16,-1
EndSplineSet
EndChar

StartChar: Eth
Encoding: 208 208 144
Width: 1229
GlyphClass: 2
Flags: W
LayerCount: 2
Fore
SplineSet
1125 688 m 0,0,1
 1125 520 1125 520 1085 391.5 c 128,-1,2
 1045 263 1045 263 969 176 c 128,-1,3
 893 89 893 89 782.5 44.5 c 128,-1,4
 672 0 672 0 532 0 c 2,5,-1
 162 0 l 1,6,-1
 162 597 l 1,7,-1
 27 597 l 1,8,-1
 27 746 l 1,9,-1
 162 746 l 1,10,-1
 162 1349 l 1,11,-1
 473 1349 l 2,12,13
 631 1349 631 1349 752.5 1310.5 c 128,-1,14
 874 1272 874 1272 957 1191 c 128,-1,15
 1040 1110 1040 1110 1082.5 985 c 128,-1,16
 1125 860 1125 860 1125 688 c 0,0,1
642 597 m 1,17,-1
 353 597 l 1,18,-1
 353 156 l 1,19,-1
 515 156 l 2,20,21
 727 156 727 156 830 289 c 128,-1,22
 933 422 933 422 933 688 c 0,23,24
 933 823 933 823 905 919 c 128,-1,25
 877 1015 877 1015 820 1075.5 c 128,-1,26
 763 1136 763 1136 677 1164.5 c 128,-1,27
 591 1193 591 1193 474 1193 c 2,28,-1
 353 1193 l 1,29,-1
 353 746 l 1,30,-1
 642 746 l 1,31,-1
 642 597 l 1,17,-1
EndSplineSet
EndChar

StartChar: multiply
Encoding: 215 215 151
Width: 1229
GlyphClass: 2
Flags: W
LayerCount: 2
Fore
SplineSet
157 330 m 1,0,-1
 511 684 l 1,1,-1
 159 1036 l 1,2,-1
 263 1139 l 1,3,-1
 613 786 l 1,4,-1
 963 1137 l 1,5,-1
 1068 1032 l 1,6,-1
 718 684 l 1,7,-1
 1070 332 l 1,8,-1
 968 227 l 1,9,-1
 615 580 l 1,10,-1
 259 225 l 1,11,-1
 157 330 l 1,0,-1
EndSplineSet
EndChar

StartChar: Oslash
Encoding: 216 216 152
Width: 1229
GlyphClass: 2
Flags: W
LayerCount: 2
Fore
SplineSet
1126 681 m 0,0,1
 1126 508 1126 508 1091 377 c 128,-1,2
 1056 246 1056 246 990 157.5 c 128,-1,3
 924 69 924 69 828.5 24.5 c 128,-1,4
 733 -20 733 -20 613 -20 c 0,5,6
 502 -20 502 -20 416 15 c 128,-1,7
 330 50 330 50 267 118 c 1,8,-1
 150 -38 l 1,9,-1
 56 27 l 1,10,-1
 197 216 l 1,11,12
 149 304 149 304 125.5 420 c 128,-1,13
 102 536 102 536 102 681 c 0,14,15
 102 854 102 854 136 983 c 128,-1,16
 170 1112 170 1112 235 1198 c 128,-1,17
 300 1284 300 1284 395.5 1327 c 128,-1,18
 491 1370 491 1370 615 1370 c 0,19,20
 832 1370 832 1370 960 1236 c 1,21,-1
 1076 1392 l 1,22,-1
 1170 1327 l 1,23,-1
 1030 1140 l 1,24,25
 1078 1055 1078 1055 1102 941 c 128,-1,26
 1126 827 1126 827 1126 681 c 0,0,1
925 681 m 0,27,28
 925 845 925 845 895 959 c 1,29,-1
 383 273 l 1,30,31
 462 135 462 135 614 135 c 0,32,33
 777 135 777 135 851 275 c 128,-1,34
 925 415 925 415 925 681 c 0,27,28
303 681 m 0,35,36
 303 515 303 515 333 399 c 1,37,-1
 845 1083 l 1,38,39
 806 1149 806 1149 748 1181.5 c 128,-1,40
 690 1214 690 1214 615 1214 c 0,41,42
 459 1214 459 1214 381 1082.5 c 128,-1,43
 303 951 303 951 303 681 c 0,35,36
EndSplineSet
EndChar

StartChar: Thorn
Encoding: 222 222 158
Width: 1229
GlyphClass: 2
Flags: W
LayerCount: 2
Fore
SplineSet
1119 692 m 0,0,1
 1119 604 1119 604 1089.5 524.5 c 128,-1,2
 1060 445 1060 445 999.5 385 c 128,-1,3
 939 325 939 325 848 289.5 c 128,-1,4
 757 254 757 254 634 254 c 2,5,-1
 353 254 l 1,6,-1
 353 0 l 1,7,-1
 162 0 l 1,8,-1
 162 1349 l 1,9,-1
 353 1349 l 1,10,-1
 353 1114 l 1,11,-1
 622 1114 l 2,12,13
 747 1114 747 1114 840 1084 c 128,-1,14
 933 1054 933 1054 995 998.5 c 128,-1,15
 1057 943 1057 943 1088 865 c 128,-1,16
 1119 787 1119 787 1119 692 c 0,0,1
927 688 m 0,17,18
 927 822 927 822 845 896.5 c 128,-1,19
 763 971 763 971 599 971 c 2,20,-1
 353 971 l 1,21,-1
 353 395 l 1,22,-1
 607 395 l 2,23,24
 689 395 689 395 749.5 417 c 128,-1,25
 810 439 810 439 849.5 478.5 c 128,-1,26
 889 518 889 518 908 571.5 c 128,-1,27
 927 625 927 625 927 688 c 0,17,18
EndSplineSet
EndChar

StartChar: germandbls
Encoding: 223 223 159
Width: 1229
GlyphClass: 2
Flags: W
LayerCount: 2
Fore
SplineSet
1167 295 m 0,0,1
 1167 229 1167 229 1146.5 170 c 128,-1,2
 1126 111 1126 111 1082.5 67 c 128,-1,3
 1039 23 1039 23 971.5 -3 c 128,-1,4
 904 -29 904 -29 809 -29 c 0,5,6
 729 -29 729 -29 655 -16.5 c 128,-1,7
 581 -4 581 -4 526 20 c 1,8,-1
 524 184 l 1,9,10
 550 169 550 169 583 156 c 128,-1,11
 616 143 616 143 653 134 c 128,-1,12
 690 125 690 125 729 120 c 128,-1,13
 768 115 768 115 805 115 c 0,14,15
 897 115 897 115 946 162.5 c 128,-1,16
 995 210 995 210 995 289 c 0,17,18
 995 348 995 348 968 389 c 128,-1,19
 941 430 941 430 900.5 461.5 c 128,-1,20
 860 493 860 493 812.5 521.5 c 128,-1,21
 765 550 765 550 724.5 585.5 c 128,-1,22
 684 621 684 621 657 668 c 128,-1,23
 630 715 630 715 630 785 c 0,24,25
 630 836 630 836 646.5 872.5 c 128,-1,26
 663 909 663 909 687.5 938 c 128,-1,27
 712 967 712 967 741 991 c 128,-1,28
 770 1015 770 1015 794.5 1041 c 128,-1,29
 819 1067 819 1067 835.5 1098.5 c 128,-1,30
 852 1130 852 1130 852 1173 c 0,31,32
 852 1210 852 1210 835.5 1241 c 128,-1,33
 819 1272 819 1272 787.5 1294.5 c 128,-1,34
 756 1317 756 1317 711 1330 c 128,-1,35
 666 1343 666 1343 609 1343 c 0,36,37
 541 1343 541 1343 487.5 1325.5 c 128,-1,38
 434 1308 434 1308 397.5 1269.5 c 128,-1,39
 361 1231 361 1231 341.5 1170 c 128,-1,40
 322 1109 322 1109 322 1021 c 2,41,-1
 322 0 l 1,42,-1
 142 0 l 1,43,-1
 142 1027 l 2,44,45
 142 1146 142 1146 173.5 1232 c 128,-1,46
 205 1318 205 1318 265 1374 c 128,-1,47
 325 1430 325 1430 412 1457 c 128,-1,48
 499 1484 499 1484 609 1484 c 0,49,50
 711 1484 711 1484 788.5 1461 c 128,-1,51
 866 1438 866 1438 918.5 1398 c 128,-1,52
 971 1358 971 1358 997.5 1303.5 c 128,-1,53
 1024 1249 1024 1249 1024 1187 c 0,54,55
 1024 1128 1024 1128 1007.5 1084.5 c 128,-1,56
 991 1041 991 1041 965.5 1007.5 c 128,-1,57
 940 974 940 974 911 948 c 128,-1,58
 882 922 882 922 856.5 897.5 c 128,-1,59
 831 873 831 873 814.5 848 c 128,-1,60
 798 823 798 823 798 791 c 0,61,62
 798 751 798 751 825.5 720.5 c 128,-1,63
 853 690 853 690 894 661 c 128,-1,64
 935 632 935 632 982.5 600 c 128,-1,65
 1030 568 1030 568 1071 526 c 128,-1,66
 1112 484 1112 484 1139.5 428.5 c 128,-1,67
 1167 373 1167 373 1167 295 c 0,0,1
EndSplineSet
EndChar

StartChar: ae
Encoding: 230 230 166
Width: 1229
GlyphClass: 2
Flags: W
LayerCount: 2
Fore
SplineSet
679 503 m 1,0,-1
 679 486 l 2,1,2
 680 404 680 404 690.5 336 c 128,-1,3
 701 268 701 268 723 219 c 128,-1,4
 745 170 745 170 780 142.5 c 128,-1,5
 815 115 815 115 864 115 c 0,6,7
 939 115 939 115 983.5 162 c 128,-1,8
 1028 209 1028 209 1044 281 c 1,9,-1
 1182 236 l 1,10,11
 1170 191 1170 191 1148.5 145.5 c 128,-1,12
 1127 100 1127 100 1090.5 63.5 c 128,-1,13
 1054 27 1054 27 999.5 3.5 c 128,-1,14
 945 -20 945 -20 868 -20 c 0,15,16
 811 -20 811 -20 765 -8 c 128,-1,17
 719 4 719 4 683 31.5 c 128,-1,18
 647 59 647 59 620.5 103.5 c 128,-1,19
 594 148 594 148 576 212 c 1,20,21
 555 163 555 163 528 120.5 c 128,-1,22
 501 78 501 78 464.5 47 c 128,-1,23
 428 16 428 16 382 -2 c 128,-1,24
 336 -20 336 -20 278 -20 c 0,25,26
 210 -20 210 -20 161.5 2 c 128,-1,27
 113 24 113 24 81.5 66 c 128,-1,28
 50 108 50 108 35 167.5 c 128,-1,29
 20 227 20 227 20 302 c 0,30,31
 20 409 20 409 48.5 477.5 c 128,-1,32
 77 546 77 546 123.5 585 c 128,-1,33
 170 624 170 624 229 639.5 c 128,-1,34
 288 655 288 655 350 656 c 2,35,-1
 517 660 l 1,36,-1
 517 719 l 2,37,38
 517 786 517 786 509.5 833 c 128,-1,39
 502 880 502 880 485.5 909 c 128,-1,40
 469 938 469 938 443 951.5 c 128,-1,41
 417 965 417 965 381 965 c 0,42,43
 349 965 349 965 323.5 957.5 c 128,-1,44
 298 950 298 950 279 930.5 c 128,-1,45
 260 911 260 911 248.5 877.5 c 128,-1,46
 237 844 237 844 233 793 c 1,47,-1
 65 810 l 1,48,49
 73 874 73 874 93 927.5 c 128,-1,50
 113 981 113 981 150 1020 c 128,-1,51
 187 1059 187 1059 243.5 1080.5 c 128,-1,52
 300 1102 300 1102 380 1102 c 0,53,54
 471 1102 471 1102 531.5 1067 c 128,-1,55
 592 1032 592 1032 627 963 c 1,56,57
 672 1037 672 1037 734.5 1069.5 c 128,-1,58
 797 1102 797 1102 873 1102 c 0,59,60
 969 1102 969 1102 1033.5 1058 c 128,-1,61
 1098 1014 1098 1014 1137 936.5 c 128,-1,62
 1176 859 1176 859 1192 754 c 128,-1,63
 1208 649 1208 649 1208 527 c 2,64,-1
 1208 503 l 1,65,-1
 679 503 l 1,0,-1
189 299 m 0,66,67
 189 217 189 217 217.5 167 c 128,-1,68
 246 117 246 117 303 117 c 0,69,70
 359 117 359 117 399.5 148.5 c 128,-1,71
 440 180 440 180 466 228 c 128,-1,72
 492 276 492 276 504.5 334 c 128,-1,73
 517 392 517 392 517 445 c 2,74,-1
 517 534 l 1,75,-1
 395 530 l 2,76,77
 358 529 358 529 321 521.5 c 128,-1,78
 284 514 284 514 255 490 c 128,-1,79
 226 466 226 466 207.5 420.5 c 128,-1,80
 189 375 189 375 189 299 c 0,66,67
859 969 m 0,81,82
 831 969 831 969 800 954.5 c 128,-1,83
 769 940 769 940 743.5 903 c 128,-1,84
 718 866 718 866 700.5 802.5 c 128,-1,85
 683 739 683 739 681 641 c 1,86,-1
 1042 641 l 1,87,88
 1033 812 1033 812 989 890.5 c 128,-1,89
 945 969 945 969 859 969 c 0,81,82
EndSplineSet
EndChar

StartChar: eth
Encoding: 240 240 176
Width: 1229
GlyphClass: 2
Flags: W
LayerCount: 2
Fore
SplineSet
612 979 m 0,0,1
 683 979 683 979 741.5 963 c 128,-1,2
 800 947 800 947 843 920 c 1,3,4
 804 1009 804 1009 751.5 1088.5 c 128,-1,5
 699 1168 699 1168 623 1237 c 1,6,-1
 363 1122 l 1,7,-1
 308 1232 l 1,8,-1
 526 1326 l 1,9,10
 470 1371 470 1371 410 1410 c 128,-1,11
 350 1449 350 1449 284 1484 c 1,12,-1
 493 1484 l 1,13,14
 538 1464 538 1464 579.5 1438.5 c 128,-1,15
 621 1413 621 1413 663 1382 c 1,16,-1
 927 1496 l 1,17,-1
 982 1388 l 1,18,-1
 771 1296 l 1,19,20
 935 1147 935 1147 1018.5 953.5 c 128,-1,21
 1102 760 1102 760 1102 516 c 2,22,-1
 1102 510 l 2,23,24
 1102 389 1102 389 1073.5 291 c 128,-1,25
 1045 193 1045 193 985 124 c 128,-1,26
 925 55 925 55 831 17.5 c 128,-1,27
 737 -20 737 -20 605 -20 c 0,28,29
 480 -20 480 -20 389.5 16.5 c 128,-1,30
 299 53 299 53 240 119 c 128,-1,31
 181 185 181 185 153 277.5 c 128,-1,32
 125 370 125 370 125 481 c 0,33,34
 125 588 125 588 151 679 c 128,-1,35
 177 770 177 770 235 837 c 128,-1,36
 293 904 293 904 386 941.5 c 128,-1,37
 479 979 479 979 612 979 c 0,0,1
913 481 m 0,38,39
 913 575 913 575 896.5 643.5 c 128,-1,40
 880 712 880 712 844.5 757 c 128,-1,41
 809 802 809 802 752.5 824 c 128,-1,42
 696 846 696 846 616 846 c 0,43,44
 535 846 535 846 477.5 823.5 c 128,-1,45
 420 801 420 801 383.5 755 c 128,-1,46
 347 709 347 709 330.5 641 c 128,-1,47
 314 573 314 573 314 481 c 0,48,49
 314 291 314 291 386 202 c 128,-1,50
 458 113 458 113 603 113 c 0,51,52
 684 113 684 113 743 135 c 128,-1,53
 802 157 802 157 839.5 202 c 128,-1,54
 877 247 877 247 895 316.5 c 128,-1,55
 913 386 913 386 913 481 c 0,38,39
EndSplineSet
EndChar

StartChar: divide
Encoding: 247 247 183
Width: 1229
GlyphClass: 2
Flags: W
LayerCount: 2
Fore
SplineSet
529 958 m 1,0,-1
 529 1141 l 1,1,-1
 697 1141 l 1,2,-1
 697 958 l 1,3,-1
 529 958 l 1,0,-1
116 608 m 1,4,-1
 116 754 l 1,5,-1
 1111 754 l 1,6,-1
 1111 608 l 1,7,-1
 116 608 l 1,4,-1
529 223 m 1,8,-1
 529 406 l 1,9,-1
 697 406 l 1,10,-1
 697 223 l 1,11,-1
 529 223 l 1,8,-1
EndSplineSet
EndChar

StartChar: oslash
Encoding: 248 248 184
Width: 1229
GlyphClass: 2
Flags: W
LayerCount: 2
Fore
SplineSet
1117 542 m 0,0,1
 1117 400 1117 400 1082 294.5 c 128,-1,2
 1047 189 1047 189 981.5 119 c 128,-1,3
 916 49 916 49 822 14.5 c 128,-1,4
 728 -20 728 -20 609 -20 c 0,5,6
 508 -20 508 -20 425 6.5 c 128,-1,7
 342 33 342 33 278 87 c 1,8,-1
 201 0 l 1,9,-1
 125 68 l 1,10,-1
 209 163 l 1,11,12
 161 232 161 232 135.5 326 c 128,-1,13
 110 420 110 420 110 542 c 0,14,15
 110 682 110 682 143.5 786.5 c 128,-1,16
 177 891 177 891 241.5 961.5 c 128,-1,17
 306 1032 306 1032 400 1067 c 128,-1,18
 494 1102 494 1102 615 1102 c 0,19,20
 828 1102 828 1102 950 1002 c 1,21,-1
 1022 1084 l 1,22,-1
 1100 1016 l 1,23,-1
 1020 926 l 1,24,25
 1117 789 1117 789 1117 542 c 0,0,1
928 542 m 0,26,27
 928 618 928 618 919.5 678 c 128,-1,28
 911 738 911 738 895 784 c 1,29,-1
 386 208 l 1,30,31
 429 155 429 155 486 134 c 128,-1,32
 543 113 543 113 607 113 c 0,33,34
 676 113 676 113 735 132.5 c 128,-1,35
 794 152 794 152 837 201 c 128,-1,36
 880 250 880 250 904 333 c 128,-1,37
 928 416 928 416 928 542 c 0,26,27
299 542 m 0,38,39
 299 467 299 467 307.5 408.5 c 128,-1,40
 316 350 316 350 333 304 c 1,41,-1
 842 880 l 1,42,43
 800 930 800 930 743.5 949.5 c 128,-1,44
 687 969 687 969 618 969 c 256,45,46
 549 969 549 969 490.5 948.5 c 128,-1,47
 432 928 432 928 389.5 878.5 c 128,-1,48
 347 829 347 829 323 747 c 128,-1,49
 299 665 299 665 299 542 c 0,38,39
EndSplineSet
EndChar

StartChar: thorn
Encoding: 254 254 190
Width: 1229
GlyphClass: 2
Flags: W
LayerCount: 2
Fore
SplineSet
904 546 m 0,0,1
 904 646 904 646 892 724 c 128,-1,2
 880 802 880 802 850.5 855.5 c 128,-1,3
 821 909 821 909 772.5 937 c 128,-1,4
 724 965 724 965 651 965 c 0,5,6
 592 965 592 965 540 946.5 c 128,-1,7
 488 928 488 928 449.5 879.5 c 128,-1,8
 411 831 411 831 388.5 745 c 128,-1,9
 366 659 366 659 366 524 c 0,10,11
 366 409 366 409 384.5 330.5 c 128,-1,12
 403 252 403 252 439 203.5 c 128,-1,13
 475 155 475 155 528 134 c 128,-1,14
 581 113 581 113 649 113 c 0,15,16
 722 113 722 113 771 141.5 c 128,-1,17
 820 170 820 170 849.5 225 c 128,-1,18
 879 280 879 280 891.5 361 c 128,-1,19
 904 442 904 442 904 546 c 0,0,1
368 904 m 1,20,21
 393 956 393 956 424.5 994 c 128,-1,22
 456 1032 456 1032 496 1056.5 c 128,-1,23
 536 1081 536 1081 586 1092.5 c 128,-1,24
 636 1104 636 1104 698 1104 c 0,25,26
 808 1104 808 1104 883 1064 c 128,-1,27
 958 1024 958 1024 1004 950.5 c 128,-1,28
 1050 877 1050 877 1070 774 c 128,-1,29
 1090 671 1090 671 1090 546 c 0,30,31
 1090 423 1090 423 1070 319 c 128,-1,32
 1050 215 1050 215 1004 140 c 128,-1,33
 958 65 958 65 883 22.5 c 128,-1,34
 808 -20 808 -20 698 -20 c 0,35,36
 643 -20 643 -20 593 -10 c 128,-1,37
 543 0 543 0 500 22 c 128,-1,38
 457 44 457 44 423.5 79 c 128,-1,39
 390 114 390 114 367 164 c 1,40,-1
 362 164 l 2,41,42
 363 162 363 162 363.5 146.5 c 128,-1,43
 364 131 364 131 364.5 108 c 128,-1,44
 365 85 365 85 365.5 56 c 128,-1,45
 366 27 366 27 366 -2 c 2,46,-1
 366 -425 l 1,47,-1
 185 -425 l 1,48,-1
 185 1484 l 1,49,-1
 365 1484 l 1,50,-1
 365 1061 l 2,51,52
 365 1032 365 1032 364.5 1003.5 c 128,-1,53
 364 975 364 975 363 953 c 0,54,55
 362 927 362 927 361 904 c 1,56,-1
 368 904 l 1,20,21
EndSplineSet
EndChar

StartChar: dcaron
Encoding: 271 271 207
Width: 1229
GlyphClass: 2
Flags: W
LayerCount: 2
Fore
SplineSet
663 174 m 1,0,1
 614 69 614 69 547.5 21.5 c 128,-1,2
 481 -26 481 -26 384 -26 c 0,3,4
 304 -26 304 -26 238.5 8.5 c 128,-1,5
 173 43 173 43 127 113 c 128,-1,6
 81 183 81 183 56 287.5 c 128,-1,7
 31 392 31 392 31 532 c 0,8,9
 31 674 31 674 57 780.5 c 128,-1,10
 83 887 83 887 130 957.5 c 128,-1,11
 177 1028 177 1028 241.5 1063 c 128,-1,12
 306 1098 306 1098 384 1098 c 0,13,14
 482 1098 482 1098 548 1055 c 128,-1,15
 614 1012 614 1012 663 914 c 1,16,-1
 665 914 l 1,17,18
 665 919 665 919 664.5 940 c 128,-1,19
 664 961 664 961 664 986 c 128,-1,20
 664 1011 664 1011 663.5 1033.5 c 128,-1,21
 663 1056 663 1056 663 1065 c 2,22,-1
 663 1484 l 1,23,-1
 843 1484 l 1,24,-1
 843 223 l 2,25,26
 843 184 843 184 843.5 148 c 128,-1,27
 844 112 844 112 845 82 c 128,-1,28
 846 52 846 52 847 30.5 c 128,-1,29
 848 9 848 9 849 0 c 1,30,-1
 677 0 l 1,31,32
 676 4 676 4 674 22 c 128,-1,33
 672 40 672 40 670.5 65 c 128,-1,34
 669 90 669 90 668 119 c 128,-1,35
 667 148 667 148 667 174 c 1,36,-1
 663 174 l 1,0,1
217 538 m 0,37,38
 217 426 217 426 229 346 c 128,-1,39
 241 266 241 266 265 214 c 128,-1,40
 289 162 289 162 326.5 137.5 c 128,-1,41
 364 113 364 113 415 113 c 0,42,43
 464 113 464 113 508.5 139.5 c 128,-1,44
 553 166 553 166 587.5 221 c 128,-1,45
 622 276 622 276 642.5 359 c 128,-1,46
 663 442 663 442 663 554 c 0,47,48
 663 662 663 662 642.5 739.5 c 128,-1,49
 622 817 622 817 588 867.5 c 128,-1,50
 554 918 554 918 509 941.5 c 128,-1,51
 464 965 464 965 416 965 c 256,52,53
 368 965 368 965 331 942 c 128,-1,54
 294 919 294 919 268.5 868 c 128,-1,55
 243 817 243 817 230 735.5 c 128,-1,56
 217 654 217 654 217 538 c 0,37,38
955 1159 m 1,57,-1
 955 1192 l 1,58,-1
 1034 1484 l 1,59,-1
 1231 1484 l 1,60,-1
 1231 1447 l 1,61,-1
 1060 1159 l 1,62,-1
 955 1159 l 1,57,-1
EndSplineSet
EndChar

StartChar: dcroat
Encoding: 273 273 209
Width: 1229
GlyphClass: 2
Flags: W
LayerCount: 2
Fore
SplineSet
1043 1196 m 1,0,-1
 1043 223 l 2,1,2
 1043 184 1043 184 1043.5 148 c 128,-1,3
 1044 112 1044 112 1045 82 c 128,-1,4
 1046 52 1046 52 1047 30.5 c 128,-1,5
 1048 9 1048 9 1049 0 c 1,6,-1
 877 0 l 1,7,8
 876 4 876 4 874 22 c 128,-1,9
 872 40 872 40 870.5 65 c 128,-1,10
 869 90 869 90 868 119 c 128,-1,11
 867 148 867 148 867 174 c 1,12,-1
 862 174 l 1,13,14
 813 69 813 69 732 21.5 c 128,-1,15
 651 -26 651 -26 530 -26 c 0,16,17
 328 -26 328 -26 233 109.5 c 128,-1,18
 138 245 138 245 138 517 c 0,19,20
 138 1072 138 1072 530 1072 c 0,21,22
 651 1072 651 1072 732.5 1029 c 128,-1,23
 814 986 814 986 863 888 c 1,24,-1
 865 888 l 1,25,26
 865 893 865 893 864.5 914 c 128,-1,27
 864 935 864 935 864 960 c 128,-1,28
 864 985 864 985 863.5 1007.5 c 128,-1,29
 863 1030 863 1030 863 1039 c 2,30,-1
 863 1196 l 1,31,-1
 563 1196 l 1,32,-1
 563 1327 l 1,33,-1
 863 1327 l 1,34,-1
 863 1484 l 1,35,-1
 1043 1484 l 1,36,-1
 1043 1327 l 1,37,-1
 1174 1327 l 1,38,-1
 1174 1196 l 1,39,-1
 1043 1196 l 1,0,-1
324 523 m 0,40,41
 324 415 324 415 338.5 337.5 c 128,-1,42
 353 260 353 260 383.5 210 c 128,-1,43
 414 160 414 160 462 136.5 c 128,-1,44
 510 113 510 113 577 113 c 0,45,46
 646 113 646 113 699.5 136 c 128,-1,47
 753 159 753 159 789.5 210 c 128,-1,48
 826 261 826 261 844.5 342 c 128,-1,49
 863 423 863 423 863 538 c 0,50,51
 863 650 863 650 844.5 726.5 c 128,-1,52
 826 803 826 803 790 850.5 c 128,-1,53
 754 898 754 898 701 918.5 c 128,-1,54
 648 939 648 939 579 939 c 0,55,56
 515 939 515 939 467 916 c 128,-1,57
 419 893 419 893 387.5 843 c 128,-1,58
 356 793 356 793 340 714 c 128,-1,59
 324 635 324 635 324 523 c 0,40,41
EndSplineSet
EndChar

StartChar: hcircumflex
Encoding: 293 293 229
Width: 1229
GlyphClass: 2
Flags: W
LayerCount: 2
Fore
SplineSet
185 1349 m 1,0,-1
 366 1349 l 1,1,-1
 366 1034 l 2,2,3
 366 984 366 984 363 933.5 c 128,-1,4
 360 883 360 883 357 837 c 1,5,-1
 360 837 l 1,6,7
 384 884 384 884 416 922 c 128,-1,8
 448 960 448 960 489 986.5 c 128,-1,9
 530 1013 530 1013 582.5 1027.5 c 128,-1,10
 635 1042 635 1042 699 1042 c 0,11,12
 782 1042 782 1042 847 1020 c 128,-1,13
 912 998 912 998 957 952 c 128,-1,14
 1002 906 1002 906 1025.5 834 c 128,-1,15
 1049 762 1049 762 1049 661 c 2,16,-1
 1049 0 l 1,17,-1
 868 0 l 1,18,-1
 868 635 l 2,19,20
 868 715 868 715 851.5 766.5 c 128,-1,21
 835 818 835 818 805.5 848.5 c 128,-1,22
 776 879 776 879 736 891 c 128,-1,23
 696 903 696 903 648 903 c 0,24,25
 589 903 589 903 537.5 880.5 c 128,-1,26
 486 858 486 858 447.5 815.5 c 128,-1,27
 409 773 409 773 387 710.5 c 128,-1,28
 365 648 365 648 365 567 c 2,29,-1
 365 0 l 1,30,-1
 185 0 l 1,31,-1
 185 1349 l 1,0,-1
945 1465 m 1,32,-1
 945 1445 l 1,33,-1
 840 1445 l 1,34,-1
 621 1584 l 1,35,-1
 619 1584 l 1,36,-1
 387 1445 l 1,37,-1
 283 1445 l 1,38,-1
 283 1465 l 1,39,-1
 537 1705 l 1,40,-1
 701 1705 l 1,41,-1
 945 1465 l 1,32,-1
EndSplineSet
EndChar

StartChar: Hbar
Encoding: 294 294 230
Width: 1229
GlyphClass: 2
Flags: W
LayerCount: 2
Fore
SplineSet
162 1153 m 1,0,-1
 162 1349 l 1,1,-1
 353 1349 l 1,2,-1
 353 1153 l 1,3,-1
 875 1153 l 1,4,-1
 875 1349 l 1,5,-1
 1066 1349 l 1,6,-1
 1066 1153 l 1,7,-1
 1226 1153 l 1,8,-1
 1226 1005 l 1,9,-1
 1066 1005 l 1,10,-1
 1066 0 l 1,11,-1
 875 0 l 1,12,-1
 875 623 l 1,13,-1
 353 623 l 1,14,-1
 353 0 l 1,15,-1
 162 0 l 1,16,-1
 162 1005 l 1,17,-1
 2 1005 l 1,18,-1
 2 1153 l 1,19,-1
 162 1153 l 1,0,-1
875 783 m 1,20,-1
 875 1005 l 1,21,-1
 353 1005 l 1,22,-1
 353 783 l 1,23,-1
 875 783 l 1,20,-1
EndSplineSet
EndChar

StartChar: hbar
Encoding: 295 295 231
Width: 1229
GlyphClass: 2
Flags: W
LayerCount: 2
Fore
SplineSet
185 1484 m 1,0,-1
 366 1484 l 1,1,-1
 366 1327 l 1,2,-1
 665 1327 l 1,3,-1
 665 1196 l 1,4,-1
 366 1196 l 1,5,-1
 366 1064 l 2,6,7
 366 1014 366 1014 363 963.5 c 128,-1,8
 360 913 360 913 357 867 c 1,9,-1
 360 867 l 1,10,11
 384 914 384 914 416 952 c 128,-1,12
 448 990 448 990 489 1016.5 c 128,-1,13
 530 1043 530 1043 582.5 1057.5 c 128,-1,14
 635 1072 635 1072 699 1072 c 0,15,16
 782 1072 782 1072 847 1050 c 128,-1,17
 912 1028 912 1028 957 982 c 128,-1,18
 1002 936 1002 936 1025.5 864 c 128,-1,19
 1049 792 1049 792 1049 691 c 2,20,-1
 1049 0 l 1,21,-1
 868 0 l 1,22,-1
 868 665 l 2,23,24
 868 745 868 745 851.5 796.5 c 128,-1,25
 835 848 835 848 805.5 878.5 c 128,-1,26
 776 909 776 909 736 921 c 128,-1,27
 696 933 696 933 648 933 c 0,28,29
 589 933 589 933 537.5 910.5 c 128,-1,30
 486 888 486 888 447.5 845.5 c 128,-1,31
 409 803 409 803 387 740.5 c 128,-1,32
 365 678 365 678 365 597 c 2,33,-1
 365 0 l 1,34,-1
 185 0 l 1,35,-1
 185 1196 l 1,36,-1
 53 1196 l 1,37,-1
 53 1327 l 1,38,-1
 185 1327 l 1,39,-1
 185 1484 l 1,0,-1
EndSplineSet
EndChar

StartChar: dotlessi
Encoding: 305 305 241
Width: 1229
GlyphClass: 2
Flags: W
LayerCount: 2
Fore
SplineSet
745 142 m 1,0,-1
 1125 142 l 1,1,-1
 1125 0 l 1,2,-1
 143 0 l 1,3,-1
 143 142 l 1,4,-1
 565 142 l 1,5,-1
 565 940 l 1,6,-1
 246 940 l 1,7,-1
 246 1082 l 1,8,-1
 745 1082 l 1,9,-1
 745 142 l 1,0,-1
EndSplineSet
EndChar

StartChar: IJ
Encoding: 306 306 242
Width: 1229
GlyphClass: 2
Flags: W
LayerCount: 2
Fore
SplineSet
98 1349 m 1,0,-1
 289 1349 l 1,1,-1
 289 0 l 1,2,-1
 98 0 l 1,3,-1
 98 1349 l 1,0,-1
768 135 m 0,4,5
 872 135 872 135 919.5 206.5 c 128,-1,6
 967 278 967 278 967 416 c 2,7,-1
 967 1193 l 1,8,-1
 696 1193 l 1,9,-1
 696 1349 l 1,10,-1
 1157 1349 l 1,11,-1
 1157 420 l 2,12,13
 1157 320 1157 320 1133 238.5 c 128,-1,14
 1109 157 1109 157 1060.5 99.5 c 128,-1,15
 1012 42 1012 42 938.5 11 c 128,-1,16
 865 -20 865 -20 767 -20 c 0,17,18
 682 -20 682 -20 616.5 2 c 128,-1,19
 551 24 551 24 504 69 c 128,-1,20
 457 114 457 114 426 184 c 128,-1,21
 395 254 395 254 377 350 c 1,22,-1
 563 381 l 1,23,24
 583 252 583 252 634.5 193.5 c 128,-1,25
 686 135 686 135 768 135 c 0,4,5
EndSplineSet
EndChar

StartChar: ij
Encoding: 307 307 243
Width: 1229
GlyphClass: 2
Flags: W
LayerCount: 2
Fore
SplineSet
237 1082 m 1,0,-1
 416 1082 l 1,1,-1
 416 0 l 1,2,-1
 236 0 l 1,3,-1
 237 1082 l 1,0,-1
216 1292 m 1,4,-1
 216 1484 l 1,5,-1
 416 1484 l 1,6,-1
 416 1292 l 1,7,-1
 216 1292 l 1,4,-1
881 1082 m 1,8,-1
 1061 1082 l 1,9,-1
 1061 -28 l 2,10,11
 1061 -137 1061 -137 1025.5 -212.5 c 128,-1,12
 990 -288 990 -288 931 -335.5 c 128,-1,13
 872 -383 872 -383 794 -404 c 128,-1,14
 716 -425 716 -425 630 -425 c 0,15,16
 589 -425 589 -425 548 -421.5 c 128,-1,17
 507 -418 507 -418 469 -412 c 128,-1,18
 431 -406 431 -406 398.5 -398.5 c 128,-1,19
 366 -391 366 -391 342 -382 c 1,20,-1
 342 -242 l 1,21,22
 364 -247 364 -247 394 -253 c 128,-1,23
 424 -259 424 -259 460 -264 c 128,-1,24
 496 -269 496 -269 535.5 -272.5 c 128,-1,25
 575 -276 575 -276 615 -276 c 0,26,27
 671 -276 671 -276 719.5 -262 c 128,-1,28
 768 -248 768 -248 804 -217.5 c 128,-1,29
 840 -187 840 -187 860.5 -139.5 c 128,-1,30
 881 -92 881 -92 881 -25 c 2,31,-1
 881 1082 l 1,8,-1
861 1292 m 1,32,-1
 861 1484 l 1,33,-1
 1061 1484 l 1,34,-1
 1061 1292 l 1,35,-1
 861 1292 l 1,32,-1
EndSplineSet
EndChar

StartChar: kgreenlandic
Encoding: 312 312 248
Width: 1229
GlyphClass: 2
Flags: W
LayerCount: 2
Fore
SplineSet
914 0 m 1,0,-1
 548 494 l 1,1,-1
 416 396 l 1,2,-1
 416 0 l 1,3,-1
 236 0 l 1,4,-1
 236 1082 l 1,5,-1
 416 1082 l 1,6,-1
 416 544 l 1,7,-1
 891 1082 l 1,8,-1
 1102 1082 l 1,9,-1
 663 617 l 1,10,-1
 1125 0 l 1,11,-1
 914 0 l 1,0,-1
EndSplineSet
EndChar

StartChar: lacute
Encoding: 314 314 250
Width: 1229
GlyphClass: 2
Flags: W
LayerCount: 2
Fore
SplineSet
736 142 m 1,0,-1
 1116 142 l 1,1,-1
 1116 0 l 1,2,-1
 134 0 l 1,3,-1
 134 142 l 1,4,-1
 556 142 l 1,5,-1
 556 1207 l 1,6,-1
 267 1207 l 1,7,-1
 267 1349 l 1,8,-1
 736 1349 l 1,9,-1
 736 142 l 1,0,-1
531 1445 m 1,10,-1
 531 1465 l 1,11,-1
 758 1705 l 1,12,-1
 955 1705 l 1,13,-1
 955 1676 l 1,14,-1
 655 1445 l 1,15,-1
 531 1445 l 1,10,-1
EndSplineSet
EndChar

StartChar: Lslash
Encoding: 321 321 257
Width: 1229
GlyphClass: 2
Flags: W
LayerCount: 2
Fore
SplineSet
237 0 m 1,0,-1
 237 458 l 1,1,-1
 120 397 l 1,2,-1
 54 518 l 1,3,-1
 237 614 l 1,4,-1
 237 1349 l 1,5,-1
 428 1349 l 1,6,-1
 428 713 l 1,7,-1
 720 864 l 1,8,-1
 781 743 l 1,9,-1
 428 558 l 1,10,-1
 428 156 l 1,11,-1
 1100 156 l 1,12,-1
 1100 0 l 1,13,-1
 237 0 l 1,0,-1
EndSplineSet
EndChar

StartChar: lslash
Encoding: 322 322 258
Width: 1229
GlyphClass: 2
Flags: W
LayerCount: 2
Fore
SplineSet
736 884 m 1,0,-1
 961 1013 l 1,1,-1
 1023 900 l 1,2,-1
 736 736 l 1,3,-1
 736 142 l 1,4,-1
 1116 142 l 1,5,-1
 1116 0 l 1,6,-1
 134 0 l 1,7,-1
 134 142 l 1,8,-1
 556 142 l 1,9,-1
 556 635 l 1,10,-1
 338 512 l 1,11,-1
 274 624 l 1,12,-1
 556 783 l 1,13,-1
 556 1342 l 1,14,-1
 217 1342 l 1,15,-1
 217 1484 l 1,16,-1
 736 1484 l 1,17,-1
 736 884 l 1,0,-1
EndSplineSet
EndChar

StartChar: Eng
Encoding: 330 330 266
Width: 1229
GlyphClass: 2
Flags: W
LayerCount: 2
Fore
SplineSet
1109 542 m 2,0,1
 1109 412 1109 412 1093.5 308 c 128,-1,2
 1078 204 1078 204 1039.5 131 c 128,-1,3
 1001 58 1001 58 935.5 19 c 128,-1,4
 870 -20 870 -20 770 -20 c 0,5,6
 708 -20 708 -20 663.5 -7.5 c 128,-1,7
 619 5 619 5 586.5 26 c 128,-1,8
 554 47 554 47 530 74.5 c 128,-1,9
 506 102 506 102 485 132 c 1,10,-1
 616 232 l 1,11,12
 631 211 631 211 646 193 c 128,-1,13
 661 175 661 175 679.5 161.5 c 128,-1,14
 698 148 698 148 721 140.5 c 128,-1,15
 744 133 744 133 775 133 c 0,16,17
 821 133 821 133 850.5 162 c 128,-1,18
 880 191 880 191 897.5 244.5 c 128,-1,19
 915 298 915 298 921.5 374.5 c 128,-1,20
 928 451 928 451 928 546 c 2,21,-1
 928 963 l 2,22,23
 928 1043 928 1043 910 1094.5 c 128,-1,24
 892 1146 892 1146 859.5 1176.5 c 128,-1,25
 827 1207 827 1207 783 1219 c 128,-1,26
 739 1231 739 1231 688 1231 c 0,27,28
 622 1231 622 1231 563 1208.5 c 128,-1,29
 504 1186 504 1186 460 1143.5 c 128,-1,30
 416 1101 416 1101 390.5 1038.5 c 128,-1,31
 365 976 365 976 365 895 c 2,32,-1
 365 0 l 1,33,-1
 185 0 l 1,34,-1
 185 1119 l 2,35,36
 185 1153 185 1153 184.5 1190.5 c 128,-1,37
 184 1228 184 1228 183 1261.5 c 128,-1,38
 182 1295 182 1295 181 1319 c 128,-1,39
 180 1343 180 1343 179 1350 c 1,40,-1
 349 1350 l 1,41,42
 350 1345 350 1345 351 1323 c 128,-1,43
 352 1301 352 1301 353.5 1272.5 c 128,-1,44
 355 1244 355 1244 356 1214.5 c 128,-1,45
 357 1185 357 1185 357 1165 c 1,46,-1
 360 1165 l 1,47,48
 409 1260 409 1260 504 1315 c 128,-1,49
 599 1370 599 1370 746 1370 c 0,50,51
 833 1370 833 1370 900.5 1348 c 128,-1,52
 968 1326 968 1326 1014.5 1280 c 128,-1,53
 1061 1234 1061 1234 1085 1162 c 128,-1,54
 1109 1090 1109 1090 1109 989 c 2,55,-1
 1109 542 l 2,0,1
EndSplineSet
EndChar

StartChar: eng
Encoding: 331 331 267
Width: 1229
GlyphClass: 2
Flags: W
LayerCount: 2
Fore
SplineSet
648 963 m 0,0,1
 589 963 589 963 537.5 940.5 c 128,-1,2
 486 918 486 918 447.5 875.5 c 128,-1,3
 409 833 409 833 387 770.5 c 128,-1,4
 365 708 365 708 365 627 c 2,5,-1
 365 0 l 1,6,-1
 185 0 l 1,7,-1
 185 851 l 2,8,9
 185 885 185 885 184.5 922.5 c 128,-1,10
 184 960 184 960 183 993.5 c 128,-1,11
 182 1027 182 1027 181 1051 c 128,-1,12
 180 1075 180 1075 179 1082 c 1,13,-1
 349 1082 l 1,14,15
 350 1077 350 1077 351 1055 c 128,-1,16
 352 1033 352 1033 353.5 1004.5 c 128,-1,17
 355 976 355 976 356 946.5 c 128,-1,18
 357 917 357 917 357 897 c 1,19,-1
 360 897 l 1,20,21
 384 944 384 944 416.5 982 c 128,-1,22
 449 1020 449 1020 491.5 1046.5 c 128,-1,23
 534 1073 534 1073 587 1087.5 c 128,-1,24
 640 1102 640 1102 706 1102 c 0,25,26
 789 1102 789 1102 853 1080 c 128,-1,27
 917 1058 917 1058 960.5 1012 c 128,-1,28
 1004 966 1004 966 1026.5 894 c 128,-1,29
 1049 822 1049 822 1049 721 c 2,30,-1
 1049 -134 l 2,31,32
 1049 -196 1049 -196 1038 -249 c 128,-1,33
 1027 -302 1027 -302 1000 -341 c 128,-1,34
 973 -380 973 -380 926.5 -402.5 c 128,-1,35
 880 -425 880 -425 808 -425 c 0,36,37
 774 -425 774 -425 741.5 -423 c 128,-1,38
 709 -421 709 -421 681 -416 c 1,39,-1
 681 -277 l 1,40,41
 694 -279 694 -279 712 -281 c 128,-1,42
 730 -283 730 -283 743 -283 c 0,43,44
 781 -283 781 -283 805.5 -273 c 128,-1,45
 830 -263 830 -263 844 -241.5 c 128,-1,46
 858 -220 858 -220 863 -186.5 c 128,-1,47
 868 -153 868 -153 868 -107 c 2,48,-1
 868 695 l 2,49,50
 868 775 868 775 851.5 826.5 c 128,-1,51
 835 878 835 878 805.5 908.5 c 128,-1,52
 776 939 776 939 736 951 c 128,-1,53
 696 963 696 963 648 963 c 0,0,1
EndSplineSet
EndChar

StartChar: OE
Encoding: 338 338 274
Width: 1229
GlyphClass: 2
Flags: W
LayerCount: 2
Fore
SplineSet
609 0 m 2,0,1
 586 -2 586 -2 561.5 -3.5 c 128,-1,2
 537 -5 537 -5 511 -5 c 0,3,4
 256 -5 256 -5 138 164 c 128,-1,5
 20 333 20 333 20 681 c 0,6,7
 20 861 20 861 50.5 989 c 128,-1,8
 81 1117 81 1117 142.5 1198 c 128,-1,9
 204 1279 204 1279 296.5 1317 c 128,-1,10
 389 1355 389 1355 513 1355 c 0,11,12
 571 1355 571 1355 622 1349 c 1,13,-1
 1180 1349 l 1,14,-1
 1180 1197 l 1,15,-1
 782 1197 l 1,16,-1
 782 757 l 1,17,-1
 1149 757 l 1,18,-1
 1149 607 l 1,19,-1
 782 607 l 1,20,-1
 782 152 l 1,21,-1
 1221 152 l 1,22,-1
 1221 0 l 1,23,-1
 609 0 l 2,0,1
512 140 m 0,24,25
 534 140 534 140 563.5 141 c 128,-1,26
 593 142 593 142 612 146 c 1,27,-1
 612 1203 l 1,28,29
 593 1206 593 1206 563.5 1207.5 c 128,-1,30
 534 1209 534 1209 513 1209 c 0,31,32
 435 1209 435 1209 376.5 1180 c 128,-1,33
 318 1151 318 1151 279 1087.5 c 128,-1,34
 240 1024 240 1024 220.5 924 c 128,-1,35
 201 824 201 824 201 681 c 0,36,37
 201 539 201 539 221 437 c 128,-1,38
 241 335 241 335 280.5 269 c 128,-1,39
 320 203 320 203 378 171.5 c 128,-1,40
 436 140 436 140 512 140 c 0,24,25
EndSplineSet
EndChar

StartChar: oe
Encoding: 339 339 275
Width: 1229
GlyphClass: 2
Flags: W
LayerCount: 2
Fore
SplineSet
712 503 m 1,0,1
 712 418 712 418 721.5 346.5 c 128,-1,2
 731 275 731 275 751.5 223.5 c 128,-1,3
 772 172 772 172 804 143.5 c 128,-1,4
 836 115 836 115 880 115 c 0,5,6
 945 115 945 115 984 162 c 128,-1,7
 1023 209 1023 209 1037 281 c 1,8,-1
 1175 236 l 1,9,10
 1164 191 1164 191 1144 145.5 c 128,-1,11
 1124 100 1124 100 1090 63.5 c 128,-1,12
 1056 27 1056 27 1005 3.5 c 128,-1,13
 954 -20 954 -20 882 -20 c 0,14,15
 700 -20 700 -20 619 163 c 1,16,17
 577 70 577 70 510.5 25 c 128,-1,18
 444 -20 444 -20 353 -20 c 0,19,20
 278 -20 278 -20 218 14 c 128,-1,21
 158 48 158 48 115.5 118 c 128,-1,22
 73 188 73 188 50.5 293.5 c 128,-1,23
 28 399 28 399 28 542 c 0,24,25
 28 821 28 821 113 961.5 c 128,-1,26
 198 1102 198 1102 360 1102 c 0,27,28
 547 1102 547 1102 626 925 c 1,29,30
 671 1019 671 1019 737.5 1060.5 c 128,-1,31
 804 1102 804 1102 885 1102 c 0,32,33
 976 1102 976 1102 1037.5 1058 c 128,-1,34
 1099 1014 1099 1014 1136 936.5 c 128,-1,35
 1173 859 1173 859 1188.5 754 c 128,-1,36
 1204 649 1204 649 1204 527 c 2,37,-1
 1204 503 l 1,38,-1
 712 503 l 1,0,1
543 542 m 256,39,40
 543 668 543 668 531 750 c 128,-1,41
 519 832 519 832 497 881 c 128,-1,42
 475 930 475 930 443.5 949.5 c 128,-1,43
 412 969 412 969 373 969 c 256,44,45
 334 969 334 969 301.5 948.5 c 128,-1,46
 269 928 269 928 245.5 878.5 c 128,-1,47
 222 829 222 829 209.5 747 c 128,-1,48
 197 665 197 665 197 542 c 0,49,50
 197 416 197 416 210.5 333.5 c 128,-1,51
 224 251 224 251 247 202 c 128,-1,52
 270 153 270 153 301 133 c 128,-1,53
 332 113 332 113 367 113 c 0,54,55
 407 113 407 113 439.5 132.5 c 128,-1,56
 472 152 472 152 495 201 c 128,-1,57
 518 250 518 250 530.5 333 c 128,-1,58
 543 416 543 416 543 542 c 256,39,40
875 969 m 0,59,60
 850 969 850 969 822.5 954.5 c 128,-1,61
 795 940 795 940 771.5 903 c 128,-1,62
 748 866 748 866 732 802.5 c 128,-1,63
 716 739 716 739 714 641 c 1,64,-1
 1038 641 l 1,65,66
 1030 812 1030 812 990 890.5 c 128,-1,67
 950 969 950 969 875 969 c 0,59,60
EndSplineSet
EndChar

StartChar: Tbar
Encoding: 358 358 294
Width: 1229
GlyphClass: 2
Flags: W
LayerCount: 2
Fore
SplineSet
709 1193 m 1,0,-1
 709 769 l 1,1,-1
 949 769 l 1,2,-1
 949 620 l 1,3,-1
 709 620 l 1,4,-1
 709 0 l 1,5,-1
 519 0 l 1,6,-1
 519 620 l 1,7,-1
 279 620 l 1,8,-1
 279 769 l 1,9,-1
 519 769 l 1,10,-1
 519 1193 l 1,11,-1
 76 1193 l 1,12,-1
 76 1349 l 1,13,-1
 1152 1349 l 1,14,-1
 1152 1193 l 1,15,-1
 709 1193 l 1,0,-1
EndSplineSet
EndChar

StartChar: tbar
Encoding: 359 359 295
Width: 1229
GlyphClass: 2
Flags: W
LayerCount: 2
Fore
SplineSet
980 647 m 1,0,-1
 980 515 l 1,1,-1
 548 515 l 1,2,-1
 548 288 l 2,3,4
 548 209 548 209 590.5 171 c 128,-1,5
 633 133 633 133 730 133 c 0,6,7
 770 133 770 133 812.5 136.5 c 128,-1,8
 855 140 855 140 894.5 145 c 128,-1,9
 934 150 934 150 968.5 156 c 128,-1,10
 1003 162 1003 162 1027 167 c 1,11,-1
 1027 30 l 1,12,13
 1005 24 1005 24 970 16 c 128,-1,14
 935 8 935 8 891.5 1 c 128,-1,15
 848 -6 848 -6 797 -11 c 128,-1,16
 746 -16 746 -16 692 -16 c 0,17,18
 530 -16 530 -16 449 52.5 c 128,-1,19
 368 121 368 121 368 269 c 2,20,-1
 368 515 l 1,21,-1
 200 515 l 1,22,-1
 200 647 l 1,23,-1
 368 647 l 1,24,-1
 368 940 l 1,25,-1
 200 940 l 1,26,-1
 200 1082 l 1,27,-1
 370 1082 l 1,28,-1
 428 1364 l 1,29,-1
 548 1364 l 1,30,-1
 548 1082 l 1,31,-1
 980 1082 l 1,32,-1
 980 940 l 1,33,-1
 548 940 l 1,34,-1
 548 647 l 1,35,-1
 980 647 l 1,0,-1
EndSplineSet
EndChar

StartChar: longs
Encoding: 383 383 319
Width: 1229
GlyphClass: 2
Flags: W
LayerCount: 2
Fore
SplineSet
580 0 m 1,0,-1
 400 0 l 1,1,-1
 400 1107 l 2,2,3
 400 1208 400 1208 422.5 1279.5 c 128,-1,4
 445 1351 445 1351 495 1396.5 c 128,-1,5
 545 1442 545 1442 624.5 1463 c 128,-1,6
 704 1484 704 1484 818 1484 c 0,7,8
 847 1484 847 1484 887 1482.5 c 128,-1,9
 927 1481 927 1481 967 1478 c 128,-1,10
 1007 1475 1007 1475 1042.5 1471 c 128,-1,11
 1078 1467 1078 1467 1099 1463 c 1,12,-1
 1099 1318 l 1,13,14
 1081 1321 1081 1321 1045 1324 c 128,-1,15
 1009 1327 1009 1327 969.5 1329.5 c 128,-1,16
 930 1332 930 1332 894 1333.5 c 128,-1,17
 858 1335 858 1335 839 1335 c 0,18,19
 773 1335 773 1335 724 1325 c 128,-1,20
 675 1315 675 1315 643 1288 c 128,-1,21
 611 1261 611 1261 595.5 1214 c 128,-1,22
 580 1167 580 1167 580 1092 c 2,23,-1
 580 0 l 1,0,-1
EndSplineSet
EndChar

StartChar: florin
Encoding: 402 402 320
Width: 1229
GlyphClass: 2
Flags: W
LayerCount: 2
Fore
SplineSet
909 1369 m 0,0,1
 955 1369 955 1369 998 1361.5 c 128,-1,2
 1041 1354 1041 1354 1069 1346 c 1,3,-1
 1029 1210 l 1,4,5
 1009 1217 1009 1217 971.5 1223 c 128,-1,6
 934 1229 934 1229 899 1229 c 0,7,8
 854 1229 854 1229 823.5 1221 c 128,-1,9
 793 1213 793 1213 772.5 1194.5 c 128,-1,10
 752 1176 752 1176 740 1146 c 128,-1,11
 728 1116 728 1116 719 1073 c 2,12,-1
 692 936 l 1,13,-1
 994 936 l 1,14,-1
 969 805 l 1,15,-1
 666 805 l 1,16,-1
 423 -425 l 1,17,-1
 243 -425 l 1,18,-1
 486 805 l 1,19,-1
 234 805 l 1,20,-1
 261 936 l 1,21,-1
 512 936 l 1,22,-1
 541 1088 l 2,23,24
 555 1147 555 1147 578.5 1198 c 128,-1,25
 602 1249 602 1249 644 1287 c 128,-1,26
 686 1325 686 1325 750 1347 c 128,-1,27
 814 1369 814 1369 909 1369 c 0,0,1
EndSplineSet
EndChar

StartChar: Aringacute
Encoding: 506 506 321
Width: 1229
GlyphClass: 2
Flags: W
LayerCount: 2
Fore
SplineSet
856 1211 m 0,0,1
 856 1163 856 1163 834.5 1121.5 c 128,-1,2
 813 1080 813 1080 769 1051 c 1,3,-1
 1228 0 l 1,4,-1
 1034 0 l 1,5,-1
 896 323 l 1,6,-1
 333 323 l 1,7,-1
 196 0 l 1,8,-1
 0 0 l 1,9,-1
 465 1047 l 1,10,11
 418 1076 418 1076 395 1119 c 128,-1,12
 372 1162 372 1162 372 1211 c 0,13,14
 372 1250 372 1250 387 1286 c 128,-1,15
 402 1322 402 1322 432 1349.5 c 128,-1,16
 462 1377 462 1377 507.5 1393.5 c 128,-1,17
 553 1410 553 1410 614 1410 c 256,18,19
 675 1410 675 1410 720.5 1393.5 c 128,-1,20
 766 1377 766 1377 796 1349.5 c 128,-1,21
 826 1322 826 1322 841 1286 c 128,-1,22
 856 1250 856 1250 856 1211 c 0,0,1
701 811 m 2,23,24
 691 837 691 837 680 865 c 128,-1,25
 669 893 669 893 658.5 920 c 128,-1,26
 648 947 648 947 639.5 970.5 c 128,-1,27
 631 994 631 994 625 1011 c 1,28,-1
 607 1011 l 1,29,30
 601 994 601 994 593 970 c 128,-1,31
 585 946 585 946 575.5 919 c 128,-1,32
 566 892 566 892 556 864 c 128,-1,33
 546 836 546 836 535 811 c 2,34,-1
 395 476 l 1,35,-1
 836 476 l 1,36,-1
 701 811 l 2,23,24
525 1445 m 1,37,-1
 525 1465 l 1,38,-1
 752 1705 l 1,39,-1
 949 1705 l 1,40,-1
 949 1676 l 1,41,-1
 649 1445 l 1,42,-1
 525 1445 l 1,37,-1
735 1211 m 256,43,44
 735 1226 735 1226 728.5 1240.5 c 128,-1,45
 722 1255 722 1255 707.5 1267 c 128,-1,46
 693 1279 693 1279 670 1286.5 c 128,-1,47
 647 1294 647 1294 614 1294 c 256,48,49
 581 1294 581 1294 558 1286.5 c 128,-1,50
 535 1279 535 1279 520 1267 c 128,-1,51
 505 1255 505 1255 498.5 1240.5 c 128,-1,52
 492 1226 492 1226 492 1211 c 256,53,54
 492 1196 492 1196 498.5 1181 c 128,-1,55
 505 1166 505 1166 520 1154 c 128,-1,56
 535 1142 535 1142 558 1134.5 c 128,-1,57
 581 1127 581 1127 614 1127 c 256,58,59
 647 1127 647 1127 670 1134.5 c 128,-1,60
 693 1142 693 1142 707.5 1154 c 128,-1,61
 722 1166 722 1166 728.5 1181 c 128,-1,62
 735 1196 735 1196 735 1211 c 256,43,44
EndSplineSet
EndChar

StartChar: aringacute
Encoding: 507 507 322
Width: 1229
GlyphClass: 2
Flags: W
LayerCount: 2
Fore
SplineSet
846 1256 m 0,0,1
 846 1204 846 1204 820.5 1159 c 128,-1,2
 795 1114 795 1114 742 1086 c 1,3,4
 871 1056 871 1056 935.5 968 c 128,-1,5
 1000 880 1000 880 1000 738 c 2,6,-1
 1000 272 l 2,7,8
 1000 192 1000 192 1021 151.5 c 128,-1,9
 1042 111 1042 111 1101 111 c 0,10,11
 1116 111 1116 111 1131 113 c 128,-1,12
 1146 115 1146 115 1160 118 c 1,13,-1
 1160 6 l 1,14,15
 1126 -2 1126 -2 1092.5 -6 c 128,-1,16
 1059 -10 1059 -10 1021 -10 c 0,17,18
 970 -10 970 -10 933.5 3.5 c 128,-1,19
 897 17 897 17 874 44.5 c 128,-1,20
 851 72 851 72 839 112.5 c 128,-1,21
 827 153 827 153 824 207 c 1,22,-1
 818 207 l 1,23,24
 790 155 790 155 756 113 c 128,-1,25
 722 71 722 71 678 41.5 c 128,-1,26
 634 12 634 12 577 -4 c 128,-1,27
 520 -20 520 -20 446 -20 c 0,28,29
 288 -20 288 -20 208 66 c 128,-1,30
 128 152 128 152 128 302 c 0,31,32
 128 409 128 409 167.5 477.5 c 128,-1,33
 207 546 207 546 271 585 c 128,-1,34
 335 624 335 624 416.5 639.5 c 128,-1,35
 498 655 498 655 582 656 c 2,36,-1
 818 660 l 1,37,-1
 818 719 l 2,38,39
 818 786 818 786 804.5 833 c 128,-1,40
 791 880 791 880 763.5 909 c 128,-1,41
 736 938 736 938 694 951.5 c 128,-1,42
 652 965 652 965 596 965 c 0,43,44
 546 965 546 965 505.5 957.5 c 128,-1,45
 465 950 465 950 436 930.5 c 128,-1,46
 407 911 407 911 388.5 877.5 c 128,-1,47
 370 844 370 844 364 793 c 1,48,-1
 176 810 l 1,49,50
 184 862 184 862 203.5 907.5 c 128,-1,51
 223 953 223 953 257 989 c 128,-1,52
 291 1025 291 1025 340.5 1051 c 128,-1,53
 390 1077 390 1077 459 1090 c 1,54,55
 410 1118 410 1118 386 1162 c 128,-1,56
 362 1206 362 1206 362 1256 c 0,57,58
 362 1295 362 1295 377 1331 c 128,-1,59
 392 1367 392 1367 422 1394.5 c 128,-1,60
 452 1422 452 1422 497.5 1438.5 c 128,-1,61
 543 1455 543 1455 604 1455 c 256,62,63
 665 1455 665 1455 710.5 1438.5 c 128,-1,64
 756 1422 756 1422 786 1394.5 c 128,-1,65
 816 1367 816 1367 831 1331 c 128,-1,66
 846 1295 846 1295 846 1256 c 0,0,1
492 117 m 0,67,68
 575 117 575 117 636 148.5 c 128,-1,69
 697 180 697 180 737.5 228 c 128,-1,70
 778 276 778 276 798 334 c 128,-1,71
 818 392 818 392 818 445 c 2,72,-1
 818 534 l 1,73,-1
 628 530 l 2,74,75
 573 529 573 529 517.5 521.5 c 128,-1,76
 462 514 462 514 417.5 490 c 128,-1,77
 373 466 373 466 345 420.5 c 128,-1,78
 317 375 317 375 317 299 c 0,79,80
 317 217 317 217 361.5 167 c 128,-1,81
 406 117 406 117 492 117 c 0,67,68
508 1496 m 1,82,-1
 508 1516 l 1,83,-1
 735 1705 l 1,84,-1
 932 1705 l 1,85,-1
 932 1676 l 1,86,-1
 632 1496 l 1,87,-1
 508 1496 l 1,82,-1
725 1256 m 256,88,89
 725 1271 725 1271 718.5 1285.5 c 128,-1,90
 712 1300 712 1300 697.5 1312 c 128,-1,91
 683 1324 683 1324 660 1331.5 c 128,-1,92
 637 1339 637 1339 604 1339 c 256,93,94
 571 1339 571 1339 548 1331.5 c 128,-1,95
 525 1324 525 1324 510 1312 c 128,-1,96
 495 1300 495 1300 488.5 1285.5 c 128,-1,97
 482 1271 482 1271 482 1256 c 256,98,99
 482 1241 482 1241 488.5 1226 c 128,-1,100
 495 1211 495 1211 510 1199 c 128,-1,101
 525 1187 525 1187 548 1179.5 c 128,-1,102
 571 1172 571 1172 604 1172 c 256,103,104
 637 1172 637 1172 660 1179.5 c 128,-1,105
 683 1187 683 1187 697.5 1199 c 128,-1,106
 712 1211 712 1211 718.5 1226 c 128,-1,107
 725 1241 725 1241 725 1256 c 256,88,89
EndSplineSet
EndChar

StartChar: circumflex
Encoding: 710 710 331
Width: 1229
GlyphClass: 2
Flags: W
LayerCount: 2
Fore
SplineSet
945 1221 m 1,0,-1
 945 1201 l 1,1,-1
 840 1201 l 1,2,-1
 621 1339 l 1,3,-1
 619 1339 l 1,4,-1
 387 1201 l 1,5,-1
 283 1201 l 1,6,-1
 283 1221 l 1,7,-1
 537 1460 l 1,8,-1
 701 1460 l 1,9,-1
 945 1221 l 1,0,-1
EndSplineSet
EndChar

StartChar: caron
Encoding: 711 711 332
Width: 1229
GlyphClass: 2
Flags: W
LayerCount: 2
Fore
SplineSet
701 1201 m 1,0,-1
 537 1201 l 1,1,-1
 283 1440 l 1,2,-1
 283 1460 l 1,3,-1
 387 1460 l 1,4,-1
 619 1322 l 1,5,-1
 621 1322 l 1,6,-1
 840 1460 l 1,7,-1
 945 1460 l 1,8,-1
 945 1440 l 1,9,-1
 701 1201 l 1,0,-1
EndSplineSet
EndChar

StartChar: uni02C9
Encoding: 713 713 333
Width: 1229
GlyphClass: 2
Flags: W
LayerCount: 2
Fore
SplineSet
888 1236 m 1,0,-1
 337 1236 l 1,1,-1
 337 1363 l 1,2,-1
 888 1363 l 1,3,-1
 888 1236 l 1,0,-1
EndSplineSet
EndChar

StartChar: breve
Encoding: 728 728 334
Width: 1229
GlyphClass: 2
Flags: W
LayerCount: 2
Fore
SplineSet
613 1201 m 0,0,1
 539 1201 539 1201 484 1224.5 c 128,-1,2
 429 1248 429 1248 391 1285.5 c 128,-1,3
 353 1323 353 1323 331 1369 c 128,-1,4
 309 1415 309 1415 301 1460 c 1,5,-1
 428 1460 l 1,6,7
 445 1397 445 1397 488 1362 c 128,-1,8
 531 1327 531 1327 613 1327 c 0,9,10
 698 1327 698 1327 740.5 1362 c 128,-1,11
 783 1397 783 1397 800 1460 c 1,12,-1
 927 1460 l 1,13,14
 918 1415 918 1415 896 1369 c 128,-1,15
 874 1323 874 1323 836.5 1285.5 c 128,-1,16
 799 1248 799 1248 744 1224.5 c 128,-1,17
 689 1201 689 1201 613 1201 c 0,0,1
EndSplineSet
EndChar

StartChar: dotaccent
Encoding: 729 729 335
Width: 1229
GlyphClass: 2
Flags: W
LayerCount: 2
Fore
SplineSet
515 1292 m 1,0,-1
 515 1484 l 1,1,-1
 715 1484 l 1,2,-1
 715 1292 l 1,3,-1
 515 1292 l 1,0,-1
EndSplineSet
EndChar

StartChar: ring
Encoding: 730 730 336
Width: 1229
GlyphClass: 2
Flags: W
LayerCount: 2
Fore
SplineSet
856 1348 m 256,0,1
 856 1309 856 1309 841 1273 c 128,-1,2
 826 1237 826 1237 796 1209 c 128,-1,3
 766 1181 766 1181 720.5 1164.5 c 128,-1,4
 675 1148 675 1148 614 1148 c 256,5,6
 553 1148 553 1148 507.5 1164.5 c 128,-1,7
 462 1181 462 1181 432 1209 c 128,-1,8
 402 1237 402 1237 387 1273 c 128,-1,9
 372 1309 372 1309 372 1348 c 256,10,11
 372 1387 372 1387 387 1423 c 128,-1,12
 402 1459 402 1459 432 1486.5 c 128,-1,13
 462 1514 462 1514 507.5 1530.5 c 128,-1,14
 553 1547 553 1547 614 1547 c 256,15,16
 675 1547 675 1547 720.5 1530.5 c 128,-1,17
 766 1514 766 1514 796 1486.5 c 128,-1,18
 826 1459 826 1459 841 1423 c 128,-1,19
 856 1387 856 1387 856 1348 c 256,0,1
735 1348 m 256,20,21
 735 1363 735 1363 728.5 1377.5 c 128,-1,22
 722 1392 722 1392 707.5 1404 c 128,-1,23
 693 1416 693 1416 670 1423.5 c 128,-1,24
 647 1431 647 1431 614 1431 c 256,25,26
 581 1431 581 1431 558 1423.5 c 128,-1,27
 535 1416 535 1416 520 1404 c 128,-1,28
 505 1392 505 1392 498.5 1377.5 c 128,-1,29
 492 1363 492 1363 492 1348 c 256,30,31
 492 1333 492 1333 498.5 1318 c 128,-1,32
 505 1303 505 1303 520 1291 c 128,-1,33
 535 1279 535 1279 558 1271.5 c 128,-1,34
 581 1264 581 1264 614 1264 c 256,35,36
 647 1264 647 1264 670 1271.5 c 128,-1,37
 693 1279 693 1279 707.5 1291 c 128,-1,38
 722 1303 722 1303 728.5 1318 c 128,-1,39
 735 1333 735 1333 735 1348 c 256,20,21
EndSplineSet
EndChar

StartChar: ogonek
Encoding: 731 731 337
Width: 1229
GlyphClass: 2
Flags: W
LayerCount: 2
Fore
SplineSet
791 -400 m 1,0,1
 763 -412 763 -412 727.5 -419.5 c 128,-1,2
 692 -427 692 -427 652 -427 c 0,3,4
 547 -427 547 -427 494 -376 c 128,-1,5
 441 -325 441 -325 441 -240 c 0,6,7
 441 -193 441 -193 458 -153.5 c 128,-1,8
 475 -114 475 -114 499 -83.5 c 128,-1,9
 523 -53 523 -53 550 -32 c 128,-1,10
 577 -11 577 -11 596 0 c 1,11,-1
 729 0 l 1,12,13
 704 -14 704 -14 678 -36.5 c 128,-1,14
 652 -59 652 -59 630.5 -88.5 c 128,-1,15
 609 -118 609 -118 595.5 -153 c 128,-1,16
 582 -188 582 -188 582 -227 c 0,17,18
 582 -269 582 -269 606.5 -293 c 128,-1,19
 631 -317 631 -317 676 -317 c 0,20,21
 705 -317 705 -317 734 -310.5 c 128,-1,22
 763 -304 763 -304 791 -293 c 1,23,-1
 791 -400 l 1,0,1
EndSplineSet
EndChar

StartChar: tilde
Encoding: 732 732 338
Width: 1229
GlyphClass: 2
Flags: W
LayerCount: 2
Fore
SplineSet
770 1201 m 0,0,1
 728 1201 728 1201 686 1219.5 c 128,-1,2
 644 1238 644 1238 604 1260.5 c 128,-1,3
 564 1283 564 1283 525.5 1301.5 c 128,-1,4
 487 1320 487 1320 452 1320 c 0,5,6
 429 1320 429 1320 414.5 1312 c 128,-1,7
 400 1304 400 1304 390.5 1289 c 128,-1,8
 381 1274 381 1274 376 1252 c 128,-1,9
 371 1230 371 1230 366 1201 c 1,10,-1
 255 1201 l 1,11,12
 260 1246 260 1246 270 1290 c 128,-1,13
 280 1334 280 1334 302.5 1369.5 c 128,-1,14
 325 1405 325 1405 362 1427 c 128,-1,15
 399 1449 399 1449 458 1449 c 0,16,17
 502 1449 502 1449 544 1430.5 c 128,-1,18
 586 1412 586 1412 626 1389.5 c 128,-1,19
 666 1367 666 1367 703 1348.5 c 128,-1,20
 740 1330 740 1330 773 1330 c 0,21,22
 796 1330 796 1330 811 1338 c 128,-1,23
 826 1346 826 1346 836 1361.5 c 128,-1,24
 846 1377 846 1377 851 1399 c 128,-1,25
 856 1421 856 1421 860 1449 c 1,26,-1
 972 1449 l 1,27,28
 967 1405 967 1405 957 1361 c 128,-1,29
 947 1317 947 1317 925.5 1281.5 c 128,-1,30
 904 1246 904 1246 867 1223.5 c 128,-1,31
 830 1201 830 1201 770 1201 c 0,0,1
EndSplineSet
EndChar

StartChar: hungarumlaut
Encoding: 733 733 339
Width: 1229
GlyphClass: 2
Flags: W
LayerCount: 2
Fore
SplineSet
393 1201 m 1,0,-1
 393 1221 l 1,1,-1
 600 1460 l 1,2,-1
 787 1460 l 1,3,-1
 787 1431 l 1,4,-1
 487 1201 l 1,5,-1
 393 1201 l 1,0,-1
29 1201 m 1,6,-1
 29 1221 l 1,7,-1
 236 1460 l 1,8,-1
 423 1460 l 1,9,-1
 423 1431 l 1,10,-1
 123 1201 l 1,11,-1
 29 1201 l 1,6,-1
EndSplineSet
EndChar

StartChar: tonos
Encoding: 900 900 340
Width: 1229
GlyphClass: 2
Flags: W
LayerCount: 2
Fore
SplineSet
475 1201 m 1,0,-1
 475 1234 l 1,1,-1
 554 1526 l 1,2,-1
 751 1526 l 1,3,-1
 751 1489 l 1,4,-1
 580 1201 l 1,5,-1
 475 1201 l 1,0,-1
EndSplineSet
EndChar

StartChar: dieresistonos
Encoding: 901 901 341
Width: 1229
GlyphClass: 2
Flags: W
LayerCount: 2
Fore
SplineSet
521 1201 m 1,0,-1
 521 1234 l 1,1,-1
 575 1601 l 1,2,-1
 772 1601 l 1,3,-1
 772 1564 l 1,4,-1
 626 1201 l 1,5,-1
 521 1201 l 1,0,-1
775 1219 m 1,6,-1
 775 1403 l 1,7,-1
 918 1403 l 1,8,-1
 918 1219 l 1,9,-1
 775 1219 l 1,6,-1
311 1219 m 1,10,-1
 311 1403 l 1,11,-1
 456 1403 l 1,12,-1
 456 1219 l 1,13,-1
 311 1219 l 1,10,-1
EndSplineSet
EndChar

StartChar: anoteleia
Encoding: 903 903 343
Width: 1229
GlyphClass: 2
Flags: W
LayerCount: 2
Fore
SplineSet
496 420 m 1,0,-1
 496 719 l 1,1,-1
 731 719 l 1,2,-1
 731 420 l 1,3,-1
 496 420 l 1,0,-1
EndSplineSet
EndChar

StartChar: Etatonos
Encoding: 905 905 345
Width: 1229
GlyphClass: 2
Flags: W
LayerCount: 2
Fore
SplineSet
943 0 m 1,0,-1
 943 623 l 1,1,-1
 519 623 l 1,2,-1
 519 0 l 1,3,-1
 328 0 l 1,4,-1
 328 1349 l 1,5,-1
 519 1349 l 1,6,-1
 519 783 l 1,7,-1
 943 783 l 1,8,-1
 943 1349 l 1,9,-1
 1129 1349 l 1,10,-1
 1129 0 l 1,11,-1
 943 0 l 1,0,-1
0 1024 m 1,12,-1
 0 1057 l 1,13,-1
 79 1349 l 1,14,-1
 276 1349 l 1,15,-1
 276 1312 l 1,16,-1
 105 1024 l 1,17,-1
 0 1024 l 1,12,-1
EndSplineSet
EndChar

StartChar: Upsilontonos
Encoding: 910 910 348
Width: 1229
GlyphClass: 2
Flags: W
LayerCount: 2
Fore
SplineSet
845 584 m 1,0,-1
 845 0 l 1,1,-1
 657 0 l 1,2,-1
 657 584 l 1,3,-1
 303 1349 l 1,4,-1
 504 1349 l 1,5,-1
 752 748 l 1,6,-1
 998 1349 l 1,7,-1
 1199 1349 l 1,8,-1
 845 584 l 1,0,-1
0 1024 m 1,9,-1
 0 1057 l 1,10,-1
 79 1349 l 1,11,-1
 276 1349 l 1,12,-1
 276 1312 l 1,13,-1
 105 1024 l 1,14,-1
 0 1024 l 1,9,-1
EndSplineSet
EndChar

StartChar: Omegatonos
Encoding: 911 911 349
Width: 1229
GlyphClass: 2
Flags: W
LayerCount: 2
Fore
SplineSet
653 1370 m 0,0,1
 766 1370 766 1370 858.5 1327.5 c 128,-1,2
 951 1285 951 1285 1017 1206.5 c 128,-1,3
 1083 1128 1083 1128 1119 1017.5 c 128,-1,4
 1155 907 1155 907 1155 771 c 0,5,6
 1155 676 1155 676 1136 586.5 c 128,-1,7
 1117 497 1117 497 1077.5 417 c 128,-1,8
 1038 337 1038 337 978.5 268 c 128,-1,9
 919 199 919 199 838 145 c 1,10,11
 864 148 864 148 890 151 c 0,12,13
 912 153 912 153 936 154.5 c 128,-1,14
 960 156 960 156 979 156 c 2,15,-1
 1179 156 l 1,16,-1
 1179 0 l 1,17,-1
 716 0 l 1,18,-1
 716 224 l 1,19,20
 791 279 791 279 838.5 341.5 c 128,-1,21
 886 404 886 404 913 472 c 128,-1,22
 940 540 940 540 950 612 c 128,-1,23
 960 684 960 684 960 758 c 0,24,25
 960 863 960 863 940.5 947 c 128,-1,26
 921 1031 921 1031 883 1090.5 c 128,-1,27
 845 1150 845 1150 787.5 1182 c 128,-1,28
 730 1214 730 1214 654 1214 c 0,29,30
 577 1214 577 1214 519.5 1182 c 128,-1,31
 462 1150 462 1150 423.5 1090.5 c 128,-1,32
 385 1031 385 1031 365.5 947 c 128,-1,33
 346 863 346 863 346 758 c 0,34,35
 346 684 346 684 356 612 c 128,-1,36
 366 540 366 540 393 472 c 128,-1,37
 420 404 420 404 467.5 341.5 c 128,-1,38
 515 279 515 279 590 224 c 1,39,-1
 590 0 l 1,40,-1
 127 0 l 1,41,-1
 127 156 l 1,42,-1
 327 156 l 2,43,44
 346 156 346 156 370 154.5 c 128,-1,45
 394 153 394 153 416 151 c 0,46,47
 442 148 442 148 468 145 c 1,48,49
 387 199 387 199 327.5 268 c 128,-1,50
 268 337 268 337 228.5 417 c 128,-1,51
 189 497 189 497 170 586.5 c 128,-1,52
 151 676 151 676 151 771 c 0,53,54
 151 907 151 907 187.5 1017.5 c 128,-1,55
 224 1128 224 1128 290 1206.5 c 128,-1,56
 356 1285 356 1285 448.5 1327.5 c 128,-1,57
 541 1370 541 1370 653 1370 c 0,0,1
-50 1024 m 1,58,-1
 -50 1057 l 1,59,-1
 29 1349 l 1,60,-1
 226 1349 l 1,61,-1
 226 1312 l 1,62,-1
 55 1024 l 1,63,-1
 -50 1024 l 1,58,-1
EndSplineSet
EndChar

StartChar: Gamma
Encoding: 915 915 353
Width: 1229
GlyphClass: 2
Flags: W
LayerCount: 2
Fore
SplineSet
415 0 m 1,0,-1
 224 0 l 1,1,-1
 224 1349 l 1,2,-1
 1115 1349 l 1,3,-1
 1115 1193 l 1,4,-1
 415 1193 l 1,5,-1
 415 0 l 1,0,-1
EndSplineSet
EndChar

StartChar: Delta
Encoding: 916 916 354
Width: 1229
GlyphClass: 2
Flags: W
LayerCount: 2
Fore
SplineSet
12 0 m 1,0,-1
 12 145 l 1,1,-1
 489 1349 l 1,2,-1
 733 1349 l 1,3,-1
 1216 147 l 1,4,-1
 1216 0 l 1,5,-1
 12 0 l 1,0,-1
710 937 m 2,6,7
 692 983 692 983 675 1030 c 128,-1,8
 658 1077 658 1077 644.5 1116.5 c 128,-1,9
 631 1156 631 1156 622.5 1183 c 128,-1,10
 614 1210 614 1210 612 1214 c 1,11,12
 611 1210 611 1210 602 1183 c 128,-1,13
 593 1156 593 1156 579.5 1116.5 c 128,-1,14
 566 1077 566 1077 549 1029.5 c 128,-1,15
 532 982 532 982 514 937 c 2,16,-1
 204 156 l 1,17,-1
 1024 156 l 1,18,-1
 710 937 l 2,6,7
EndSplineSet
EndChar

StartChar: Theta
Encoding: 920 920 358
Width: 1229
GlyphClass: 2
Flags: W
LayerCount: 2
Fore
SplineSet
1126 681 m 0,0,1
 1126 508 1126 508 1091 377 c 128,-1,2
 1056 246 1056 246 990 157.5 c 128,-1,3
 924 69 924 69 828.5 24.5 c 128,-1,4
 733 -20 733 -20 613 -20 c 0,5,6
 486 -20 486 -20 390 27 c 128,-1,7
 294 74 294 74 230 163.5 c 128,-1,8
 166 253 166 253 134 383.5 c 128,-1,9
 102 514 102 514 102 681 c 0,10,11
 102 854 102 854 136 983 c 128,-1,12
 170 1112 170 1112 235 1198 c 128,-1,13
 300 1284 300 1284 395.5 1327 c 128,-1,14
 491 1370 491 1370 615 1370 c 0,15,16
 862 1370 862 1370 994 1196.5 c 128,-1,17
 1126 1023 1126 1023 1126 681 c 0,0,1
925 681 m 0,18,19
 925 951 925 951 846 1082.5 c 128,-1,20
 767 1214 767 1214 615 1214 c 0,21,22
 459 1214 459 1214 381 1082.5 c 128,-1,23
 303 951 303 951 303 681 c 256,24,25
 303 411 303 411 382 273 c 128,-1,26
 461 135 461 135 614 135 c 0,27,28
 777 135 777 135 851 275 c 128,-1,29
 925 415 925 415 925 681 c 0,18,19
782 757 m 1,30,-1
 782 603 l 1,31,-1
 447 603 l 1,32,-1
 447 757 l 1,33,-1
 782 757 l 1,30,-1
EndSplineSet
EndChar

StartChar: Lambda
Encoding: 923 923 361
Width: 1229
GlyphClass: 2
Flags: W
LayerCount: 2
Fore
SplineSet
1218 0 m 1,0,-1
 1017 0 l 1,1,-1
 699 902 l 2,2,3
 683 950 683 950 668 998.5 c 128,-1,4
 653 1047 653 1047 641 1088 c 0,5,6
 627 1136 627 1136 615 1181 c 1,7,8
 602 1134 602 1134 588 1086 c 0,9,10
 576 1044 576 1044 561.5 995.5 c 128,-1,11
 547 947 547 947 531 902 c 2,12,-1
 211 0 l 1,13,-1
 10 0 l 1,14,-1
 515 1349 l 1,15,-1
 713 1349 l 1,16,-1
 1218 0 l 1,0,-1
EndSplineSet
EndChar

StartChar: Xi
Encoding: 926 926 364
Width: 1229
GlyphClass: 2
Flags: W
LayerCount: 2
Fore
SplineSet
155 1193 m 1,0,-1
 155 1349 l 1,1,-1
 1074 1349 l 1,2,-1
 1074 1193 l 1,3,-1
 155 1193 l 1,0,-1
135 0 m 1,4,-1
 135 156 l 1,5,-1
 1094 156 l 1,6,-1
 1094 0 l 1,7,-1
 135 0 l 1,4,-1
949 771 m 1,8,-1
 949 617 l 1,9,-1
 280 617 l 1,10,-1
 280 771 l 1,11,-1
 949 771 l 1,8,-1
EndSplineSet
EndChar

StartChar: Pi
Encoding: 928 928 366
Width: 1229
GlyphClass: 2
Flags: W
LayerCount: 2
Fore
SplineSet
163 0 m 1,0,-1
 163 1349 l 1,1,-1
 1066 1349 l 1,2,-1
 1066 0 l 1,3,-1
 875 0 l 1,4,-1
 875 1193 l 1,5,-1
 354 1193 l 1,6,-1
 354 0 l 1,7,-1
 163 0 l 1,0,-1
EndSplineSet
EndChar

StartChar: Sigma
Encoding: 931 931 368
Width: 1229
GlyphClass: 2
Flags: W
LayerCount: 2
Fore
SplineSet
108 0 m 1,0,-1
 108 162 l 1,1,-1
 646 711 l 1,2,-1
 125 1188 l 1,3,-1
 125 1349 l 1,4,-1
 1124 1349 l 1,5,-1
 1124 1193 l 1,6,-1
 340 1193 l 1,7,-1
 798 778 l 1,8,-1
 798 654 l 1,9,-1
 308 156 l 1,10,-1
 1185 156 l 1,11,-1
 1185 0 l 1,12,-1
 108 0 l 1,0,-1
EndSplineSet
EndChar

StartChar: Phi
Encoding: 934 934 371
Width: 1229
GlyphClass: 2
Flags: W
LayerCount: 2
Fore
SplineSet
1221 706 m 0,0,1
 1221 609 1221 609 1189.5 518.5 c 128,-1,2
 1158 428 1158 428 1097.5 358.5 c 128,-1,3
 1037 289 1037 289 948.5 247.5 c 128,-1,4
 860 206 860 206 746 206 c 2,5,-1
 705 206 l 1,6,-1
 705 -11 l 1,7,-1
 524 -11 l 1,8,-1
 524 206 l 1,9,-1
 483 206 l 2,10,11
 369 206 369 206 280.5 247.5 c 128,-1,12
 192 289 192 289 131.5 358.5 c 128,-1,13
 71 428 71 428 39.5 518.5 c 128,-1,14
 8 609 8 609 8 706 c 0,15,16
 8 812 8 812 40.5 900.5 c 128,-1,17
 73 989 73 989 135 1052.5 c 128,-1,18
 197 1116 197 1116 287.5 1151.5 c 128,-1,19
 378 1187 378 1187 494 1187 c 2,20,-1
 524 1187 l 1,21,-1
 524 1359 l 1,22,-1
 705 1359 l 1,23,-1
 705 1187 l 1,24,-1
 734 1187 l 2,25,26
 850 1187 850 1187 941 1151.5 c 128,-1,27
 1032 1116 1032 1116 1094 1052.5 c 128,-1,28
 1156 989 1156 989 1188.5 900.5 c 128,-1,29
 1221 812 1221 812 1221 706 c 0,0,1
1027 702 m 0,30,31
 1027 788 1027 788 1004.5 852 c 128,-1,32
 982 916 982 916 941 958.5 c 128,-1,33
 900 1001 900 1001 841 1022.5 c 128,-1,34
 782 1044 782 1044 710 1044 c 2,35,-1
 705 1044 l 1,36,-1
 705 348 l 1,37,-1
 717 348 l 2,38,39
 791 348 791 348 848.5 373 c 128,-1,40
 906 398 906 398 945.5 444.5 c 128,-1,41
 985 491 985 491 1006 556.5 c 128,-1,42
 1027 622 1027 622 1027 702 c 0,30,31
202 702 m 0,43,44
 202 622 202 622 223 556.5 c 128,-1,45
 244 491 244 491 283.5 444.5 c 128,-1,46
 323 398 323 398 381 373 c 128,-1,47
 439 348 439 348 512 348 c 2,48,-1
 524 348 l 1,49,-1
 524 1044 l 1,50,-1
 516 1044 l 2,51,52
 444 1044 444 1044 386 1022.5 c 128,-1,53
 328 1001 328 1001 287 958.5 c 128,-1,54
 246 916 246 916 224 852 c 128,-1,55
 202 788 202 788 202 702 c 0,43,44
EndSplineSet
EndChar

StartChar: Psi
Encoding: 936 936 373
Width: 1229
GlyphClass: 2
Flags: W
LayerCount: 2
Fore
SplineSet
537 0 m 1,0,-1
 537 397 l 1,1,-1
 479 397 l 2,2,3
 365 397 365 397 283.5 439 c 128,-1,4
 202 481 202 481 150 552.5 c 128,-1,5
 98 624 98 624 73.5 718 c 128,-1,6
 49 812 49 812 49 916 c 2,7,-1
 49 1349 l 1,8,-1
 210 1349 l 1,9,-1
 210 912 l 2,10,11
 210 832 210 832 225.5 762.5 c 128,-1,12
 241 693 241 693 274.5 642 c 128,-1,13
 308 591 308 591 360.5 562 c 128,-1,14
 413 533 413 533 486 533 c 2,15,-1
 537 533 l 1,16,-1
 537 1349 l 1,17,-1
 692 1349 l 1,18,-1
 692 533 l 1,19,-1
 743 533 l 2,20,21
 816 533 816 533 868 562 c 128,-1,22
 920 591 920 591 953.5 642 c 128,-1,23
 987 693 987 693 1003 762.5 c 128,-1,24
 1019 832 1019 832 1019 912 c 2,25,-1
 1019 1349 l 1,26,-1
 1180 1349 l 1,27,-1
 1180 916 l 2,28,29
 1180 812 1180 812 1155.5 718 c 128,-1,30
 1131 624 1131 624 1078.5 552.5 c 128,-1,31
 1026 481 1026 481 945 439 c 128,-1,32
 864 397 864 397 750 397 c 2,33,-1
 692 397 l 1,34,-1
 692 0 l 1,35,-1
 537 0 l 1,0,-1
EndSplineSet
EndChar

StartChar: Omega
Encoding: 937 937 374
Width: 1229
GlyphClass: 2
Flags: W
LayerCount: 2
Fore
SplineSet
615 1370 m 256,0,1
 739 1370 739 1370 837.5 1327.5 c 128,-1,2
 936 1285 936 1285 1005 1206.5 c 128,-1,3
 1074 1128 1074 1128 1110.5 1017.5 c 128,-1,4
 1147 907 1147 907 1147 771 c 0,5,6
 1147 676 1147 676 1124.5 586.5 c 128,-1,7
 1102 497 1102 497 1059.5 417 c 128,-1,8
 1017 337 1017 337 954 268 c 128,-1,9
 891 199 891 199 810 145 c 1,10,11
 842 148 842 148 872 151 c 0,12,13
 898 153 898 153 925 154.5 c 128,-1,14
 952 156 952 156 971 156 c 2,15,-1
 1171 156 l 1,16,-1
 1171 0 l 1,17,-1
 688 0 l 1,18,-1
 688 224 l 1,19,20
 763 279 763 279 814 341.5 c 128,-1,21
 865 404 865 404 895.5 472 c 128,-1,22
 926 540 926 540 939 612 c 128,-1,23
 952 684 952 684 952 758 c 0,24,25
 952 863 952 863 932.5 947 c 128,-1,26
 913 1031 913 1031 871.5 1090.5 c 128,-1,27
 830 1150 830 1150 766.5 1182 c 128,-1,28
 703 1214 703 1214 616 1214 c 0,29,30
 528 1214 528 1214 464 1182 c 128,-1,31
 400 1150 400 1150 359 1090.5 c 128,-1,32
 318 1031 318 1031 298 947 c 128,-1,33
 278 863 278 863 278 758 c 0,34,35
 278 684 278 684 291 612 c 128,-1,36
 304 540 304 540 334.5 472 c 128,-1,37
 365 404 365 404 416 341.5 c 128,-1,38
 467 279 467 279 542 224 c 1,39,-1
 542 0 l 1,40,-1
 59 0 l 1,41,-1
 59 156 l 1,42,-1
 259 156 l 2,43,44
 278 156 278 156 305 154.5 c 128,-1,45
 332 153 332 153 358 151 c 0,46,47
 388 148 388 148 420 145 c 1,48,49
 339 199 339 199 276 268 c 128,-1,50
 213 337 213 337 170.5 417 c 128,-1,51
 128 497 128 497 105.5 586.5 c 128,-1,52
 83 676 83 676 83 771 c 0,53,54
 83 907 83 907 119.5 1017.5 c 128,-1,55
 156 1128 156 1128 225 1206.5 c 128,-1,56
 294 1285 294 1285 392.5 1327.5 c 128,-1,57
 491 1370 491 1370 615 1370 c 256,0,1
EndSplineSet
EndChar

StartChar: alpha
Encoding: 945 945 382
Width: 1229
GlyphClass: 2
Flags: W
LayerCount: 2
Fore
SplineSet
886 237 m 1,0,1
 861 181 861 181 828 134 c 128,-1,2
 795 87 795 87 751.5 52.5 c 128,-1,3
 708 18 708 18 652.5 -1 c 128,-1,4
 597 -20 597 -20 527 -20 c 0,5,6
 322 -20 322 -20 225.5 118 c 128,-1,7
 129 256 129 256 129 536 c 0,8,9
 129 820 129 820 237.5 961 c 128,-1,10
 346 1102 346 1102 555 1102 c 0,11,12
 624 1102 624 1102 680 1082.5 c 128,-1,13
 736 1063 736 1063 779 1028.5 c 128,-1,14
 822 994 822 994 853.5 947.5 c 128,-1,15
 885 901 885 901 905 847 c 1,16,-1
 907 847 l 1,17,18
 911 868 911 868 918 896 c 128,-1,19
 925 924 925 924 934.5 955.5 c 128,-1,20
 944 987 944 987 955.5 1019.5 c 128,-1,21
 967 1052 967 1052 980 1082 c 1,22,-1
 1168 1082 l 1,23,24
 1146 1035 1146 1035 1123 971 c 128,-1,25
 1100 907 1100 907 1080.5 837.5 c 128,-1,26
 1061 768 1061 768 1046 698.5 c 128,-1,27
 1031 629 1031 629 1026 571 c 1,28,29
 1029 468 1029 468 1040.5 380.5 c 128,-1,30
 1052 293 1052 293 1067.5 221 c 128,-1,31
 1083 149 1083 149 1101 94 c 128,-1,32
 1119 39 1119 39 1137 0 c 1,33,-1
 954 0 l 1,34,35
 943 28 943 28 932.5 61 c 128,-1,36
 922 94 922 94 914 126.5 c 128,-1,37
 906 159 906 159 899.5 188 c 128,-1,38
 893 217 893 217 890 237 c 1,39,-1
 886 237 l 1,0,1
318 542 m 0,40,41
 318 430 318 430 332 350 c 128,-1,42
 346 270 346 270 375.5 218.5 c 128,-1,43
 405 167 405 167 451.5 143 c 128,-1,44
 498 119 498 119 564 119 c 0,45,46
 618 119 618 119 668 145 c 128,-1,47
 718 171 718 171 759 224.5 c 128,-1,48
 800 278 800 278 830.5 358 c 128,-1,49
 861 438 861 438 875 546 c 1,50,51
 863 632 863 632 840.5 709 c 128,-1,52
 818 786 818 786 782.5 843.5 c 128,-1,53
 747 901 747 901 696 935 c 128,-1,54
 645 969 645 969 575 969 c 0,55,56
 509 969 509 969 461 946 c 128,-1,57
 413 923 413 923 381 872 c 128,-1,58
 349 821 349 821 333.5 739.5 c 128,-1,59
 318 658 318 658 318 542 c 0,40,41
EndSplineSet
EndChar

StartChar: beta
Encoding: 946 946 383
Width: 1229
GlyphClass: 2
Flags: W
LayerCount: 2
Fore
SplineSet
1127 405 m 0,0,1
 1127 317 1127 317 1100.5 239.5 c 128,-1,2
 1074 162 1074 162 1018.5 104 c 128,-1,3
 963 46 963 46 876.5 13 c 128,-1,4
 790 -20 790 -20 670 -20 c 0,5,6
 568 -20 568 -20 488 7.5 c 128,-1,7
 408 35 408 35 352 74 c 1,8,-1
 346 74 l 1,9,10
 349 17 349 17 350.5 -29 c 128,-1,11
 352 -75 352 -75 352 -128 c 2,12,-1
 352 -425 l 1,13,-1
 172 -425 l 1,14,-1
 172 1027 l 2,15,16
 172 1264 172 1264 286 1374 c 128,-1,17
 400 1484 400 1484 626 1484 c 0,18,19
 725 1484 725 1484 801 1460.5 c 128,-1,20
 877 1437 877 1437 928 1392 c 128,-1,21
 979 1347 979 1347 1005.5 1282 c 128,-1,22
 1032 1217 1032 1217 1032 1135 c 0,23,24
 1032 1062 1032 1062 1014.5 1006.5 c 128,-1,25
 997 951 997 951 966.5 910 c 128,-1,26
 936 869 936 869 895.5 841 c 128,-1,27
 855 813 855 813 809 795 c 1,28,29
 866 784 866 784 923 756.5 c 128,-1,30
 980 729 980 729 1025.5 682.5 c 128,-1,31
 1071 636 1071 636 1099 567.5 c 128,-1,32
 1127 499 1127 499 1127 405 c 0,0,1
859 1133 m 0,33,34
 859 1177 859 1177 845.5 1215.5 c 128,-1,35
 832 1254 832 1254 803.5 1282.5 c 128,-1,36
 775 1311 775 1311 731.5 1327 c 128,-1,37
 688 1343 688 1343 628 1343 c 0,38,39
 558 1343 558 1343 506 1325.5 c 128,-1,40
 454 1308 454 1308 420 1269.5 c 128,-1,41
 386 1231 386 1231 369 1170 c 128,-1,42
 352 1109 352 1109 352 1021 c 2,43,-1
 352 205 l 1,44,45
 380 186 380 186 415.5 169 c 128,-1,46
 451 152 451 152 491.5 139.5 c 128,-1,47
 532 127 532 127 575.5 120 c 128,-1,48
 619 113 619 113 662 113 c 0,49,50
 734 113 734 113 789 133.5 c 128,-1,51
 844 154 844 154 880.5 192 c 128,-1,52
 917 230 917 230 936 283 c 128,-1,53
 955 336 955 336 955 402 c 0,54,55
 955 467 955 467 932 522 c 128,-1,56
 909 577 909 577 860.5 617.5 c 128,-1,57
 812 658 812 658 735.5 680.5 c 128,-1,58
 659 703 659 703 552 703 c 1,59,-1
 552 845 l 1,60,61
 633 851 633 851 691 874 c 128,-1,62
 749 897 749 897 786.5 934.5 c 128,-1,63
 824 972 824 972 841.5 1022 c 128,-1,64
 859 1072 859 1072 859 1133 c 0,33,34
EndSplineSet
EndChar

StartChar: gamma
Encoding: 947 947 384
Width: 1229
GlyphClass: 2
Flags: W
LayerCount: 2
Fore
SplineSet
255 1082 m 1,0,-1
 526 425 l 2,1,2
 537 398 537 398 551.5 358.5 c 128,-1,3
 566 319 566 319 580 280.5 c 128,-1,4
 594 242 594 242 604.5 211 c 128,-1,5
 615 180 615 180 617 171 c 1,6,7
 620 182 620 182 631.5 214 c 128,-1,8
 643 246 643 246 658 285 c 128,-1,9
 673 324 673 324 688.5 365 c 128,-1,10
 704 406 704 406 716 435 c 2,11,-1
 971 1082 l 1,12,-1
 1168 1082 l 1,13,-1
 731 53 l 2,14,15
 714 8 714 8 698.5 -47.5 c 128,-1,16
 683 -103 683 -103 669.5 -165 c 128,-1,17
 656 -227 656 -227 645 -293 c 128,-1,18
 634 -359 634 -359 626 -424 c 1,19,-1
 435 -424 l 1,20,21
 452 -293 452 -293 476 -186.5 c 128,-1,22
 500 -80 500 -80 524 11 c 1,23,-1
 53 1082 l 1,24,-1
 255 1082 l 1,0,-1
EndSplineSet
EndChar

StartChar: delta
Encoding: 948 948 385
Width: 1229
GlyphClass: 2
Flags: W
LayerCount: 2
Fore
SplineSet
920 471 m 0,0,1
 920 556 920 556 893 628.5 c 128,-1,2
 866 701 866 701 828.5 758.5 c 128,-1,3
 791 816 791 816 751 859 c 128,-1,4
 711 902 711 902 685 929 c 1,5,6
 612 903 612 903 543 862.5 c 128,-1,7
 474 822 474 822 420 765 c 128,-1,8
 366 708 366 708 333.5 635 c 128,-1,9
 301 562 301 562 301 471 c 0,10,11
 301 395 301 395 321 329.5 c 128,-1,12
 341 264 341 264 380 216 c 128,-1,13
 419 168 419 168 477.5 140.5 c 128,-1,14
 536 113 536 113 612 113 c 0,15,16
 693 113 693 113 751.5 140 c 128,-1,17
 810 167 810 167 847.5 214.5 c 128,-1,18
 885 262 885 262 902.5 327.5 c 128,-1,19
 920 393 920 393 920 471 c 0,0,1
648 1341 m 2,20,21
 635 1341 635 1341 614.5 1342 c 128,-1,22
 594 1343 594 1343 571.5 1344.5 c 128,-1,23
 549 1346 549 1346 528 1347 c 128,-1,24
 507 1348 507 1348 494 1349 c 1,25,-1
 810 1036 l 2,26,27
 865 982 865 982 918.5 924 c 128,-1,28
 972 866 972 866 1014.5 799 c 128,-1,29
 1057 732 1057 732 1083 652.5 c 128,-1,30
 1109 573 1109 573 1109 475 c 0,31,32
 1109 365 1109 365 1074.5 274 c 128,-1,33
 1040 183 1040 183 976 117.5 c 128,-1,34
 912 52 912 52 820 16 c 128,-1,35
 728 -20 728 -20 612 -20 c 0,36,37
 498 -20 498 -20 405.5 14 c 128,-1,38
 313 48 313 48 248 111.5 c 128,-1,39
 183 175 183 175 147.5 266.5 c 128,-1,40
 112 358 112 358 112 473 c 0,41,42
 112 585 112 585 151 673 c 128,-1,43
 190 761 190 761 256 828.5 c 128,-1,44
 322 896 322 896 409 944.5 c 128,-1,45
 496 993 496 993 592 1026 c 1,46,-1
 273 1354 l 1,47,-1
 273 1484 l 1,48,-1
 1021 1484 l 1,49,-1
 1021 1341 l 1,50,-1
 648 1341 l 2,20,21
EndSplineSet
EndChar

StartChar: epsilon
Encoding: 949 949 386
Width: 1229
GlyphClass: 2
Flags: W
LayerCount: 2
Fore
SplineSet
621 114 m 0,0,1
 690 114 690 114 747.5 129.5 c 128,-1,2
 805 145 805 145 850.5 169 c 128,-1,3
 896 193 896 193 929.5 221.5 c 128,-1,4
 963 250 963 250 984 275 c 1,5,-1
 1089 175 l 1,6,7
 1057 136 1057 136 1012.5 100.5 c 128,-1,8
 968 65 968 65 909.5 38.5 c 128,-1,9
 851 12 851 12 776.5 -4 c 128,-1,10
 702 -20 702 -20 609 -20 c 0,11,12
 494 -20 494 -20 412 3 c 128,-1,13
 330 26 330 26 277.5 68 c 128,-1,14
 225 110 225 110 200 168 c 128,-1,15
 175 226 175 226 175 295 c 0,16,17
 175 353 175 353 197.5 400.5 c 128,-1,18
 220 448 220 448 257.5 482.5 c 128,-1,19
 295 517 295 517 345 538 c 128,-1,20
 395 559 395 559 449 564 c 1,21,-1
 449 566 l 1,22,23
 398 572 398 572 354 592 c 128,-1,24
 310 612 310 612 277.5 644 c 128,-1,25
 245 676 245 676 226.5 719 c 128,-1,26
 208 762 208 762 208 813 c 0,27,28
 208 875 208 875 235.5 928 c 128,-1,29
 263 981 263 981 317 1019.5 c 128,-1,30
 371 1058 371 1058 451 1080 c 128,-1,31
 531 1102 531 1102 636 1102 c 0,32,33
 784 1102 784 1102 889.5 1059 c 128,-1,34
 995 1016 995 1016 1062 917 c 1,35,-1
 934 829 l 1,36,37
 887 900 887 900 814.5 934 c 128,-1,38
 742 968 742 968 637 968 c 0,39,40
 509 968 509 968 449.5 925.5 c 128,-1,41
 390 883 390 883 390 809 c 0,42,43
 390 752 390 752 426 717 c 128,-1,44
 462 682 462 682 521.5 663.5 c 128,-1,45
 581 645 581 645 658 639 c 128,-1,46
 735 633 735 633 818 633 c 1,47,-1
 818 498 l 1,48,49
 765 498 765 498 710.5 496 c 128,-1,50
 656 494 656 494 605 487 c 128,-1,51
 554 480 554 480 510 467 c 128,-1,52
 466 454 466 454 433 431.5 c 128,-1,53
 400 409 400 409 381 376.5 c 128,-1,54
 362 344 362 344 362 298 c 0,55,56
 362 207 362 207 428 160.5 c 128,-1,57
 494 114 494 114 621 114 c 0,0,1
EndSplineSet
EndChar

StartChar: zeta
Encoding: 950 950 387
Width: 1229
GlyphClass: 2
Flags: W
LayerCount: 2
Fore
SplineSet
375 379 m 0,0,1
 375 315 375 315 407.5 276.5 c 128,-1,2
 440 238 440 238 491 214.5 c 128,-1,3
 542 191 542 191 605 177.5 c 128,-1,4
 668 164 668 164 729 149 c 0,5,6
 768 140 768 140 810.5 129 c 128,-1,7
 853 118 853 118 894.5 103.5 c 128,-1,8
 936 89 936 89 973.5 69.5 c 128,-1,9
 1011 50 1011 50 1039.5 23.5 c 128,-1,10
 1068 -3 1068 -3 1085 -39 c 128,-1,11
 1102 -75 1102 -75 1102 -121 c 0,12,13
 1102 -155 1102 -155 1093 -190.5 c 128,-1,14
 1084 -226 1084 -226 1071 -259 c 128,-1,15
 1058 -292 1058 -292 1043.5 -319 c 128,-1,16
 1029 -346 1029 -346 1019 -363 c 1,17,-1
 893 -307 l 1,18,19
 902 -295 902 -295 911.5 -278.5 c 128,-1,20
 921 -262 921 -262 929 -243 c 128,-1,21
 937 -224 937 -224 942.5 -204.5 c 128,-1,22
 948 -185 948 -185 948 -166 c 0,23,24
 948 -132 948 -132 922 -107.5 c 128,-1,25
 896 -83 896 -83 852.5 -64.5 c 128,-1,26
 809 -46 809 -46 752.5 -32 c 128,-1,27
 696 -18 696 -18 635 -6 c 0,28,29
 590 3 590 3 539 15.5 c 128,-1,30
 488 28 488 28 438 46 c 128,-1,31
 388 64 388 64 342 90.5 c 128,-1,32
 296 117 296 117 261 155 c 128,-1,33
 226 193 226 193 205 243.5 c 128,-1,34
 184 294 184 294 184 361 c 0,35,36
 184 445 184 445 214 531 c 128,-1,37
 244 617 244 617 295.5 703 c 128,-1,38
 347 789 347 789 415.5 874 c 128,-1,39
 484 959 484 959 562 1040.5 c 128,-1,40
 640 1122 640 1122 722.5 1198 c 128,-1,41
 805 1274 805 1274 884 1342 c 1,42,-1
 884 1348 l 1,43,44
 872 1347 872 1347 854.5 1346 c 128,-1,45
 837 1345 837 1345 816 1344 c 128,-1,46
 795 1343 795 1343 772.5 1342.5 c 128,-1,47
 750 1342 750 1342 727 1342 c 2,48,-1
 265 1342 l 1,49,-1
 265 1484 l 1,50,-1
 1067 1484 l 1,51,-1
 1067 1346 l 1,52,53
 990 1276 990 1276 908.5 1198.5 c 128,-1,54
 827 1121 827 1121 750 1039 c 128,-1,55
 673 957 673 957 605 872 c 128,-1,56
 537 787 537 787 485.5 703 c 128,-1,57
 434 619 434 619 404.5 537 c 128,-1,58
 375 455 375 455 375 379 c 0,0,1
EndSplineSet
EndChar

StartChar: eta
Encoding: 951 951 388
Width: 1229
GlyphClass: 2
Flags: W
LayerCount: 2
Fore
SplineSet
868 -425 m 1,0,-1
 868 695 l 2,1,2
 868 775 868 775 851.5 826.5 c 128,-1,3
 835 878 835 878 805.5 908.5 c 128,-1,4
 776 939 776 939 736 951 c 128,-1,5
 696 963 696 963 648 963 c 0,6,7
 589 963 589 963 537.5 940.5 c 128,-1,8
 486 918 486 918 447.5 875.5 c 128,-1,9
 409 833 409 833 387 770.5 c 128,-1,10
 365 708 365 708 365 627 c 2,11,-1
 365 0 l 1,12,-1
 185 0 l 1,13,-1
 185 851 l 2,14,15
 185 885 185 885 184.5 922.5 c 128,-1,16
 184 960 184 960 183 993.5 c 128,-1,17
 182 1027 182 1027 181 1051 c 128,-1,18
 180 1075 180 1075 179 1082 c 1,19,-1
 349 1082 l 1,20,21
 350 1077 350 1077 351 1055 c 128,-1,22
 352 1033 352 1033 353.5 1004.5 c 128,-1,23
 355 976 355 976 356 946.5 c 128,-1,24
 357 917 357 917 357 897 c 1,25,-1
 360 897 l 1,26,27
 384 944 384 944 416.5 982 c 128,-1,28
 449 1020 449 1020 491.5 1046.5 c 128,-1,29
 534 1073 534 1073 587 1087.5 c 128,-1,30
 640 1102 640 1102 706 1102 c 0,31,32
 789 1102 789 1102 853 1080 c 128,-1,33
 917 1058 917 1058 960.5 1012 c 128,-1,34
 1004 966 1004 966 1026.5 894 c 128,-1,35
 1049 822 1049 822 1049 721 c 2,36,-1
 1049 -425 l 1,37,-1
 868 -425 l 1,0,-1
EndSplineSet
EndChar

StartChar: theta
Encoding: 952 952 389
Width: 1229
GlyphClass: 2
Flags: W
LayerCount: 2
Fore
SplineSet
1078 733 m 0,0,1
 1078 352 1078 352 958 166 c 128,-1,2
 838 -20 838 -20 610 -20 c 0,3,4
 502 -20 502 -20 416.5 26 c 128,-1,5
 331 72 331 72 272 165 c 128,-1,6
 213 258 213 258 182 399.5 c 128,-1,7
 151 541 151 541 151 733 c 0,8,9
 151 1107 151 1107 267.5 1295 c 128,-1,10
 384 1483 384 1483 616 1483 c 0,11,12
 737 1483 737 1483 824.5 1436.5 c 128,-1,13
 912 1390 912 1390 968 1296 c 128,-1,14
 1024 1202 1024 1202 1051 1061.5 c 128,-1,15
 1078 921 1078 921 1078 733 c 0,0,1
608 113 m 0,16,17
 670 113 670 113 720 139 c 128,-1,18
 770 165 770 165 806.5 229 c 128,-1,19
 843 293 843 293 864 401 c 128,-1,20
 885 509 885 509 888 673 c 1,21,-1
 341 673 l 1,22,23
 344 510 344 510 366 402 c 128,-1,24
 388 294 388 294 423.5 229.5 c 128,-1,25
 459 165 459 165 506 139 c 128,-1,26
 553 113 553 113 608 113 c 0,16,17
619 1354 m 0,27,28
 558 1354 558 1354 508 1328.5 c 128,-1,29
 458 1303 458 1303 422 1240 c 128,-1,30
 386 1177 386 1177 365 1071 c 128,-1,31
 344 965 344 965 341 804 c 1,32,-1
 888 804 l 1,33,34
 885 965 885 965 865 1071 c 128,-1,35
 845 1177 845 1177 810.5 1240 c 128,-1,36
 776 1303 776 1303 727.5 1328.5 c 128,-1,37
 679 1354 679 1354 619 1354 c 0,27,28
EndSplineSet
EndChar

StartChar: iota
Encoding: 953 953 390
Width: 1229
GlyphClass: 2
Flags: W
LayerCount: 2
Fore
SplineSet
648 346 m 2,0,1
 648 235 648 235 688 184.5 c 128,-1,2
 728 134 728 134 812 134 c 0,3,4
 878 134 878 134 929.5 165 c 128,-1,5
 981 196 981 196 1023 240 c 1,6,-1
 1117 120 l 1,7,8
 1059 56 1059 56 984.5 18 c 128,-1,9
 910 -20 910 -20 811 -20 c 0,10,11
 719 -20 719 -20 654 3 c 128,-1,12
 589 26 589 26 547.5 72 c 128,-1,13
 506 118 506 118 487 187 c 128,-1,14
 468 256 468 256 468 349 c 2,15,-1
 468 940 l 1,16,-1
 149 940 l 1,17,-1
 149 1082 l 1,18,-1
 648 1082 l 1,19,-1
 648 346 l 2,0,1
EndSplineSet
EndChar

StartChar: lambda
Encoding: 955 955 392
Width: 1229
GlyphClass: 2
Flags: W
LayerCount: 2
Fore
SplineSet
563 965 m 1,0,-1
 527 1064 l 2,1,2
 496 1148 496 1148 473.5 1202 c 128,-1,3
 451 1256 451 1256 429 1286.5 c 128,-1,4
 407 1317 407 1317 380.5 1328.5 c 128,-1,5
 354 1340 354 1340 316 1340 c 0,6,7
 301 1340 301 1340 276.5 1336 c 128,-1,8
 252 1332 252 1332 235 1328 c 1,9,-1
 200 1460 l 1,10,11
 217 1465 217 1465 237.5 1469 c 128,-1,12
 258 1473 258 1473 280 1476.5 c 128,-1,13
 302 1480 302 1480 323 1482 c 128,-1,14
 344 1484 344 1484 361 1484 c 0,15,16
 421 1484 421 1484 465 1466 c 128,-1,17
 509 1448 509 1448 544.5 1407.5 c 128,-1,18
 580 1367 580 1367 611.5 1301.5 c 128,-1,19
 643 1236 643 1236 679 1141 c 2,20,-1
 1106 0 l 1,21,-1
 916 0 l 1,22,-1
 709 577 l 2,23,24
 701 599 701 599 692 627.5 c 128,-1,25
 683 656 683 656 674 685 c 128,-1,26
 665 714 665 714 657 742 c 128,-1,27
 649 770 649 770 644 791 c 1,28,29
 637 770 637 770 626 740 c 128,-1,30
 615 710 615 710 602.5 679.5 c 128,-1,31
 590 649 590 649 578 621 c 128,-1,32
 566 593 566 593 558 575 c 2,33,-1
 301 0 l 1,34,-1
 114 0 l 1,35,-1
 563 965 l 1,0,-1
EndSplineSet
EndChar

StartChar: mu
Encoding: 956 956 393
Width: 1229
GlyphClass: 2
Flags: W
LayerCount: 2
Fore
SplineSet
156 -425 m 1,0,-1
 156 1082 l 1,1,-1
 337 1082 l 1,2,-1
 337 396 l 2,3,4
 337 318 337 318 353 265 c 128,-1,5
 369 212 369 212 398 179.5 c 128,-1,6
 427 147 427 147 469 133 c 128,-1,7
 511 119 511 119 563 119 c 0,8,9
 691 119 691 119 764 206 c 128,-1,10
 837 293 837 293 837 455 c 2,11,-1
 837 1082 l 1,12,-1
 1017 1082 l 1,13,-1
 1017 266 l 2,14,15
 1017 223 1017 223 1022.5 194.5 c 128,-1,16
 1028 166 1028 166 1038 150 c 128,-1,17
 1048 134 1048 134 1062.5 127.5 c 128,-1,18
 1077 121 1077 121 1095 121 c 0,19,20
 1106 121 1106 121 1122 123.5 c 128,-1,21
 1138 126 1138 126 1149 129 c 1,22,-1
 1149 0 l 1,23,24
 1123 -8 1123 -8 1097.5 -14 c 128,-1,25
 1072 -20 1072 -20 1036 -20 c 0,26,27
 982 -20 982 -20 946.5 -5 c 128,-1,28
 911 10 911 10 889 36 c 128,-1,29
 867 62 867 62 857 97.5 c 128,-1,30
 847 133 847 133 845 174 c 1,31,-1
 842 174 l 1,32,33
 790 79 790 79 716.5 29.5 c 128,-1,34
 643 -20 643 -20 543 -20 c 0,35,36
 476 -20 476 -20 421.5 0.5 c 128,-1,37
 367 21 367 21 336 59 c 1,38,-1
 336 -425 l 1,39,-1
 156 -425 l 1,0,-1
EndSplineSet
EndChar

StartChar: nu
Encoding: 957 957 394
Width: 1229
GlyphClass: 2
Flags: W
LayerCount: 2
Fore
SplineSet
1078 846 m 0,0,1
 1078 744 1078 744 1045 634 c 128,-1,2
 1012 524 1012 524 956 414.5 c 128,-1,3
 900 305 900 305 826.5 199.5 c 128,-1,4
 753 94 753 94 672 0 c 1,5,-1
 502 0 l 1,6,-1
 92 1082 l 1,7,-1
 281 1082 l 1,8,-1
 612 154 l 1,9,10
 761 339 761 339 829.5 506.5 c 128,-1,11
 898 674 898 674 898 837 c 0,12,13
 898 918 898 918 883.5 977.5 c 128,-1,14
 869 1037 869 1037 849 1082 c 1,15,-1
 1026 1082 l 1,16,17
 1050 1037 1050 1037 1064 980.5 c 128,-1,18
 1078 924 1078 924 1078 846 c 0,0,1
EndSplineSet
EndChar

StartChar: xi
Encoding: 958 958 395
Width: 1229
GlyphClass: 2
Flags: W
LayerCount: 2
Fore
SplineSet
191 354 m 0,0,1
 191 430 191 430 220 503.5 c 128,-1,2
 249 577 249 577 311 639 c 128,-1,3
 373 701 373 701 469.5 746 c 128,-1,4
 566 791 566 791 702 810 c 1,5,-1
 702 812 l 1,6,7
 620 817 620 817 551 836.5 c 128,-1,8
 482 856 482 856 432.5 890 c 128,-1,9
 383 924 383 924 355.5 972 c 128,-1,10
 328 1020 328 1020 328 1082 c 0,11,12
 328 1146 328 1146 352 1190.5 c 128,-1,13
 376 1235 376 1235 417.5 1265.5 c 128,-1,14
 459 1296 459 1296 514 1314 c 128,-1,15
 569 1332 569 1332 631 1342 c 1,16,-1
 631 1350 l 1,17,18
 623 1349 623 1349 602.5 1348.5 c 128,-1,19
 582 1348 582 1348 554.5 1347 c 128,-1,20
 527 1346 527 1346 495.5 1345 c 128,-1,21
 464 1344 464 1344 435.5 1343.5 c 128,-1,22
 407 1343 407 1343 383 1342.5 c 128,-1,23
 359 1342 359 1342 347 1342 c 2,24,-1
 253 1342 l 1,25,-1
 253 1484 l 1,26,-1
 987 1484 l 1,27,-1
 987 1348 l 1,28,29
 936 1342 936 1342 880.5 1333.5 c 128,-1,30
 825 1325 825 1325 771.5 1312 c 128,-1,31
 718 1299 718 1299 670 1281 c 128,-1,32
 622 1263 622 1263 585.5 1237.5 c 128,-1,33
 549 1212 549 1212 527.5 1178.5 c 128,-1,34
 506 1145 506 1145 506 1100 c 0,35,36
 506 1037 506 1037 543 996.5 c 128,-1,37
 580 956 580 956 641 931.5 c 128,-1,38
 702 907 702 907 781 895 c 128,-1,39
 860 883 860 883 944 877 c 1,40,-1
 944 746 l 1,41,42
 878 738 878 738 810.5 723 c 128,-1,43
 743 708 743 708 680.5 686 c 128,-1,44
 618 664 618 664 563.5 634.5 c 128,-1,45
 509 605 509 605 468.5 567 c 128,-1,46
 428 529 428 529 405 482 c 128,-1,47
 382 435 382 435 382 379 c 0,48,49
 382 315 382 315 413 275.5 c 128,-1,50
 444 236 444 236 493 211 c 128,-1,51
 542 186 542 186 603.5 171 c 128,-1,52
 665 156 665 156 726 141 c 0,53,54
 784 127 784 127 843 110 c 128,-1,55
 902 93 902 93 950 64.5 c 128,-1,56
 998 36 998 36 1028.5 -8.5 c 128,-1,57
 1059 -53 1059 -53 1059 -121 c 0,58,59
 1059 -155 1059 -155 1050 -190 c 128,-1,60
 1041 -225 1041 -225 1028 -256.5 c 128,-1,61
 1015 -288 1015 -288 1000.5 -314.5 c 128,-1,62
 986 -341 986 -341 976 -358 c 1,63,-1
 850 -302 l 1,64,65
 859 -290 859 -290 868.5 -273.5 c 128,-1,66
 878 -257 878 -257 886 -238 c 128,-1,67
 894 -219 894 -219 899.5 -199.5 c 128,-1,68
 905 -180 905 -180 905 -161 c 0,69,70
 905 -127 905 -127 885.5 -103.5 c 128,-1,71
 866 -80 866 -80 830 -62.5 c 128,-1,72
 794 -45 794 -45 743.5 -31.5 c 128,-1,73
 693 -18 693 -18 632 -6 c 0,74,75
 587 3 587 3 536.5 15.5 c 128,-1,76
 486 28 486 28 437 46 c 128,-1,77
 388 64 388 64 343.5 90 c 128,-1,78
 299 116 299 116 265 153 c 128,-1,79
 231 190 231 190 211 239.5 c 128,-1,80
 191 289 191 289 191 354 c 0,0,1
EndSplineSet
EndChar

StartChar: pi
Encoding: 960 960 397
Width: 1229
GlyphClass: 2
Flags: W
LayerCount: 2
Fore
SplineSet
982 940 m 1,0,-1
 982 266 l 2,1,2
 982 223 982 223 988.5 194.5 c 128,-1,3
 995 166 995 166 1007 150 c 128,-1,4
 1019 134 1019 134 1036.5 127.5 c 128,-1,5
 1054 121 1054 121 1076 121 c 0,6,7
 1090 121 1090 121 1109.5 123.5 c 128,-1,8
 1129 126 1129 126 1142 129 c 1,9,-1
 1162 0 l 1,10,11
 1131 -8 1131 -8 1096.5 -14 c 128,-1,12
 1062 -20 1062 -20 1019 -20 c 0,13,14
 961 -20 961 -20 919.5 -6 c 128,-1,15
 878 8 878 8 852 37.5 c 128,-1,16
 826 67 826 67 814 114 c 128,-1,17
 802 161 802 161 802 227 c 2,18,-1
 802 940 l 1,19,-1
 430 940 l 1,20,-1
 430 868 l 2,21,22
 430 738 430 738 426.5 613.5 c 128,-1,23
 423 489 423 489 415 377.5 c 128,-1,24
 407 266 407 266 394 170 c 128,-1,25
 381 74 381 74 362 0 c 1,26,-1
 174 0 l 1,27,28
 193 76 193 76 208 173 c 128,-1,29
 223 270 223 270 233 381 c 128,-1,30
 243 492 243 492 248.5 613.5 c 128,-1,31
 254 735 254 735 254 860 c 2,32,-1
 254 940 l 1,33,34
 215 940 215 940 178.5 937 c 128,-1,35
 142 934 142 934 111.5 928.5 c 128,-1,36
 81 923 81 923 57.5 916.5 c 128,-1,37
 34 910 34 910 22 903 c 1,38,-1
 22 1053 l 1,39,40
 34 1059 34 1059 55.5 1064.5 c 128,-1,41
 77 1070 77 1070 102.5 1074 c 128,-1,42
 128 1078 128 1078 155 1080 c 128,-1,43
 182 1082 182 1082 205 1082 c 2,44,-1
 1186 1082 l 1,45,-1
 1186 940 l 1,46,-1
 982 940 l 1,0,-1
EndSplineSet
EndChar

StartChar: rho
Encoding: 961 961 398
Width: 1229
GlyphClass: 2
Flags: W
LayerCount: 2
Fore
SplineSet
1108 516 m 0,0,1
 1108 398 1108 398 1076.5 299.5 c 128,-1,2
 1045 201 1045 201 987.5 130 c 128,-1,3
 930 59 930 59 849.5 19.5 c 128,-1,4
 769 -20 769 -20 671 -20 c 0,5,6
 610 -20 610 -20 560.5 -10 c 128,-1,7
 511 0 511 0 471 18.5 c 128,-1,8
 431 37 431 37 398.5 63.5 c 128,-1,9
 366 90 366 90 337 123 c 1,10,-1
 333 123 l 1,11,12
 335 93 335 93 336 62.5 c 128,-1,13
 337 32 337 32 337 0 c 2,14,-1
 337 -425 l 1,15,-1
 157 -425 l 1,16,-1
 157 581 l 2,17,18
 157 700 157 700 187 796.5 c 128,-1,19
 217 893 217 893 275 961 c 128,-1,20
 333 1029 333 1029 418 1066 c 128,-1,21
 503 1103 503 1103 612 1103 c 0,22,23
 715 1103 715 1103 805.5 1063.5 c 128,-1,24
 896 1024 896 1024 963 949 c 128,-1,25
 1030 874 1030 874 1069 765 c 128,-1,26
 1108 656 1108 656 1108 516 c 0,0,1
915 524 m 0,27,28
 915 628 915 628 893 711 c 128,-1,29
 871 794 871 794 829.5 851.5 c 128,-1,30
 788 909 788 909 730 939.5 c 128,-1,31
 672 970 672 970 600 970 c 0,32,33
 531 970 531 970 481 943.5 c 128,-1,34
 431 917 431 917 399 866.5 c 128,-1,35
 367 816 367 816 352 743 c 128,-1,36
 337 670 337 670 337 577 c 2,37,-1
 337 260 l 1,38,39
 366 225 366 225 401.5 197.5 c 128,-1,40
 437 170 437 170 477 151.5 c 128,-1,41
 517 133 517 133 560.5 123 c 128,-1,42
 604 113 604 113 648 113 c 0,43,44
 715 113 715 113 765 142 c 128,-1,45
 815 171 815 171 848.5 224.5 c 128,-1,46
 882 278 882 278 898.5 354 c 128,-1,47
 915 430 915 430 915 524 c 0,27,28
EndSplineSet
EndChar

